<svg xmlns="http://www.w3.org/2000/svg" width="18" height="18" fill="none"><circle cx="9" cy="9" r="8.222" fill="#F99600" stroke="#fff" stroke-width=".444"/><path fill="#fff" d="M10.645 7.24a2.412 2.412 0 0 0-3.98 1.17.172.172 0 0 1-.168.131h-.822a.172.172 0 0 1-.169-.203 3.557 3.557 0 0 1 5.95-1.909l.512-.512a.344.344 0 0 1 .588.243v1.922c0 .19-.154.344-.345.344H10.29a.344.344 0 0 1-.244-.587l.599-.599ZM5.789 9.573H7.71c.306 0 .46.371.243.588l-.599.598a2.411 2.411 0 0 0 3.98-1.17.173.173 0 0 1 .168-.13h.822c.107 0 .189.097.169.203a3.557 3.557 0 0 1-5.95 1.909l-.512.512a.344.344 0 0 1-.588-.244V9.917c0-.19.154-.344.345-.344Z"/></svg>