<svg xmlns="http://www.w3.org/2000/svg" width="251" height="38" fill="none"><path fill="#000" d="M.202 11.913c-.087 0-.13-.03-.13-.173v-.072c0-.13.043-.173.115-.187.49-.087.807-.274.821-.835l.302-8.021c.015-.432-.273-.663-.835-.763C.403 1.847.36 1.804.36 1.674v-.072c0-.144.043-.172.13-.172.763.043 1.512.043 2.275 0l2.131 7.142 2.26-7.142a18.5 18.5 0 0 0 2.19 0c.086 0 .13.028.13.172v.072c0 .13-.044.173-.116.188-.547.1-.85.345-.835.734l.216 8.15c.014.432.201.634.82.735.073.014.116.057.116.187v.072c0 .144-.043.173-.13.173-.518 0-.979-.072-1.497-.072-.519 0-.95.072-1.613.072-.087 0-.13-.03-.13-.173v-.072c0-.13.058-.173.173-.187.691-.13.835-.332.82-.735l-.186-7.272-2.39 7.575c-.03.086-.087.144-.188.144h-.202c-.1 0-.158-.058-.187-.144L1.83 3.546l-.245 7.2c-.014.432.173.62.965.735.115.014.173.057.173.187v.072c0 .144-.044.173-.13.173-.446 0-.878-.072-1.325-.072-.36 0-.705.072-1.065.072Zm9.817 0c-.086 0-.13-.03-.13-.173v-.072c0-.13.058-.173.173-.202.317-.086.648-.36.648-.72V6.73c0-.36-.187-.62-.677-.75-.072-.013-.1-.071-.1-.143V5.72c0-.072.043-.115.115-.144.446-.144 1.195-.576 1.613-.994.057-.057.13-.043.216-.014.1.043.13.1.13.173v6.004c0 .375.36.663.705.735.072.014.115.057.115.187v.072c0 .144-.043.173-.13.173-.446 0-.907-.072-1.353-.072-.447 0-.879.072-1.325.072ZM11.3 3.575c-.518 0-.864-.403-.864-1.022 0-.605.346-1.008.864-1.008.519 0 .85.403.85 1.008 0 .619-.331 1.022-.85 1.022Zm1.869 8.338c-.087 0-.13-.03-.13-.173v-.072c0-.13.058-.173.173-.202.317-.086.648-.36.648-.72V2.51c0-.36-.216-.62-.677-.75-.072-.014-.1-.071-.1-.143v-.115a.14.14 0 0 1 .115-.144c.69-.144 1.195-.332 1.612-.605a.196.196 0 0 1 .173-.03l.072.03c.072.029.101.086.101.158v9.835c0 .375.36.663.706.735.072.014.115.057.115.187v.072c0 .144-.043.173-.13.173-.446 0-.907-.072-1.353-.072-.447 0-.879.072-1.325.072Zm6.076.216c-1.612 0-3.052-1.527-3.052-3.816 0-2.491 1.483-3.744 2.966-3.744 1.57 0 2.52 1.123 2.52 2.347 0 .547-.173.59-.475.59h-3.6v.346c0 2.189 1.051 3.355 2.203 3.355.663 0 1.138-.288 1.555-.806.072-.087.159-.101.23-.043l.058.043c.072.057.101.13.058.216-.518.979-1.44 1.512-2.462 1.512Zm-1.598-5.127h1.483c.879 0 1.138-.216 1.138-.763 0-.662-.504-1.18-1.138-1.18-.72 0-1.31.547-1.483 1.943Zm6.783 5.127c-.95 0-1.814-.288-2.088-.519-.158-.144-.187-.23-.187-.475V9.508a.13.13 0 0 1 .13-.13h.115c.072 0 .144.058.173.173.288 1.239 1.08 2.088 2.059 2.088.691 0 1.066-.403 1.066-1.051 0-1.627-3.442-2.246-3.442-4.277 0-1.037.763-1.742 2.102-1.742.792 0 1.541.201 1.8.417.159.144.188.23.188.476v1.267a.13.13 0 0 1-.13.13h-.115c-.072 0-.144-.058-.173-.173-.26-1.167-1.022-1.628-1.685-1.628-.504 0-.864.303-.864.836 0 1.324 3.355 1.857 3.355 4.204 0 1.195-.792 2.03-2.304 2.03Zm4.96 0c-.994 0-1.512-.605-1.512-2.347V5.36c-.26 0-.418.029-.576.029-.173 0-.202-.072-.202-.173v-.058c0-.1.043-.13.245-.23.36-.173.864-.59 1.469-1.757.043-.086.13-.086.187-.058l.072.03c.072.028.1.086.1.158v1.44c.548-.015.894-.03 1.268-.058.274-.014.36.029.36.187v.23c0 .159-.086.245-.346.245l-1.281-.014v3.96c0 1.498.216 1.944.777 1.944.188 0 .418-.072.663-.23.086-.058.172-.087.244 0l.058.072c.058.072.072.158 0 .259-.317.46-.936.792-1.526.792Zm4.875 0c-1.872 0-3.082-1.483-3.082-3.744 0-2.304 1.21-3.816 3.068-3.816 1.843 0 3.024 1.483 3.024 3.715 0 2.318-1.181 3.845-3.01 3.845Zm.072-.447c.98 0 1.526-1.195 1.526-3.225 0-2.175-.619-3.442-1.67-3.442-1.008 0-1.599 1.023-1.599 3.24 0 2.16.648 3.427 1.743 3.427Zm8.077-4.507c0-1.253-.418-1.685-1.21-1.685-.518 0-1.109.303-1.382.965v4.291c0 .375.36.663.705.735.072.014.116.057.116.187v.072c0 .144-.044.173-.13.173-.446 0-.907-.072-1.354-.072-.446 0-.878.072-1.324.072-.087 0-.13-.03-.13-.173v-.072c0-.13.058-.173.173-.202.317-.086.648-.36.648-.72V6.585c0-.36-.187-.62-.677-.75-.072-.013-.1-.071-.1-.143v-.115a.14.14 0 0 1 .114-.144c.634-.13 1.253-.547 1.556-.85.057-.057.13-.043.216-.014.1.043.13.1.13.173v.964c.489-.792 1.194-1.137 1.943-1.137 1.383 0 2.002.85 2.002 2.376v3.801c0 .375.36.663.705.735.072.014.116.057.116.187v.072c0 .144-.044.173-.13.173-.446 0-.907-.072-1.354-.072-.446 0-.878.072-1.324.072-.087 0-.13-.03-.13-.173v-.072c0-.13.058-.173.173-.202.317-.086.648-.36.648-.72v-3.57Zm5.392 4.954c-1.612 0-3.052-1.527-3.052-3.816 0-2.491 1.483-3.744 2.966-3.744 1.57 0 2.52 1.123 2.52 2.347 0 .547-.173.59-.475.59h-3.6v.346c0 2.189 1.051 3.355 2.203 3.355.662 0 1.138-.288 1.555-.806.072-.087.159-.101.23-.043l.058.043c.072.057.101.13.058.216-.519.979-1.44 1.512-2.463 1.512Zm-1.598-5.127h1.483c.879 0 1.138-.216 1.138-.763 0-.662-.504-1.18-1.138-1.18-.72 0-1.31.547-1.483 1.943Zm4.681-.057c-.202 0-.317-.115-.317-.317v-.23c0-.202.115-.317.317-.317h3.657c.202 0 .317.115.317.317v.23c0 .202-.115.317-.316.317h-3.658Zm7.896 5.184c-1.152 0-1.526-.648-1.944-.648-.216 0-.33.057-.432.273-.057.116-.13.159-.245.159h-.072c-.143 0-.215-.087-.201-.23.029-.245.043-.908.043-1.153V2.51c0-.36-.216-.62-.677-.75-.072-.014-.1-.071-.1-.143v-.115a.14.14 0 0 1 .115-.144c.69-.144 1.137-.332 1.555-.605A.196.196 0 0 1 57 .723l.072.03c.072.029.1.086.1.158v4.493c.505-.576 1.153-.835 1.916-.835 1.713 0 2.908 1.267 2.908 3.513 0 2.78-1.584 4.047-3.21 4.047Zm-1.555-1.47a1.886 1.886 0 0 0 1.613.922c.907 0 1.742-.748 1.742-3.153 0-2.26-.792-3.125-1.915-3.125-.533 0-1.08.245-1.44.691v4.666Zm9.682 1.398c-.475 0-.922-.245-1.123-1.11-.62.764-1.383 1.182-2.146 1.182-.878 0-1.353-.634-1.353-1.397 0-.95.763-1.9 3.398-2.909l.014-.965c.044-1.44-.244-1.8-.835-1.8-1.21 0-.763 1.973-1.771 1.973-.274 0-.533-.187-.533-.648 0-.98 1.167-1.814 2.448-1.814 1.397 0 2.03.633 1.987 2.088l-.028 2.765c.014 1.526.115 1.756.374 1.756.115 0 .216-.057.302-.173.044-.057.13-.1.245-.028l.043.028c.116.072.101.144.058.274-.158.475-.518.778-1.08.778Zm-3.24-1.599c0 .504.288.792.691.792.432 0 .936-.33 1.34-.878a9.47 9.47 0 0 1-.03-.691V8.399c-1.468.547-2.001 1.282-2.001 2.06Zm6.841 1.671c-.95 0-1.814-.288-2.088-.519-.158-.144-.187-.23-.187-.475V9.508a.13.13 0 0 1 .13-.13h.115c.072 0 .144.058.173.173.288 1.239 1.08 2.088 2.059 2.088.691 0 1.065-.403 1.065-1.051 0-1.627-3.441-2.246-3.441-4.277 0-1.037.763-1.742 2.102-1.742.792 0 1.541.201 1.8.417.159.144.187.23.187.476v1.267a.13.13 0 0 1-.13.13h-.114c-.072 0-.144-.058-.173-.173-.26-1.167-1.023-1.628-1.685-1.628-.504 0-.864.303-.864.836 0 1.324 3.355 1.857 3.355 4.204 0 1.195-.792 2.03-2.304 2.03Zm5.798 0c-1.613 0-3.053-1.527-3.053-3.816 0-2.491 1.484-3.744 2.967-3.744 1.57 0 2.52 1.123 2.52 2.347 0 .547-.173.59-.476.59h-3.6v.346c0 2.189 1.052 3.355 2.204 3.355.662 0 1.137-.288 1.555-.806.072-.087.158-.101.23-.043l.058.043c.072.057.1.13.058.216-.519.979-1.44 1.512-2.463 1.512Zm-1.598-5.127h1.483c.878 0 1.138-.216 1.138-.763 0-.662-.505-1.18-1.138-1.18-.72 0-1.31.547-1.483 1.943Zm9.289-4.492c0-.36-.216-.62-.677-.75-.072-.014-.101-.071-.101-.143v-.115a.14.14 0 0 1 .115-.144c.691-.144 1.138-.332 1.555-.605a.196.196 0 0 1 .173-.03l.072.03c.072.029.101.086.101.158v9.115c0 .59.187.85.677.98.072.014.1.072.1.143v.116a.14.14 0 0 1-.115.144c-.49.057-1.224.316-1.526.604-.072.058-.13.072-.245.03-.1-.044-.13-.101-.13-.173v-.879c-.547.778-1.195 1.138-1.972 1.138-1.541 0-2.808-1.397-2.808-3.787 0-2.506 1.454-3.773 3.11-3.773.691 0 1.224.201 1.67.533V2.51Zm-3.37 5.5c0 2.002.648 3.298 1.757 3.298.662 0 1.296-.59 1.555-1.325v-3.34c-.274-1.052-.936-1.541-1.656-1.541-.907 0-1.656.82-1.656 2.908Z"/><path fill="#000" d="M.74 25.913v-6.11h3.663v.657H1.48v2.064h2.648v.656H1.48v2.733H.74Zm6.36.095c-.414 0-.777-.098-1.09-.295a2.006 2.006 0 0 1-.727-.826c-.173-.354-.26-.768-.26-1.241 0-.477.087-.894.26-1.25a2 2 0 0 1 .728-.83 1.998 1.998 0 0 1 1.088-.295c.414 0 .776.099 1.086.296.312.197.555.473.728.829.175.356.263.773.263 1.25 0 .473-.088.887-.263 1.24-.173.355-.416.63-.728.827a1.98 1.98 0 0 1-1.086.295Zm0-.632c.314 0 .572-.08.775-.242.203-.16.353-.373.45-.635.098-.263.147-.547.147-.853 0-.306-.05-.592-.147-.856a1.443 1.443 0 0 0-.45-.642c-.203-.163-.461-.244-.776-.244-.314 0-.572.081-.775.244a1.443 1.443 0 0 0-.45.642c-.098.264-.147.55-.147.856 0 .306.049.59.146.853.098.262.248.474.45.635.204.161.462.242.776.242Zm3.15.537V21.33h.68v.692h.048a1.1 1.1 0 0 1 .453-.552c.22-.141.466-.212.74-.212a7.76 7.76 0 0 1 .37.012v.716a2.122 2.122 0 0 0-.164-.027 1.616 1.616 0 0 0-.265-.02c-.223 0-.422.046-.597.14a1.03 1.03 0 0 0-.56.934v2.899h-.705Zm6.192-6.109v6.109h-.704v-6.11h.704Zm2.638 6.216c-.29 0-.554-.055-.79-.164a1.356 1.356 0 0 1-.564-.48 1.355 1.355 0 0 1-.21-.764c0-.262.052-.475.156-.638.103-.165.241-.294.414-.388.173-.093.364-.163.573-.209.21-.047.423-.085.636-.113.278-.036.504-.063.677-.08.175-.02.302-.053.381-.099.082-.046.123-.125.123-.239v-.023c0-.295-.08-.524-.242-.687-.159-.163-.4-.244-.725-.244-.336 0-.6.073-.79.22a1.319 1.319 0 0 0-.403.472l-.668-.239a1.61 1.61 0 0 1 .477-.65c.201-.157.42-.267.656-.328.24-.064.474-.096.704-.096.148 0 .317.018.508.054.192.034.378.104.557.212.181.107.331.27.45.486.12.217.18.507.18.871v3.019h-.704v-.62h-.036a1.251 1.251 0 0 1-.239.319c-.111.113-.26.21-.444.289-.185.08-.41.12-.677.12Zm.107-.632c.278 0 .513-.055.704-.164a1.116 1.116 0 0 0 .585-.97v-.644c-.03.036-.096.069-.197.098a3.35 3.35 0 0 1-.346.075 16.713 16.713 0 0 1-.674.09 2.685 2.685 0 0 0-.513.116.885.885 0 0 0-.382.235.6.6 0 0 0-.143.424c0 .245.09.43.271.555.183.123.415.185.695.185Zm3.278.525V21.33h.68v.692h.047a1.1 1.1 0 0 1 .454-.552c.219-.141.465-.212.74-.212a7.76 7.76 0 0 1 .37.012v.716a2.122 2.122 0 0 0-.165-.027 1.616 1.616 0 0 0-.265-.02c-.223 0-.422.046-.597.14a1.028 1.028 0 0 0-.56.934v2.899h-.704Zm4.835 1.813a2.61 2.61 0 0 1-.877-.13 1.86 1.86 0 0 1-.611-.34 1.86 1.86 0 0 1-.385-.448l.56-.394a4.8 4.8 0 0 0 .242.286c.098.11.23.204.4.284.17.081.395.122.671.122.37 0 .675-.09.916-.269.24-.178.36-.459.36-.84v-.931h-.059a3.769 3.769 0 0 1-.22.31c-.094.121-.23.23-.406.325-.175.093-.412.14-.71.14-.37 0-.702-.087-.997-.262a1.841 1.841 0 0 1-.695-.764c-.169-.334-.253-.74-.253-1.217 0-.47.082-.878.247-1.226.165-.35.395-.62.69-.811.294-.193.634-.29 1.02-.29.298 0 .535.05.71.15.177.097.312.208.405.334.096.123.17.224.221.304h.072v-.728h.68v4.713c0 .394-.09.714-.269.96-.177.25-.415.431-.716.546a2.7 2.7 0 0 1-.996.176Zm-.024-2.517c.282 0 .521-.065.716-.194.195-.13.343-.315.444-.558.102-.242.153-.533.153-.87 0-.331-.05-.622-.15-.875a1.31 1.31 0 0 0-.441-.593 1.186 1.186 0 0 0-.722-.215c-.298 0-.547.075-.746.226a1.38 1.38 0 0 0-.444.609 2.352 2.352 0 0 0-.146.847c0 .318.05.6.149.844.101.243.25.434.447.573.2.137.446.206.74.206Zm5.214.799c-.441 0-.822-.097-1.142-.292a1.962 1.962 0 0 1-.737-.823c-.17-.354-.256-.766-.256-1.235 0-.47.085-.883.256-1.241.173-.36.414-.64.722-.841.31-.203.672-.305 1.086-.305.238 0 .474.04.707.12.232.08.444.208.635.387.191.177.343.412.456.704.114.293.17.653.17 1.08v.298h-3.531v-.608h2.816c0-.258-.052-.49-.155-.692a1.168 1.168 0 0 0-.436-.48 1.22 1.22 0 0 0-.662-.176c-.28 0-.523.07-.728.209a1.374 1.374 0 0 0-.468.536c-.11.221-.165.458-.165.71v.406c0 .346.06.64.18.88.12.239.289.42.504.546.214.123.464.185.748.185.185 0 .352-.026.502-.078.15-.053.28-.133.39-.238.11-.108.194-.241.254-.4l.68.19a1.523 1.523 0 0 1-.361.61 1.76 1.76 0 0 1-.626.405 2.325 2.325 0 0 1-.839.143Zm2.968-.095V21.33h.68v.692h.048a1.1 1.1 0 0 1 .454-.552c.218-.141.465-.212.74-.212a7.754 7.754 0 0 1 .37.012v.716a2.113 2.113 0 0 0-.165-.027 1.616 1.616 0 0 0-.265-.02c-.223 0-.422.046-.597.14a1.03 1.03 0 0 0-.56.934v2.899h-.705Zm7.218.083c-.401 0-.747-.073-1.038-.22a1.63 1.63 0 0 1-.67-.606 1.65 1.65 0 0 1-.237-.88c0-.255.054-.48.162-.677.109-.199.26-.383.45-.552.193-.17.415-.342.665-.513l.883-.656c.173-.114.311-.235.415-.364a.777.777 0 0 0 .158-.507c0-.155-.069-.306-.206-.45a.696.696 0 0 0-.534-.218.724.724 0 0 0-.411.119.847.847 0 0 0-.278.298.757.757 0 0 0-.098.37c0 .143.038.288.116.436.08.145.18.294.301.447.123.151.25.306.382.465l2.804 3.425h-.847l-2.315-2.792-.585-.704a3.344 3.344 0 0 1-.417-.624 1.455 1.455 0 0 1-.155-.665c0-.274.06-.515.182-.722.123-.208.295-.37.516-.486.223-.117.483-.176.781-.176.306 0 .57.06.79.179.221.117.392.274.51.468.12.193.18.403.18.63 0 .292-.073.546-.218.76a2.488 2.488 0 0 1-.594.6l-1.217.907c-.274.203-.46.4-.557.59-.098.191-.147.328-.147.412 0 .191.05.369.15.534.099.165.24.298.42.4.181.101.393.152.636.152.23 0 .455-.049.674-.146.218-.1.416-.243.593-.43.18-.187.32-.412.424-.674a2.36 2.36 0 0 0 .158-.886h.68c0 .406-.047.737-.14.993a2.113 2.113 0 0 1-.316.603 4.366 4.366 0 0 1-.284.325 1.25 1.25 0 0 0-.065.09c-.02.03-.042.06-.066.09-.197.22-.445.385-.746.494a2.61 2.61 0 0 1-.889.161Zm6.006-.083V21.33h.68v.716h.06a1.15 1.15 0 0 1 .462-.57c.213-.137.468-.206.767-.206.302 0 .553.069.754.206.203.135.361.325.475.57h.047a1.34 1.34 0 0 1 .528-.564 1.61 1.61 0 0 1 .844-.212c.41 0 .745.129 1.006.385.26.255.39.651.39 1.19v3.067h-.703v-3.067c0-.338-.093-.58-.278-.724a1.027 1.027 0 0 0-.653-.218c-.322 0-.572.097-.749.292a1.043 1.043 0 0 0-.265.734v2.983h-.716v-3.138c0-.26-.085-.47-.254-.63a.908.908 0 0 0-.653-.241.965.965 0 0 0-.513.146 1.103 1.103 0 0 0-.382.405 1.198 1.198 0 0 0-.143.594v2.864h-.704Zm9.162.095c-.414 0-.777-.098-1.089-.295a2.006 2.006 0 0 1-.728-.826c-.173-.354-.26-.768-.26-1.241 0-.477.087-.894.26-1.25.175-.356.418-.633.728-.83a1.998 1.998 0 0 1 1.089-.295c.414 0 .776.099 1.086.296.312.197.555.473.728.829.175.356.262.773.262 1.25 0 .473-.087.887-.262 1.24-.173.355-.416.63-.728.827a1.98 1.98 0 0 1-1.086.295Zm0-.632c.314 0 .573-.08.776-.242a1.43 1.43 0 0 0 .45-.635c.097-.263.146-.547.146-.853 0-.306-.049-.592-.146-.856a1.444 1.444 0 0 0-.45-.642c-.203-.163-.462-.244-.776-.244s-.573.081-.776.244a1.443 1.443 0 0 0-.45.642c-.098.264-.146.55-.146.856 0 .306.048.59.146.853.097.262.248.474.45.635.203.161.462.242.776.242Zm3.151.537V21.33h.68v.692h.048a1.1 1.1 0 0 1 .453-.552c.219-.141.465-.212.74-.212a7.754 7.754 0 0 1 .37.012v.716a2.107 2.107 0 0 0-.164-.027 1.617 1.617 0 0 0-.266-.02c-.223 0-.422.046-.596.14a1.03 1.03 0 0 0-.56.934v2.899h-.705Zm4.907.095c-.442 0-.823-.097-1.143-.292a1.962 1.962 0 0 1-.737-.823c-.17-.354-.256-.766-.256-1.235 0-.47.085-.883.256-1.241.173-.36.414-.64.722-.841.31-.203.672-.305 1.086-.305.239 0 .474.04.707.12.233.08.444.208.635.387.191.177.344.412.457.704.113.293.17.653.17 1.08v.298h-3.532v-.608h2.816c0-.258-.052-.49-.155-.692a1.168 1.168 0 0 0-.436-.48 1.22 1.22 0 0 0-.662-.176c-.28 0-.523.07-.728.209a1.374 1.374 0 0 0-.468.536c-.11.221-.164.458-.164.71v.406c0 .346.06.64.179.88.121.239.29.42.504.546.215.123.464.185.749.185.185 0 .352-.026.5-.078a1.07 1.07 0 0 0 .392-.238c.109-.108.194-.241.253-.4l.68.19a1.52 1.52 0 0 1-.36.61 1.76 1.76 0 0 1-.627.405 2.325 2.325 0 0 1-.838.143Zm7.192 0c-.43 0-.8-.101-1.11-.304a1.984 1.984 0 0 1-.716-.838 2.841 2.841 0 0 1-.25-1.22c0-.466.085-.876.256-1.232.173-.358.414-.638.722-.838.31-.203.672-.305 1.086-.305.322 0 .612.06.87.18.26.119.471.286.636.5.165.215.268.466.307.752h-.704a1.092 1.092 0 0 0-.358-.555c-.183-.163-.43-.244-.74-.244a1.23 1.23 0 0 0-.721.215 1.399 1.399 0 0 0-.48.599c-.114.257-.17.558-.17.904 0 .354.055.662.166.925.114.262.273.466.478.611.207.145.45.218.728.218.183 0 .349-.032.498-.096a1.027 1.027 0 0 0 .6-.704h.703a1.631 1.631 0 0 1-.912 1.244 1.99 1.99 0 0 1-.89.188Zm4.692 0c-.414 0-.777-.098-1.089-.295a2.006 2.006 0 0 1-.728-.826c-.173-.354-.26-.768-.26-1.241 0-.477.087-.894.26-1.25.175-.356.418-.633.728-.83a1.998 1.998 0 0 1 1.089-.295c.413 0 .775.099 1.086.296.312.197.554.473.727.829.175.356.263.773.263 1.25 0 .473-.088.887-.263 1.24-.173.355-.415.63-.727.827-.31.197-.673.295-1.086.295Zm0-.632c.314 0 .573-.08.775-.242.203-.16.353-.373.45-.635.098-.263.147-.547.147-.853 0-.306-.049-.592-.146-.856a1.444 1.444 0 0 0-.45-.642c-.203-.163-.462-.244-.776-.244s-.573.081-.776.244a1.443 1.443 0 0 0-.45.642c-.098.264-.146.55-.146.856 0 .306.048.59.146.853.097.262.247.474.45.635.203.161.462.242.776.242Zm3.15.537V21.33h.68v.716h.06c.096-.245.25-.435.463-.57.212-.137.468-.206.766-.206.302 0 .554.069.755.206.203.135.36.325.474.57h.048c.117-.237.293-.425.528-.564a1.61 1.61 0 0 1 .844-.212c.41 0 .745.129 1.005.385.26.255.391.651.391 1.19v3.067h-.704v-3.067c0-.338-.092-.58-.277-.724a1.027 1.027 0 0 0-.653-.218c-.323 0-.572.097-.75.292a1.043 1.043 0 0 0-.265.734v2.983h-.716v-3.138c0-.26-.084-.47-.253-.63a.908.908 0 0 0-.653-.241.965.965 0 0 0-.514.146 1.103 1.103 0 0 0-.381.405 1.198 1.198 0 0 0-.144.594v2.864h-.704Zm7.301 1.718v-6.3h.68v.728h.084a6.24 6.24 0 0 1 .215-.304 1.23 1.23 0 0 1 .4-.334c.174-.1.411-.15.71-.15.385 0 .725.097 1.02.29.294.193.523.466.689.82.165.354.247.772.247 1.253 0 .485-.082.906-.247 1.262a1.954 1.954 0 0 1-.686.823c-.293.193-.63.29-1.012.29-.294 0-.53-.05-.707-.147a1.31 1.31 0 0 1-.408-.337 4.514 4.514 0 0 1-.221-.316h-.06v2.422h-.704Zm.692-4.01c0 .347.051.652.153.917.1.262.249.468.444.617.195.147.434.22.716.22.294 0 .54-.077.737-.232.198-.157.348-.368.447-.632.102-.267.152-.563.152-.89 0-.321-.05-.612-.149-.87a1.346 1.346 0 0 0-.444-.618c-.197-.153-.445-.23-.743-.23a1.17 1.17 0 0 0-.722.219 1.306 1.306 0 0 0-.441.602c-.1.256-.15.556-.15.898Zm5.131-3.817v6.109h-.704v-6.11h.704Zm3.21 6.204c-.441 0-.822-.097-1.142-.292a1.962 1.962 0 0 1-.737-.823c-.17-.354-.256-.766-.256-1.235 0-.47.085-.883.256-1.241.173-.36.414-.64.722-.841.31-.203.672-.305 1.086-.305.239 0 .474.04.707.12.232.08.444.208.635.387.191.177.343.412.457.704.113.293.17.653.17 1.08v.298h-3.532v-.608h2.816c0-.258-.052-.49-.155-.692a1.17 1.17 0 0 0-.436-.48 1.22 1.22 0 0 0-.662-.176c-.28 0-.523.07-.728.209a1.374 1.374 0 0 0-.468.536c-.11.221-.164.458-.164.71v.406c0 .346.06.64.179.88.12.239.289.42.504.546.215.123.464.185.748.185.185 0 .352-.026.502-.078a1.07 1.07 0 0 0 .39-.238c.11-.108.194-.241.254-.4l.68.19a1.532 1.532 0 0 1-.36.61c-.17.172-.379.308-.627.405a2.324 2.324 0 0 1-.839.143Zm3.37-4.677 1.098 1.873 1.098-1.873h.811l-1.479 2.29 1.479 2.292h-.811l-1.098-1.778-1.098 1.778h-.81l1.455-2.291-1.456-2.291h.811Zm6.374 6.3v-6.3h.68v.728h.084a6.13 6.13 0 0 1 .215-.304 1.25 1.25 0 0 1 .399-.334c.175-.1.412-.15.71-.15.386 0 .726.097 1.02.29.295.193.524.466.69.82.165.354.247.772.247 1.253 0 .485-.082.906-.247 1.262a1.958 1.958 0 0 1-.687.823c-.292.193-.629.29-1.011.29-.294 0-.53-.05-.707-.147a1.301 1.301 0 0 1-.408-.337 4.46 4.46 0 0 1-.221-.316h-.06v2.422h-.704Zm.692-4.01c0 .347.051.652.152.917.102.262.25.468.445.617.195.147.433.22.716.22.294 0 .54-.077.737-.232.198-.157.348-.368.447-.632.101-.267.152-.563.152-.89 0-.321-.05-.612-.149-.87a1.348 1.348 0 0 0-.444-.618c-.197-.153-.445-.23-.743-.23a1.17 1.17 0 0 0-.722.219 1.31 1.31 0 0 0-.442.602 2.486 2.486 0 0 0-.149.898Zm4.427 2.292V21.33h.68v.692h.048a1.1 1.1 0 0 1 .453-.552c.219-.141.466-.212.74-.212a7.775 7.775 0 0 1 .37.012v.716a2.172 2.172 0 0 0-.164-.027 1.623 1.623 0 0 0-.266-.02 1.24 1.24 0 0 0-.596.14 1.033 1.033 0 0 0-.561.934v2.899h-.704Zm4.847.095c-.413 0-.776-.098-1.088-.295a2.001 2.001 0 0 1-.728-.826c-.173-.354-.26-.768-.26-1.241 0-.477.087-.894.26-1.25a2 2 0 0 1 .728-.83 1.997 1.997 0 0 1 1.088-.295c.414 0 .776.099 1.086.296.312.197.555.473.728.829.175.356.262.773.262 1.25 0 .473-.087.887-.262 1.24a1.98 1.98 0 0 1-.728.827 1.98 1.98 0 0 1-1.086.295Zm0-.632c.315 0 .573-.08.776-.242.203-.16.353-.373.45-.635a2.42 2.42 0 0 0 .146-.853c0-.306-.048-.592-.146-.856a1.438 1.438 0 0 0-.45-.642c-.203-.163-.461-.244-.776-.244-.314 0-.572.081-.775.244a1.448 1.448 0 0 0-.451.642c-.097.264-.146.55-.146.856 0 .306.049.59.146.853.098.262.248.474.451.635.203.161.461.242.775.242Zm3.151-4.045h.704v4.916c0 .282-.049.527-.146.734a1.056 1.056 0 0 1-.436.48c-.193.113-.436.17-.73.17h-.144v-.656h.132c.214 0 .371-.064.471-.191.099-.125.149-.304.149-.537V21.33Zm.346-.764a.502.502 0 0 1-.355-.14.452.452 0 0 1-.146-.337c0-.131.049-.244.146-.337.1-.093.218-.14.355-.14a.49.49 0 0 1 .352.14.448.448 0 0 1 .149.337c0 .131-.05.244-.149.337a.49.49 0 0 1-.352.14Zm3.568 5.441c-.441 0-.822-.097-1.142-.292a1.964 1.964 0 0 1-.737-.823c-.171-.354-.256-.766-.256-1.235 0-.47.085-.883.256-1.241.173-.36.414-.64.722-.841.31-.203.672-.305 1.086-.305.238 0 .474.04.707.12.232.08.444.208.635.387.191.177.343.412.457.704.113.293.17.653.17 1.08v.298h-3.532v-.608h2.816c0-.258-.052-.49-.155-.692a1.173 1.173 0 0 0-1.098-.656c-.281 0-.523.07-.728.209a1.369 1.369 0 0 0-.468.536 1.57 1.57 0 0 0-.164.71v.406c0 .346.059.64.179.88.121.239.289.42.504.546.214.123.464.185.748.185.185 0 .352-.026.502-.078.151-.053.281-.133.39-.238.11-.108.194-.241.254-.4l.68.19a1.523 1.523 0 0 1-.361.61 1.763 1.763 0 0 1-.626.405 2.327 2.327 0 0 1-.839.143Zm4.83 0c-.43 0-.8-.101-1.11-.304a1.985 1.985 0 0 1-.716-.838 2.84 2.84 0 0 1-.25-1.22c0-.466.085-.876.256-1.232.173-.358.414-.638.722-.838.31-.203.672-.305 1.086-.305.322 0 .612.06.871.18.258.119.47.286.635.5.165.215.268.466.308.752h-.704a1.093 1.093 0 0 0-.358-.555c-.183-.163-.43-.244-.74-.244a1.23 1.23 0 0 0-.722.215 1.395 1.395 0 0 0-.48.599c-.114.257-.17.558-.17.904 0 .354.055.662.167.925.113.262.272.466.477.611.207.145.449.218.728.218.183 0 .349-.032.498-.096a1.03 1.03 0 0 0 .379-.274 1.06 1.06 0 0 0 .221-.43h.704a1.636 1.636 0 0 1-.913 1.244 1.991 1.991 0 0 1-.889.188Zm4.823-4.677v.597h-2.374v-.597h2.374Zm-1.682-1.098h.704V24.6c0 .2.029.348.086.448.06.097.136.163.227.197a.913.913 0 0 0 .295.047 1.234 1.234 0 0 0 .311-.036l.143.633a1.473 1.473 0 0 1-.525.084c-.199 0-.394-.043-.585-.129a1.158 1.158 0 0 1-.471-.39c-.123-.176-.185-.396-.185-.663v-4.558Zm5.905 2.124-.633.18a1.17 1.17 0 0 0-.176-.308.85.85 0 0 0-.31-.25 1.125 1.125 0 0 0-.504-.1c-.28 0-.514.066-.701.195-.185.127-.277.29-.277.486 0 .175.063.313.19.415.128.101.327.185.597.253l.68.167c.41.1.715.252.916.457.201.202.301.464.301.784 0 .263-.075.497-.227.704-.149.207-.357.37-.626.49a2.293 2.293 0 0 1-.937.178c-.467 0-.854-.101-1.16-.304-.306-.203-.5-.5-.582-.889l.669-.167a.924.924 0 0 0 .36.555c.179.123.413.185.701.185.329 0 .589-.07.782-.209.195-.141.292-.31.292-.507a.53.53 0 0 0-.167-.4c-.111-.11-.282-.19-.513-.244l-.763-.18c-.42-.099-.728-.253-.925-.462a1.12 1.12 0 0 1-.292-.79c0-.259.072-.488.217-.686a1.48 1.48 0 0 1 .6-.469 2.11 2.11 0 0 1 .865-.17c.453 0 .809.1 1.068.299.26.198.445.461.555.787Zm5.498-1.026v.597h-2.374v-.597h2.374Zm-1.682-1.098h.704V24.6c0 .2.028.348.086.448.06.097.135.163.227.197a.908.908 0 0 0 .295.047c.078 0 .141-.004.191-.012l.119-.024.144.633a1.473 1.473 0 0 1-.525.084c-.199 0-.394-.043-.585-.129a1.158 1.158 0 0 1-.471-.39c-.124-.176-.185-.396-.185-.663v-4.558Zm3.543 2.924v2.756h-.704v-6.11h.704v2.244h.06a1.29 1.29 0 0 1 .483-.564c.217-.141.505-.212.865-.212.313 0 .586.063.821.188.234.123.416.314.545.57.132.255.197.579.197.972v2.912h-.704v-2.864c0-.364-.094-.645-.283-.844-.187-.2-.446-.301-.779-.301-.23 0-.437.048-.62.146-.181.097-.324.24-.43.426a1.391 1.391 0 0 0-.155.68Zm5.608 2.863c-.291 0-.554-.055-.791-.164a1.353 1.353 0 0 1-.564-.48 1.356 1.356 0 0 1-.209-.764c0-.262.052-.475.156-.638a1.09 1.09 0 0 1 .414-.388c.173-.093.364-.163.573-.209.211-.047.423-.085.635-.113.279-.036.504-.063.677-.08.175-.02.303-.053.382-.099.082-.046.123-.125.123-.239v-.023c0-.295-.081-.524-.242-.687-.159-.163-.401-.244-.725-.244-.336 0-.599.073-.79.22a1.3 1.3 0 0 0-.403.472l-.668-.239a1.6 1.6 0 0 1 .477-.65c.201-.157.42-.267.656-.328.239-.064.474-.096.704-.096.147 0 .316.018.507.054.193.034.379.104.558.212.181.107.331.27.451.486.119.217.179.507.179.871v3.019h-.704v-.62h-.036a1.251 1.251 0 0 1-.239.319 1.37 1.37 0 0 1-.444.289c-.185.08-.411.12-.677.12Zm.107-.632c.278 0 .513-.055.704-.164.193-.11.338-.25.435-.424.1-.173.15-.355.15-.546v-.644c-.03.036-.096.069-.197.098a3.35 3.35 0 0 1-.346.075 17.563 17.563 0 0 1-.674.09 2.709 2.709 0 0 0-.514.116.88.88 0 0 0-.381.235.598.598 0 0 0-.144.424c0 .245.091.43.272.555.183.123.415.185.695.185Zm5.27-4.057v.597h-2.374v-.597h2.374Zm-1.682-1.098h.704V24.6c0 .2.028.348.086.448.06.097.135.163.227.197a.908.908 0 0 0 .295.047 1.243 1.243 0 0 0 .31-.036l.144.633a1.473 1.473 0 0 1-.525.084c-.199 0-.394-.043-.585-.129a1.158 1.158 0 0 1-.471-.39c-.124-.176-.185-.396-.185-.663v-4.558Zm5.104 5.68V21.33h.704v4.582h-.704Zm.357-5.346a.498.498 0 0 1-.354-.14.449.449 0 0 1-.147-.337.45.45 0 0 1 .147-.337.498.498 0 0 1 .354-.14.49.49 0 0 1 .352.14c.1.093.15.206.15.337 0 .131-.05.244-.15.337a.488.488 0 0 1-.352.14Zm2.34 2.59v2.756h-.704V21.33h.68v.716h.06c.107-.233.27-.42.489-.56.219-.144.501-.216.847-.216.31 0 .582.064.814.191.233.125.414.316.543.573.13.255.194.577.194.966v2.912h-.704v-2.864c0-.36-.093-.64-.28-.841-.187-.203-.444-.304-.77-.304a1.22 1.22 0 0 0-.602.146c-.175.097-.314.24-.415.426a1.414 1.414 0 0 0-.152.68Zm7.792-1.826-1.694 4.582h-.716l-1.694-4.582h.763l1.265 3.651h.048l1.264-3.651h.764Zm2.627 4.677c-.414 0-.777-.098-1.089-.295a2.008 2.008 0 0 1-.728-.826c-.173-.354-.26-.768-.26-1.241 0-.477.087-.894.26-1.25.175-.356.418-.633.728-.83a1.998 1.998 0 0 1 1.089-.295c.413 0 .775.099 1.085.296.313.197.555.473.728.829.175.356.263.773.263 1.25 0 .473-.088.887-.263 1.24a1.97 1.97 0 0 1-.728.827 1.98 1.98 0 0 1-1.085.295Zm0-.632c.314 0 .572-.08.775-.242.203-.16.353-.373.451-.635.097-.263.146-.547.146-.853 0-.306-.049-.592-.146-.856a1.448 1.448 0 0 0-.451-.642c-.203-.163-.461-.244-.775-.244-.315 0-.573.081-.776.244a1.438 1.438 0 0 0-.45.642c-.098.264-.147.55-.147.856 0 .306.049.59.147.853.097.262.247.474.45.635.203.161.461.242.776.242Zm3.854-5.572v6.109h-.704v-6.11h.704Zm5.036 1.527-1.694 4.582h-.716l-1.694-4.582h.763l1.265 3.651h.048l1.265-3.651h.763Zm2.686 4.677c-.441 0-.822-.097-1.142-.292a1.964 1.964 0 0 1-.737-.823c-.171-.354-.256-.766-.256-1.235 0-.47.085-.883.256-1.241.173-.36.414-.64.722-.841.31-.203.672-.305 1.086-.305.238 0 .474.04.707.12.232.08.444.208.635.387.191.177.343.412.457.704.113.293.17.653.17 1.08v.298h-3.532v-.608h2.816c0-.258-.052-.49-.155-.692a1.173 1.173 0 0 0-1.098-.656c-.281 0-.523.07-.728.209a1.369 1.369 0 0 0-.468.536 1.57 1.57 0 0 0-.164.71v.406c0 .346.059.64.179.88.121.239.289.42.504.546.214.123.464.185.748.185.185 0 .352-.026.502-.078.151-.053.281-.133.39-.238.11-.108.194-.241.254-.4l.68.19a1.523 1.523 0 0 1-.361.61 1.763 1.763 0 0 1-.626.405 2.327 2.327 0 0 1-.839.143Zm5.331-.095V21.33h.68v.716h.06c.095-.245.249-.435.462-.57.213-.137.468-.206.767-.206.302 0 .554.069.754.206.203.135.361.325.475.57h.047a1.34 1.34 0 0 1 .528-.564 1.61 1.61 0 0 1 .845-.212c.409 0 .744.129 1.005.385.26.255.391.651.391 1.19v3.067h-.704v-3.067c0-.338-.093-.58-.278-.724a1.025 1.025 0 0 0-.653-.218c-.322 0-.572.097-.749.292-.177.193-.265.438-.265.734v2.983h-.716v-3.138c0-.26-.085-.47-.254-.63a.908.908 0 0 0-.653-.241.964.964 0 0 0-.513.146 1.11 1.11 0 0 0-.382.405 1.203 1.203 0 0 0-.143.594v2.864h-.704Zm10.188-1.873v-2.71h.704v4.582h-.704v-.776h-.047c-.108.233-.275.43-.502.594-.226.16-.513.241-.859.241a1.52 1.52 0 0 1-.763-.188 1.312 1.312 0 0 1-.525-.572c-.128-.257-.191-.58-.191-.97V21.33h.704v2.864c0 .334.093.6.28.799.189.199.43.298.722.298.175 0 .353-.044.534-.134a1.16 1.16 0 0 0 .459-.412c.126-.184.188-.42.188-.706Zm2.698-4.236v6.109h-.704v-6.11h.704Zm3.282 1.527v.597h-2.375v-.597h2.375Zm-1.683-1.098h.704V24.6c0 .2.029.348.087.448a.446.446 0 0 0 .226.197.914.914 0 0 0 .296.047c.077 0 .141-.004.191-.012l.119-.024.143.633a1.467 1.467 0 0 1-.525.084c-.199 0-.394-.043-.585-.129a1.165 1.165 0 0 1-.471-.39c-.123-.176-.185-.396-.185-.663v-4.558Zm2.742 5.68V21.33h.704v4.582h-.704Zm.357-5.346a.498.498 0 0 1-.354-.14.449.449 0 0 1-.147-.337.45.45 0 0 1 .147-.337.498.498 0 0 1 .354-.14.49.49 0 0 1 .352.14c.1.093.15.206.15.337 0 .131-.05.244-.15.337a.488.488 0 0 1-.352.14Zm1.636 7.064v-6.3h.68v.728h.084c.051-.08.123-.181.214-.304.094-.126.227-.237.4-.334.175-.1.412-.15.71-.15.386 0 .726.097 1.02.29.294.193.524.466.689.82.165.354.248.772.248 1.253 0 .485-.083.906-.248 1.262a1.956 1.956 0 0 1-.686.823c-.292.193-.629.29-1.011.29-.294 0-.53-.05-.707-.147a1.318 1.318 0 0 1-.409-.337 4.394 4.394 0 0 1-.22-.316h-.06v2.422h-.704Zm.692-4.01c0 .347.051.652.152.917.101.262.25.468.445.617.194.147.433.22.715.22.295 0 .54-.077.737-.232.199-.157.348-.368.448-.632.101-.267.152-.563.152-.89 0-.321-.05-.612-.149-.87a1.35 1.35 0 0 0-.445-.618c-.197-.153-.444-.23-.743-.23a1.17 1.17 0 0 0-.721.219 1.31 1.31 0 0 0-.442.602 2.486 2.486 0 0 0-.149.898Zm5.131-3.817v6.109h-.704v-6.11h.704Zm3.21 6.204c-.441 0-.822-.097-1.142-.292a1.957 1.957 0 0 1-.737-.823c-.171-.354-.257-.766-.257-1.235 0-.47.086-.883.257-1.241.173-.36.413-.64.722-.841.31-.203.672-.305 1.085-.305.239 0 .475.04.707.12.233.08.445.208.636.387.191.177.343.412.456.704.113.293.17.653.17 1.08v.298h-3.532v-.608h2.816c0-.258-.051-.49-.155-.692a1.164 1.164 0 0 0-.435-.48 1.222 1.222 0 0 0-.663-.176c-.28 0-.523.07-.727.209a1.379 1.379 0 0 0-.469.536 1.585 1.585 0 0 0-.164.71v.406c0 .346.06.64.179.88.121.239.29.42.504.546.215.123.465.185.749.185.185 0 .352-.026.501-.078.151-.053.282-.133.391-.238a1.08 1.08 0 0 0 .253-.4l.681.19a1.523 1.523 0 0 1-.361.61 1.759 1.759 0 0 1-.627.405 2.322 2.322 0 0 1-.838.143Zm8.576-3.651-.632.18a1.199 1.199 0 0 0-.176-.308.854.854 0 0 0-.311-.25 1.125 1.125 0 0 0-.504-.1c-.28 0-.514.066-.701.195-.185.127-.277.29-.277.486a.5.5 0 0 0 .191.415c.127.101.326.185.596.253l.68.167c.41.1.715.252.916.457.201.202.302.464.302.784 0 .263-.076.497-.227.704a1.5 1.5 0 0 1-.627.49c-.268.119-.58.178-.936.178-.468 0-.854-.101-1.161-.304-.306-.203-.5-.5-.581-.889l.668-.167c.064.247.184.432.361.555.179.123.412.185.701.185.328 0 .588-.07.781-.209.195-.141.293-.31.293-.507a.534.534 0 0 0-.167-.4c-.112-.11-.283-.19-.513-.244l-.764-.18c-.42-.099-.728-.253-.925-.462a1.12 1.12 0 0 1-.292-.79c0-.259.072-.488.218-.686.147-.2.347-.355.599-.469.255-.113.543-.17.865-.17.454 0 .81.1 1.068.299.261.198.446.461.555.787Zm3.136-1.026v.597H227.3v-.597h2.375Zm-1.683-1.098h.704V24.6c0 .2.029.348.087.448.06.097.135.163.227.197a.908.908 0 0 0 .295.047c.078 0 .141-.004.191-.012l.119-.024.143.633a1.477 1.477 0 0 1-.525.084c-.199 0-.393-.043-.584-.129a1.167 1.167 0 0 1-.472-.39c-.123-.176-.185-.396-.185-.663v-4.558Zm4.09 5.787c-.29 0-.554-.055-.79-.164a1.353 1.353 0 0 1-.564-.48 1.356 1.356 0 0 1-.209-.764c0-.262.052-.475.155-.638a1.1 1.1 0 0 1 .415-.388c.173-.093.364-.163.572-.209.211-.047.423-.085.636-.113.278-.036.504-.063.677-.08.175-.02.302-.053.382-.099.081-.046.122-.125.122-.239v-.023c0-.295-.08-.524-.242-.687-.159-.163-.4-.244-.724-.244-.336 0-.6.073-.791.22a1.31 1.31 0 0 0-.403.472l-.668-.239a1.61 1.61 0 0 1 .478-.65c.2-.157.419-.267.656-.328.238-.064.473-.096.704-.096.147 0 .316.018.507.054.193.034.379.104.558.212.181.107.331.27.45.486.119.217.179.507.179.871v3.019h-.704v-.62h-.036a1.244 1.244 0 0 1-.238.319c-.112.113-.26.21-.445.289-.185.08-.41.12-.677.12Zm.107-.632c.279 0 .514-.055.704-.164a1.114 1.114 0 0 0 .585-.97v-.644c-.03.036-.095.069-.197.098a3.326 3.326 0 0 1-.346.075 15.955 15.955 0 0 1-.674.09 2.68 2.68 0 0 0-.513.116.889.889 0 0 0-.382.235.602.602 0 0 0-.143.424c0 .245.09.43.271.555.183.123.415.185.695.185Zm5.127 2.338c-.34 0-.632-.043-.877-.13a1.863 1.863 0 0 1-.611-.34 1.875 1.875 0 0 1-.385-.448l.561-.394c.064.083.144.179.242.286.097.11.23.204.399.284.171.081.395.122.671.122.37 0 .676-.09.916-.269.241-.178.361-.459.361-.84v-.931h-.06a3.683 3.683 0 0 1-.22.31 1.26 1.26 0 0 1-.406.325c-.175.093-.412.14-.71.14a1.91 1.91 0 0 1-.996-.262 1.837 1.837 0 0 1-.695-.764c-.169-.334-.254-.74-.254-1.217 0-.47.083-.878.248-1.226.165-.35.395-.62.689-.811.294-.193.634-.29 1.02-.29.298 0 .535.05.71.15.177.097.312.208.406.334.095.123.169.224.22.304h.072v-.728h.68v4.713c0 .394-.089.714-.268.96a1.53 1.53 0 0 1-.716.546 2.706 2.706 0 0 1-.997.176Zm-.023-2.517c.282 0 .521-.065.715-.194.195-.13.344-.315.445-.558a2.26 2.26 0 0 0 .152-.87c0-.331-.05-.622-.149-.875a1.31 1.31 0 0 0-.442-.593 1.182 1.182 0 0 0-.721-.215c-.299 0-.547.075-.746.226a1.385 1.385 0 0 0-.445.609 2.363 2.363 0 0 0-.146.847c0 .318.05.6.149.844.102.243.251.434.448.573.199.137.445.206.74.206Zm5.214.799c-.442 0-.823-.097-1.143-.292a1.962 1.962 0 0 1-.736-.823c-.172-.354-.257-.766-.257-1.235 0-.47.085-.883.257-1.241.173-.36.413-.64.721-.841a1.942 1.942 0 0 1 1.086-.305c.239 0 .474.04.707.12.233.08.445.208.635.387.191.177.344.412.457.704.113.293.17.653.17 1.08v.298h-3.532v-.608h2.816c0-.258-.052-.49-.155-.692a1.173 1.173 0 0 0-1.098-.656c-.28 0-.523.07-.728.209a1.369 1.369 0 0 0-.468.536 1.585 1.585 0 0 0-.164.71v.406c0 .346.06.64.179.88.121.239.289.42.504.546.215.123.464.185.749.185.185 0 .352-.026.501-.078a1.08 1.08 0 0 0 .391-.238 1.08 1.08 0 0 0 .253-.4l.68.19a1.512 1.512 0 0 1-.361.61 1.755 1.755 0 0 1-.626.405 2.326 2.326 0 0 1-.838.143Zm6.213-3.651-.632.18a1.199 1.199 0 0 0-.176-.308.859.859 0 0 0-.31-.25 1.131 1.131 0 0 0-.504-.1c-.281 0-.515.066-.701.195-.185.127-.278.29-.278.486 0 .175.064.313.191.415.127.101.326.185.597.253l.68.167c.409.1.715.252.916.457.2.202.301.464.301.784 0 .263-.076.497-.227.704a1.51 1.51 0 0 1-.626.49 2.297 2.297 0 0 1-.937.178c-.467 0-.854-.101-1.16-.304-.307-.203-.5-.5-.582-.889l.668-.167c.064.247.184.432.361.555.179.123.413.185.701.185.328 0 .589-.07.782-.209.195-.141.292-.31.292-.507a.534.534 0 0 0-.167-.4c-.111-.11-.282-.19-.513-.244l-.764-.18c-.419-.099-.728-.253-.925-.462a1.124 1.124 0 0 1-.292-.79c0-.259.073-.488.218-.686.147-.2.347-.355.599-.469a2.11 2.11 0 0 1 .866-.17c.453 0 .809.1 1.067.299.261.198.446.461.555.787Zm2.193 2.721-.047.322a6.744 6.744 0 0 1-.155.728 14.72 14.72 0 0 1-.212.73c-.074.23-.134.411-.182.546h-.537l.101-.504c.042-.209.084-.442.126-.7a12.9 12.9 0 0 0 .107-.788l.036-.334h.763ZM1.682 35.913.286 31.33h.74l.99 3.508h.048l.979-3.508h.751l.967 3.496h.048l.99-3.496h.74l-1.396 4.582H4.45l-1.003-3.52h-.071l-1.003 3.52h-.692Zm5.788 0V31.33h.703v4.582H7.47Zm.357-5.346a.5.5 0 0 1-.355-.14.45.45 0 0 1-.146-.337.45.45 0 0 1 .146-.337.5.5 0 0 1 .355-.14.49.49 0 0 1 .352.14c.1.093.15.206.15.337 0 .131-.05.244-.15.337a.49.49 0 0 1-.352.14Zm3.628.764v.597H9.081v-.597h2.374Zm-1.682-1.098h.704V34.6c0 .2.029.348.086.448.06.097.136.163.227.197a.91.91 0 0 0 .295.047 1.242 1.242 0 0 0 .31-.035l.144.632a1.47 1.47 0 0 1-.525.084c-.199 0-.394-.043-.585-.129a1.16 1.16 0 0 1-.471-.39c-.123-.176-.185-.396-.185-.663v-4.558Zm3.544 2.924v2.756h-.704v-6.11h.704v2.244h.06c.107-.237.268-.425.483-.564.216-.141.505-.212.865-.212.312 0 .585.063.82.188.235.123.417.314.546.57.131.254.197.579.197.972v2.912h-.704v-2.864c0-.364-.095-.645-.284-.844-.187-.2-.446-.301-.778-.301-.23 0-.438.048-.62.146-.182.097-.325.24-.43.426a1.387 1.387 0 0 0-.155.68Zm6.621 4.474v-6.3h.68v.728h.084a6.24 6.24 0 0 1 .214-.304c.094-.126.227-.237.4-.334.175-.1.412-.15.71-.15.386 0 .726.097 1.02.29.295.193.524.466.69.82.164.354.247.772.247 1.253 0 .485-.083.906-.248 1.262a1.954 1.954 0 0 1-.686.823c-.292.193-.63.29-1.01.29-.295 0-.53-.05-.708-.147a1.31 1.31 0 0 1-.409-.337 4.514 4.514 0 0 1-.22-.316h-.06v2.422h-.704Zm.692-4.01c0 .347.05.652.152.917.102.262.25.468.445.617.195.147.433.22.716.22.294 0 .54-.077.736-.232.2-.157.348-.368.448-.632.101-.267.152-.563.152-.89 0-.321-.05-.612-.15-.87a1.345 1.345 0 0 0-.444-.618c-.197-.153-.444-.23-.742-.23-.287 0-.527.073-.722.218a1.306 1.306 0 0 0-.442.603c-.1.257-.149.556-.149.898Zm5.775 2.399c-.29 0-.554-.055-.79-.164a1.356 1.356 0 0 1-.564-.48 1.355 1.355 0 0 1-.209-.764c0-.262.052-.475.155-.638.104-.165.242-.294.415-.388.173-.093.364-.163.573-.209.21-.047.422-.085.635-.113.278-.036.504-.063.677-.08.175-.02.302-.053.382-.099.081-.046.122-.125.122-.239v-.023c0-.295-.08-.524-.241-.687-.16-.163-.401-.244-.725-.244-.336 0-.6.073-.79.22a1.312 1.312 0 0 0-.404.472l-.668-.239c.12-.278.279-.495.478-.65.2-.157.42-.267.656-.328a2.71 2.71 0 0 1 .704-.096c.147 0 .316.018.507.054.193.034.379.104.558.212.18.107.33.27.45.486.12.217.18.507.18.871v3.019H27.8v-.62h-.036a1.244 1.244 0 0 1-.238.319c-.112.113-.26.21-.445.289-.185.08-.41.12-.677.12Zm.107-.632c.279 0 .514-.055.704-.164a1.116 1.116 0 0 0 .585-.97v-.644c-.03.036-.095.069-.197.098-.1.028-.214.053-.346.075a16.713 16.713 0 0 1-.674.09 2.684 2.684 0 0 0-.513.116.885.885 0 0 0-.382.235.6.6 0 0 0-.143.424c0 .245.09.43.271.555.183.123.415.185.695.185Zm3.568 2.243a1.541 1.541 0 0 1-.514-.084l.18-.62c.17.044.321.06.453.048a.543.543 0 0 0 .349-.176c.103-.104.198-.272.283-.504l.131-.358-1.694-4.606h.764l1.264 3.651h.048l1.265-3.651h.764l-1.945 5.25a1.985 1.985 0 0 1-.326.588 1.22 1.22 0 0 1-.45.349c-.169.075-.36.113-.573.113Zm4.222-1.718V31.33h.68v.716h.06a1.15 1.15 0 0 1 .462-.57c.213-.137.468-.206.767-.206.302 0 .553.069.754.206.203.135.361.325.474.57h.048c.117-.237.294-.425.528-.564a1.61 1.61 0 0 1 .844-.212c.41 0 .745.129 1.006.385.26.255.39.651.39 1.19v3.067h-.704v-3.067c0-.338-.092-.58-.277-.724a1.027 1.027 0 0 0-.653-.218c-.322 0-.572.097-.749.292a1.043 1.043 0 0 0-.266.734v2.983h-.715v-3.138c0-.26-.085-.47-.254-.63a.908.908 0 0 0-.653-.241.965.965 0 0 0-.513.146 1.104 1.104 0 0 0-.382.406 1.199 1.199 0 0 0-.143.593v2.864h-.704Zm9.222.095c-.442 0-.823-.097-1.143-.292a1.962 1.962 0 0 1-.737-.823c-.17-.354-.256-.766-.256-1.235 0-.47.085-.883.256-1.241.173-.36.414-.64.722-.841.31-.203.672-.305 1.086-.305.239 0 .474.04.707.12.233.08.444.208.635.387.191.177.343.412.457.704.113.293.17.653.17 1.08v.299h-3.532v-.609h2.816c0-.259-.052-.49-.155-.692a1.168 1.168 0 0 0-.436-.48 1.22 1.22 0 0 0-.662-.176c-.28 0-.523.07-.728.208a1.374 1.374 0 0 0-.468.537c-.11.221-.164.458-.164.71v.406c0 .346.06.64.179.88.121.239.29.42.504.546.215.123.464.185.749.185.184 0 .352-.026.5-.078a1.07 1.07 0 0 0 .392-.238 1.1 1.1 0 0 0 .253-.4l.68.19a1.52 1.52 0 0 1-.36.61 1.76 1.76 0 0 1-.627.405 2.325 2.325 0 0 1-.838.143Zm3.672-2.851v2.756h-.704V31.33h.68v.716h.06c.107-.233.27-.42.489-.56.218-.144.5-.216.847-.216.31 0 .581.064.814.191.233.125.414.316.543.573.13.255.194.577.194.966v2.912h-.704v-2.864c0-.36-.094-.64-.28-.841-.187-.203-.444-.304-.77-.304-.225 0-.426.048-.603.146-.175.097-.313.24-.414.426a1.41 1.41 0 0 0-.152.68Zm6.202-1.826v.597h-2.375v-.597h2.375Zm-1.683-1.098h.704V34.6c0 .2.03.348.087.448.06.097.135.163.227.197a.91.91 0 0 0 .295.047 1.242 1.242 0 0 0 .31-.035l.143.632a1.47 1.47 0 0 1-.525.084 1.41 1.41 0 0 1-.584-.129 1.162 1.162 0 0 1-.472-.39c-.123-.176-.184-.396-.184-.663v-4.558Zm5.905 2.124-.632.18a1.178 1.178 0 0 0-.176-.308.854.854 0 0 0-.31-.25 1.126 1.126 0 0 0-.505-.1c-.28 0-.514.066-.7.195-.185.127-.278.29-.278.486 0 .175.064.313.191.415.127.101.326.185.597.253l.68.167c.41.1.715.252.916.457.2.202.3.464.3.784 0 .263-.075.497-.226.704-.15.207-.358.37-.626.49a2.297 2.297 0 0 1-.937.178c-.467 0-.854-.101-1.16-.304-.307-.203-.5-.5-.582-.889l.668-.167a.929.929 0 0 0 .361.555c.18.123.413.185.701.185.328 0 .589-.07.782-.209.195-.141.292-.31.292-.507a.533.533 0 0 0-.167-.4c-.111-.11-.282-.19-.513-.244l-.764-.18c-.42-.099-.728-.253-.924-.462a1.12 1.12 0 0 1-.293-.79c0-.259.073-.487.218-.686.147-.2.347-.355.6-.469.254-.113.542-.17.864-.17.454 0 .81.1 1.068.299.26.198.446.461.555.787Zm3.506 3.556V31.33h.68v.692h.048a1.1 1.1 0 0 1 .453-.552c.219-.141.466-.212.74-.212a7.76 7.76 0 0 1 .37.012v.716a2.122 2.122 0 0 0-.164-.027 1.616 1.616 0 0 0-.266-.02 1.24 1.24 0 0 0-.596.14 1.03 1.03 0 0 0-.56.934v2.899h-.705Zm4.907.095c-.442 0-.822-.097-1.142-.292a1.962 1.962 0 0 1-.737-.823c-.171-.354-.257-.766-.257-1.235 0-.47.086-.883.257-1.241.173-.36.413-.64.722-.841.31-.203.672-.305 1.085-.305.239 0 .475.04.707.12.233.08.445.208.636.387.19.177.343.412.456.704.113.293.17.653.17 1.08v.299h-3.532v-.609h2.816c0-.259-.052-.49-.155-.692a1.17 1.17 0 0 0-.435-.48 1.22 1.22 0 0 0-.663-.176c-.28 0-.523.07-.727.208a1.373 1.373 0 0 0-.469.537c-.11.221-.164.458-.164.71v.406c0 .346.06.64.18.88.12.239.288.42.503.546.215.123.465.185.749.185.185 0 .352-.026.501-.078.151-.053.281-.133.39-.238.11-.108.195-.241.254-.4l.68.19a1.51 1.51 0 0 1-.36.61c-.17.172-.378.308-.627.405a2.324 2.324 0 0 1-.838.143Zm3.672-6.204v6.109H69v-6.11h.704Zm3.21 6.204c-.441 0-.822-.097-1.142-.292a1.962 1.962 0 0 1-.737-.823c-.17-.354-.256-.766-.256-1.235 0-.47.085-.883.256-1.241.173-.36.414-.64.722-.841.31-.203.672-.305 1.086-.305.238 0 .474.04.707.12.232.08.444.208.635.387.191.177.343.412.456.704.114.293.17.653.17 1.08v.299h-3.531v-.609h2.816c0-.259-.052-.49-.155-.692a1.168 1.168 0 0 0-.436-.48 1.22 1.22 0 0 0-.662-.176c-.28 0-.523.07-.728.208a1.374 1.374 0 0 0-.468.537c-.11.221-.164.458-.164.71v.406c0 .346.06.64.178.88.122.239.29.42.505.546.214.123.464.185.748.185.185 0 .352-.026.501-.078.152-.053.282-.133.391-.238.11-.108.194-.241.254-.4l.68.19a1.523 1.523 0 0 1-.361.61 1.76 1.76 0 0 1-.626.405 2.325 2.325 0 0 1-.839.143Zm4.317.012c-.29 0-.554-.055-.79-.164a1.356 1.356 0 0 1-.565-.48 1.355 1.355 0 0 1-.208-.764c0-.262.051-.475.155-.638.103-.165.241-.294.414-.388.173-.093.364-.163.573-.209a7.28 7.28 0 0 1 .635-.113c.279-.036.505-.063.678-.08.175-.02.302-.053.381-.099.082-.046.123-.125.123-.239v-.023c0-.295-.08-.524-.242-.687-.159-.163-.4-.244-.725-.244-.336 0-.6.073-.79.22a1.304 1.304 0 0 0-.403.472l-.668-.239a1.61 1.61 0 0 1 .477-.65c.201-.157.42-.267.656-.328.239-.064.474-.096.704-.096.147 0 .317.018.507.054.193.034.38.104.558.212.181.107.331.27.45.486.12.217.18.507.18.871v3.019h-.704v-.62h-.036a1.251 1.251 0 0 1-.239.319c-.111.113-.26.21-.444.289-.185.08-.41.12-.677.12Zm.107-.632a1.4 1.4 0 0 0 .704-.164 1.116 1.116 0 0 0 .585-.97v-.644c-.03.036-.096.069-.197.098a3.35 3.35 0 0 1-.346.075 16.626 16.626 0 0 1-.674.09 2.684 2.684 0 0 0-.513.116.884.884 0 0 0-.382.235.6.6 0 0 0-.143.424c0 .245.09.43.271.555.183.123.415.185.695.185Zm6.523-3.031-.632.18a1.178 1.178 0 0 0-.176-.308.854.854 0 0 0-.31-.25 1.126 1.126 0 0 0-.505-.1c-.28 0-.514.066-.7.195-.186.127-.278.29-.278.486 0 .175.064.313.19.415.128.101.327.185.597.253l.68.167c.41.1.715.252.916.457.201.202.302.464.302.784 0 .263-.076.497-.227.704-.15.207-.358.37-.626.49a2.297 2.297 0 0 1-.937.178c-.468 0-.854-.101-1.16-.304-.307-.203-.5-.5-.582-.889l.668-.167a.929.929 0 0 0 .36.555c.18.123.414.185.702.185.328 0 .588-.07.781-.209.195-.141.293-.31.293-.507a.533.533 0 0 0-.167-.4c-.112-.11-.283-.19-.513-.244l-.764-.18c-.42-.099-.728-.253-.925-.462a1.12 1.12 0 0 1-.292-.79c0-.259.072-.487.218-.686.147-.2.347-.355.6-.469.254-.113.542-.17.864-.17.454 0 .81.1 1.068.299.26.198.446.461.555.787Zm3.064 3.651c-.441 0-.822-.097-1.142-.292a1.962 1.962 0 0 1-.737-.823c-.171-.354-.257-.766-.257-1.235 0-.47.086-.883.257-1.241.173-.36.414-.64.722-.841.31-.203.672-.305 1.086-.305.238 0 .474.04.707.12.232.08.444.208.635.387.19.177.343.412.456.704.114.293.17.653.17 1.08v.299h-3.531v-.609h2.816c0-.259-.052-.49-.156-.692a1.168 1.168 0 0 0-.435-.48 1.22 1.22 0 0 0-.662-.176c-.28 0-.523.07-.728.208a1.373 1.373 0 0 0-.468.537c-.11.221-.165.458-.165.71v.406c0 .346.06.64.18.88.12.239.289.42.504.546.214.123.464.185.748.185.185 0 .352-.026.501-.078.152-.053.282-.133.391-.238.11-.108.194-.241.254-.4l.68.19a1.523 1.523 0 0 1-.361.61 1.76 1.76 0 0 1-.627.405 2.325 2.325 0 0 1-.838.143Zm4.698 0c-.381 0-.718-.096-1.01-.29a1.954 1.954 0 0 1-.687-.822c-.165-.356-.247-.777-.247-1.262 0-.481.082-.899.247-1.253.165-.354.395-.627.69-.82.293-.193.634-.29 1.02-.29.298 0 .533.05.706.15.175.097.309.208.4.334.094.123.166.224.218.304h.06v-2.255h.703v6.109h-.68v-.704h-.083a4.541 4.541 0 0 1-.22.316 1.312 1.312 0 0 1-.41.337c-.177.097-.412.146-.707.146Zm.096-.632c.282 0 .52-.074.716-.22.195-.15.343-.356.444-.618.102-.265.152-.57.152-.916 0-.342-.05-.642-.149-.898-.1-.258-.246-.46-.441-.602a1.174 1.174 0 0 0-.722-.218c-.298 0-.547.076-.746.23a1.374 1.374 0 0 0-.444.617 2.455 2.455 0 0 0-.147.87c0 .327.05.623.15.89.101.264.25.475.447.632.199.155.446.233.74.233Zm7.615.632c-.413 0-.776-.098-1.088-.295a2.006 2.006 0 0 1-.728-.826c-.173-.354-.26-.768-.26-1.241 0-.477.087-.894.26-1.25a2 2 0 0 1 .728-.83 1.998 1.998 0 0 1 1.088-.295c.414 0 .776.099 1.086.296.312.197.555.473.728.829.175.356.263.773.263 1.25 0 .473-.088.887-.263 1.24a1.98 1.98 0 0 1-.728.827 1.98 1.98 0 0 1-1.086.295Zm0-.632c.315 0 .573-.08.776-.242.203-.16.353-.373.45-.635a2.42 2.42 0 0 0 .147-.853c0-.306-.049-.592-.147-.856a1.438 1.438 0 0 0-.45-.642c-.203-.163-.461-.244-.776-.244-.314 0-.572.081-.775.244a1.443 1.443 0 0 0-.45.642c-.098.264-.147.55-.147.856 0 .306.049.59.146.853.098.262.248.474.45.635.204.161.462.242.776.242Zm3.855-2.219v2.756h-.704V31.33h.68v.716h.06c.107-.233.27-.42.489-.56.219-.144.501-.216.847-.216.31 0 .582.064.815.191.232.125.413.316.543.573.129.255.193.577.193.966v2.912h-.704v-2.864c0-.36-.093-.64-.28-.841-.187-.203-.443-.304-.77-.304-.224 0-.425.048-.602.146a1.05 1.05 0 0 0-.415.426 1.414 1.414 0 0 0-.152.68Zm6.071 2.851c-.429 0-.799-.101-1.109-.304a1.978 1.978 0 0 1-.716-.838 2.841 2.841 0 0 1-.251-1.22c0-.466.086-.876.257-1.232.173-.358.413-.638.721-.838a1.942 1.942 0 0 1 1.086-.305c.322 0 .613.06.871.18.259.119.471.286.636.5.165.215.267.466.307.752h-.704a1.093 1.093 0 0 0-.358-.555c-.183-.163-.43-.244-.74-.244a1.24 1.24 0 0 0-.722.214 1.395 1.395 0 0 0-.48.6 2.23 2.23 0 0 0-.17.904c0 .354.056.662.167.925.113.262.272.466.477.611.207.145.45.218.728.218.183 0 .349-.032.498-.096a1.026 1.026 0 0 0 .6-.704h.704c-.04.27-.138.514-.295.731a1.656 1.656 0 0 1-.618.513 1.988 1.988 0 0 1-.889.188Zm4.752 0c-.441 0-.822-.097-1.142-.292a1.957 1.957 0 0 1-.737-.823c-.171-.354-.257-.766-.257-1.235 0-.47.086-.883.257-1.241.173-.36.413-.64.722-.841.31-.203.672-.305 1.085-.305.239 0 .475.04.707.12.233.08.445.208.636.387.191.177.343.412.456.704.113.293.17.653.17 1.08v.299h-3.532v-.609h2.816c0-.259-.051-.49-.155-.692a1.164 1.164 0 0 0-.435-.48 1.222 1.222 0 0 0-.663-.176c-.28 0-.523.07-.727.208a1.379 1.379 0 0 0-.469.537 1.585 1.585 0 0 0-.164.71v.406c0 .346.06.64.179.88.121.239.29.42.504.546.215.123.465.185.749.185.185 0 .352-.026.501-.078.151-.053.282-.133.391-.238a1.08 1.08 0 0 0 .253-.4l.681.19a1.523 1.523 0 0 1-.361.61 1.759 1.759 0 0 1-.627.405 2.322 2.322 0 0 1-.838.143Zm7.252 0c-.442 0-.823-.097-1.143-.292a1.964 1.964 0 0 1-.737-.823c-.171-.354-.256-.766-.256-1.235 0-.47.085-.883.256-1.241.173-.36.414-.64.722-.841.31-.203.672-.305 1.086-.305.239 0 .474.04.707.12.233.08.444.208.635.387.191.177.343.412.457.704.113.293.17.653.17 1.08v.299h-3.532v-.609h2.816c0-.259-.052-.49-.155-.692a1.173 1.173 0 0 0-1.098-.656c-.28 0-.523.07-.728.208a1.369 1.369 0 0 0-.468.537 1.57 1.57 0 0 0-.164.71v.406c0 .346.059.64.179.88.121.239.289.42.504.546.215.123.464.185.749.185.185 0 .352-.026.501-.078.151-.053.281-.133.39-.238.11-.108.194-.241.254-.4l.68.19a1.512 1.512 0 0 1-.361.61 1.763 1.763 0 0 1-.626.405 2.326 2.326 0 0 1-.838.143Zm4.316.012c-.29 0-.554-.055-.791-.164a1.357 1.357 0 0 1-.563-.48 1.349 1.349 0 0 1-.209-.764c0-.262.052-.475.155-.638.103-.165.242-.294.415-.388.173-.093.364-.163.572-.209.211-.047.423-.085.636-.113.278-.036.504-.063.677-.08.175-.02.302-.053.382-.099.081-.046.122-.125.122-.239v-.023c0-.295-.081-.524-.242-.687-.159-.163-.4-.244-.725-.244-.336 0-.599.073-.79.22a1.31 1.31 0 0 0-.403.472l-.668-.239a1.6 1.6 0 0 1 .477-.65 1.79 1.79 0 0 1 .657-.328c.238-.064.473-.096.704-.096.147 0 .316.018.507.054.193.034.379.104.558.212.18.107.331.27.45.486.119.217.179.507.179.871v3.019h-.704v-.62h-.036a1.251 1.251 0 0 1-.239.319 1.37 1.37 0 0 1-.444.289c-.185.08-.411.12-.677.12Zm.107-.632a1.4 1.4 0 0 0 .704-.164 1.12 1.12 0 0 0 .585-.97v-.644c-.03.036-.096.069-.197.098a3.326 3.326 0 0 1-.346.075 16.72 16.72 0 0 1-.674.09 2.68 2.68 0 0 0-.513.116.883.883 0 0 0-.382.235.602.602 0 0 0-.143.424c0 .245.09.43.271.555.183.123.415.185.695.185Zm5.139.62c-.429 0-.799-.101-1.109-.304a1.978 1.978 0 0 1-.716-.838 2.841 2.841 0 0 1-.251-1.22c0-.466.086-.876.257-1.232.173-.358.413-.638.721-.838a1.942 1.942 0 0 1 1.086-.305c.322 0 .613.06.871.18.259.119.471.286.636.5.165.215.267.466.307.752h-.704a1.093 1.093 0 0 0-.358-.555c-.183-.163-.43-.244-.74-.244a1.24 1.24 0 0 0-.722.214 1.395 1.395 0 0 0-.48.6 2.23 2.23 0 0 0-.17.904c0 .354.056.662.167.925.113.262.273.466.477.611.207.145.45.218.728.218.183 0 .349-.032.498-.096a1.026 1.026 0 0 0 .6-.704h.704c-.04.27-.138.514-.295.731a1.656 1.656 0 0 1-.618.513 1.988 1.988 0 0 1-.889.188Zm3.535-2.851v2.756h-.704v-6.11h.704v2.244h.06a1.29 1.29 0 0 1 .483-.564c.217-.141.505-.212.865-.212.312 0 .586.063.82.188.235.123.417.314.546.57.131.254.197.579.197.972v2.912h-.704v-2.864c0-.364-.094-.645-.283-.844-.187-.2-.447-.301-.779-.301a1.29 1.29 0 0 0-.62.146c-.181.097-.324.24-.43.426a1.391 1.391 0 0 0-.155.68Zm6.621 2.756V31.33h.681v.716h.059c.096-.245.25-.435.463-.57.212-.137.468-.206.766-.206.302 0 .554.069.755.206.203.135.361.325.474.57h.048a1.33 1.33 0 0 1 .528-.564c.234-.141.516-.212.844-.212.41 0 .745.129 1.005.385.261.255.391.651.391 1.19v3.067h-.704v-3.067c0-.338-.092-.58-.277-.724a1.028 1.028 0 0 0-.654-.218c-.322 0-.571.097-.748.292a1.044 1.044 0 0 0-.266.734v2.983h-.716v-3.138c0-.26-.084-.47-.253-.63a.909.909 0 0 0-.654-.241.964.964 0 0 0-.513.146 1.099 1.099 0 0 0-.381.406 1.193 1.193 0 0 0-.144.593v2.864h-.704Zm7.301 0V31.33h.704v4.582h-.704Zm.358-5.346a.502.502 0 0 1-.355-.14.452.452 0 0 1-.146-.337c0-.131.049-.244.146-.337.1-.093.218-.14.355-.14a.49.49 0 0 1 .352.14c.1.093.149.206.149.337a.444.444 0 0 1-.149.337.49.49 0 0 1-.352.14Zm2.34-.763v6.109h-.704v-6.11h.704Zm3.21 6.204c-.442 0-.822-.097-1.143-.292a1.962 1.962 0 0 1-.736-.823c-.171-.354-.257-.766-.257-1.235 0-.47.086-.883.257-1.241.173-.36.413-.64.722-.841.31-.203.672-.305 1.085-.305.239 0 .475.04.707.12.233.08.445.208.636.387.191.177.343.412.456.704.113.293.17.653.17 1.08v.299h-3.532v-.609h2.816c0-.259-.052-.49-.155-.692a1.17 1.17 0 0 0-1.098-.656c-.28 0-.523.07-.728.208a1.385 1.385 0 0 0-.468.537 1.585 1.585 0 0 0-.164.71v.406c0 .346.06.64.179.88.121.239.289.42.504.546.215.123.465.185.749.185.185 0 .352-.026.501-.078a1.08 1.08 0 0 0 .391-.238 1.08 1.08 0 0 0 .253-.4l.68.19a1.5 1.5 0 0 1-.36.61 1.759 1.759 0 0 1-.627.405 2.322 2.322 0 0 1-.838.143Zm6.213-3.651-.632.18a1.17 1.17 0 0 0-.176-.308.859.859 0 0 0-.31-.25 1.125 1.125 0 0 0-.504-.1c-.281 0-.514.066-.701.195-.185.127-.278.29-.278.486 0 .175.064.313.191.415.127.101.326.185.597.253l.68.167c.41.1.715.252.916.457.201.202.301.464.301.784 0 .263-.076.497-.227.704a1.51 1.51 0 0 1-.626.49 2.297 2.297 0 0 1-.937.178c-.467 0-.854-.101-1.16-.304-.306-.203-.5-.5-.582-.889l.668-.167c.064.247.184.432.361.555.179.123.413.185.701.185.328 0 .589-.07.782-.209.195-.141.292-.31.292-.507a.534.534 0 0 0-.167-.4c-.111-.11-.282-.19-.513-.244l-.764-.18c-.419-.099-.727-.253-.924-.462a1.12 1.12 0 0 1-.293-.79c0-.259.073-.487.218-.686a1.48 1.48 0 0 1 .6-.469 2.11 2.11 0 0 1 .865-.17c.453 0 .809.1 1.068.299.26.198.445.461.554.787Zm3.136-1.026v.597h-2.374v-.597h2.374Zm-1.682-1.098h.704V34.6c0 .2.029.348.086.448.06.097.136.163.227.197a.913.913 0 0 0 .295.047 1.234 1.234 0 0 0 .311-.035l.143.632a1.473 1.473 0 0 1-.525.084c-.199 0-.394-.043-.585-.129a1.158 1.158 0 0 1-.471-.39c-.123-.176-.185-.396-.185-.663v-4.558Zm4.553 5.775c-.413 0-.776-.098-1.088-.295a2.001 2.001 0 0 1-.728-.826c-.173-.354-.26-.768-.26-1.241 0-.477.087-.894.26-1.25a2 2 0 0 1 .728-.83 1.997 1.997 0 0 1 1.088-.295c.414 0 .776.099 1.086.296.312.197.555.473.728.829.175.356.262.773.262 1.25 0 .473-.087.887-.262 1.24a1.98 1.98 0 0 1-.728.827 1.98 1.98 0 0 1-1.086.295Zm0-.632c.315 0 .573-.08.776-.242.203-.16.353-.373.45-.635a2.42 2.42 0 0 0 .146-.853c0-.306-.048-.592-.146-.856a1.438 1.438 0 0 0-.45-.642c-.203-.163-.461-.244-.776-.244-.314 0-.572.081-.775.244a1.448 1.448 0 0 0-.451.642c-.097.264-.146.55-.146.856 0 .306.049.59.146.853.098.262.248.474.451.635.203.161.461.242.775.242Zm3.855-2.219v2.756h-.704V31.33h.68v.716h.06c.107-.233.27-.42.489-.56.219-.144.501-.216.847-.216.31 0 .582.064.815.191.232.125.413.316.542.573.13.255.194.577.194.966v2.912h-.704v-2.864c0-.36-.093-.64-.28-.841-.187-.203-.443-.304-.77-.304-.224 0-.425.048-.602.146a1.05 1.05 0 0 0-.415.426 1.414 1.414 0 0 0-.152.68Zm6.131 2.851c-.442 0-.823-.097-1.143-.292a1.962 1.962 0 0 1-.736-.823c-.171-.354-.257-.766-.257-1.235 0-.47.086-.883.257-1.241.173-.36.413-.64.721-.841a1.942 1.942 0 0 1 1.086-.305c.239 0 .474.04.707.12.233.08.445.208.636.387.19.177.343.412.456.704.113.293.17.653.17 1.08v.299h-3.532v-.609h2.816c0-.259-.052-.49-.155-.692a1.173 1.173 0 0 0-1.098-.656c-.28 0-.523.07-.728.208a1.376 1.376 0 0 0-.468.537 1.585 1.585 0 0 0-.164.71v.406c0 .346.06.64.179.88.121.239.289.42.504.546.215.123.464.185.749.185.185 0 .352-.026.501-.078a1.08 1.08 0 0 0 .391-.238 1.08 1.08 0 0 0 .253-.4l.68.19a1.512 1.512 0 0 1-.361.61 1.755 1.755 0 0 1-.626.405 2.326 2.326 0 0 1-.838.143Zm5.33-.095V31.33h.704v4.582h-.704Zm.358-5.346a.502.502 0 0 1-.355-.14.452.452 0 0 1-.146-.337c0-.131.049-.244.146-.337.1-.093.218-.14.355-.14a.49.49 0 0 1 .352.14c.1.093.149.206.149.337a.444.444 0 0 1-.149.337.49.49 0 0 1-.352.14Zm4.881 1.79-.632.18a1.199 1.199 0 0 0-.176-.308.859.859 0 0 0-.31-.25 1.133 1.133 0 0 0-.505-.1c-.28 0-.514.066-.701.195-.185.127-.277.29-.277.486 0 .175.064.313.191.415.127.101.326.185.597.253l.68.167c.409.1.715.252.915.457.201.202.302.464.302.784 0 .263-.076.497-.227.704a1.51 1.51 0 0 1-.626.49 2.297 2.297 0 0 1-.937.178c-.467 0-.854-.101-1.16-.304-.307-.203-.501-.5-.582-.889l.668-.167c.064.247.184.432.361.555.179.123.413.185.701.185.328 0 .589-.07.781-.209.195-.141.293-.31.293-.507a.534.534 0 0 0-.167-.4c-.112-.11-.283-.19-.513-.244l-.764-.18c-.42-.099-.728-.253-.925-.462a1.12 1.12 0 0 1-.292-.79c0-.259.073-.487.218-.686.147-.2.347-.355.599-.469.255-.113.543-.17.865-.17.454 0 .81.1 1.068.299.261.198.446.461.555.787Zm3.506 3.556V31.33h.68v.692h.048c.083-.227.234-.41.453-.552.219-.141.465-.212.74-.212a7.775 7.775 0 0 1 .37.012v.716a2.172 2.172 0 0 0-.164-.027 1.623 1.623 0 0 0-.266-.02 1.24 1.24 0 0 0-.596.14 1.056 1.056 0 0 0-.412.382 1.033 1.033 0 0 0-.149.551v2.9h-.704Zm4.907.095c-.442 0-.822-.097-1.143-.292a1.962 1.962 0 0 1-.736-.823c-.171-.354-.257-.766-.257-1.235 0-.47.086-.883.257-1.241.173-.36.413-.64.721-.841a1.942 1.942 0 0 1 1.086-.305c.239 0 .475.04.707.12.233.08.445.208.636.387.19.177.343.412.456.704.113.293.17.653.17 1.08v.299h-3.532v-.609h2.816c0-.259-.052-.49-.155-.692a1.166 1.166 0 0 0-.436-.48 1.216 1.216 0 0 0-.662-.176c-.28 0-.523.07-.728.208a1.376 1.376 0 0 0-.468.537 1.585 1.585 0 0 0-.164.71v.406c0 .346.06.64.179.88.121.239.289.42.504.546.215.123.464.185.749.185.185 0 .352-.026.501-.078a1.08 1.08 0 0 0 .391-.238 1.08 1.08 0 0 0 .253-.4l.68.19a1.512 1.512 0 0 1-.361.61 1.755 1.755 0 0 1-.626.405 2.326 2.326 0 0 1-.838.143Zm4.316.012c-.29 0-.554-.055-.79-.164a1.353 1.353 0 0 1-.564-.48 1.356 1.356 0 0 1-.209-.764c0-.262.052-.475.155-.638a1.1 1.1 0 0 1 .415-.388c.173-.093.364-.163.573-.209.21-.047.422-.085.635-.113.278-.036.504-.063.677-.08.175-.02.302-.053.382-.099.081-.046.122-.125.122-.239v-.023c0-.295-.08-.524-.241-.687-.16-.163-.401-.244-.725-.244-.336 0-.6.073-.791.22a1.297 1.297 0 0 0-.402.472l-.669-.239a1.61 1.61 0 0 1 .478-.65c.2-.157.419-.267.656-.328.238-.064.473-.096.704-.096.147 0 .316.018.507.054.193.034.379.104.558.212.181.107.331.27.45.486.119.217.179.507.179.871v3.019h-.704v-.62h-.036a1.244 1.244 0 0 1-.238.319c-.112.113-.26.21-.445.289-.185.08-.41.12-.677.12Zm.108-.632c.278 0 .513-.055.704-.164a1.117 1.117 0 0 0 .584-.97v-.644c-.03.036-.095.069-.197.098a3.27 3.27 0 0 1-.346.075 15.955 15.955 0 0 1-.674.09 2.68 2.68 0 0 0-.513.116.889.889 0 0 0-.382.235.602.602 0 0 0-.143.424c0 .245.091.43.272.555.182.123.414.185.695.185Zm5.138.62c-.429 0-.799-.101-1.109-.304a1.985 1.985 0 0 1-.716-.838 2.841 2.841 0 0 1-.251-1.22c0-.466.086-.876.257-1.232.173-.358.413-.638.722-.838.31-.203.672-.305 1.085-.305.323 0 .613.06.872.18.258.119.47.286.635.5.165.215.267.466.307.752h-.704a1.093 1.093 0 0 0-.358-.555c-.183-.163-.429-.244-.74-.244-.274 0-.515.071-.721.214a1.404 1.404 0 0 0-.481.6 2.23 2.23 0 0 0-.17.904c0 .354.056.662.167.925.114.262.273.466.478.611.206.145.449.218.727.218.183 0 .349-.032.499-.096a1.022 1.022 0 0 0 .599-.704h.704c-.04.27-.138.514-.295.731a1.648 1.648 0 0 1-.618.513 1.988 1.988 0 0 1-.889.188Zm3.535-2.851v2.756h-.704v-6.11h.704v2.244h.06a1.29 1.29 0 0 1 .483-.564c.217-.141.505-.212.865-.212.312 0 .586.063.82.188.235.123.417.314.546.57.132.254.197.579.197.972v2.912h-.704v-2.864c0-.364-.094-.645-.283-.844-.187-.2-.447-.301-.779-.301-.23 0-.437.048-.62.146-.181.097-.324.24-.43.426a1.391 1.391 0 0 0-.155.68Zm6.18 2.851c-.441 0-.822-.097-1.142-.292a1.957 1.957 0 0 1-.737-.823c-.171-.354-.257-.766-.257-1.235 0-.47.086-.883.257-1.241.173-.36.414-.64.722-.841.31-.203.672-.305 1.086-.305.238 0 .474.04.707.12.232.08.444.208.635.387.191.177.343.412.456.704.114.293.17.653.17 1.08v.299h-3.532v-.609h2.816c0-.259-.051-.49-.155-.692a1.164 1.164 0 0 0-.435-.48 1.22 1.22 0 0 0-.662-.176c-.281 0-.523.07-.728.208a1.379 1.379 0 0 0-.469.537 1.585 1.585 0 0 0-.164.71v.406c0 .346.06.64.179.88.122.239.29.42.504.546.215.123.465.185.749.185.185 0 .352-.026.501-.078.151-.053.282-.133.391-.238.109-.108.194-.241.254-.4l.68.19a1.523 1.523 0 0 1-.361.61 1.759 1.759 0 0 1-.627.405 2.322 2.322 0 0 1-.838.143Zm4.698 0c-.382 0-.719-.096-1.011-.29a1.956 1.956 0 0 1-.686-.822c-.165-.356-.248-.777-.248-1.262 0-.481.083-.899.248-1.253.165-.354.395-.627.689-.82.294-.193.634-.29 1.02-.29.299 0 .534.05.707.15.175.097.308.208.4.334.093.123.166.224.218.304h.059v-2.255h.704v6.109h-.68v-.704h-.083a4.82 4.82 0 0 1-.221.316 1.319 1.319 0 0 1-.409.337c-.177.097-.412.146-.707.146Zm.096-.632c.282 0 .521-.074.716-.22.195-.15.343-.356.444-.618.102-.265.152-.57.152-.916 0-.342-.049-.642-.149-.898a1.302 1.302 0 0 0-.441-.602 1.176 1.176 0 0 0-.722-.218c-.299 0-.547.076-.746.23a1.37 1.37 0 0 0-.444.617 2.442 2.442 0 0 0-.147.87c0 .327.05.623.15.89.101.264.25.475.447.632.199.155.445.233.74.233Z" opacity=".6"/></svg>