<svg xmlns="http://www.w3.org/2000/svg" width="199" height="49" fill="none"><path fill="#007AFF" d="M129.655 35.46c-.059-.107-.28-.14-.662-.099-.461.05-.844.155-1.149.316-.23.105-.475.292-.736.562-.263.253-.388.436-.376.547.008.08.14.105.394.078.414-.044.875-.174 1.383-.389.814-.36 1.207-.676 1.178-.947l-.003-.023-.029-.046Zm-4.154-.474c.753-.933 1.822-1.474 3.206-1.622.668-.071 1.203-.032 1.606.118.889.34 1.377.915 1.464 1.726.061.573-.106 1.114-.503 1.623-.52.7-1.364 1.232-2.532 1.598-.561.173-.837.299-.828.379.013.127.619.376 1.817.746 1.197.355 1.946.516 2.249.484.175-.019.386.08.635.294.264.213.406.415.426.606.021.191-.083.427-.31.71-.199.246-.41.38-.632.405l-.191.02a1.12 1.12 0 0 0-.218 0c-.69.009-1.62-.181-2.788-.571-1.17-.406-2.036-.828-2.598-1.267-.352-.284-.746-.733-1.181-1.346-.438-.629-.67-1.07-.697-1.325-.024-.223.092-.638.349-1.245.257-.606.499-1.05.726-1.333Zm-5.054-1.003a3.37 3.37 0 0 1 .639-.117c.478-.051.869-.005 1.174.14.321.143.498.365.53.667.012.112-.012.267-.071.466-.123.352-.384.548-.781.591a1.282 1.282 0 0 1-.289.007l-.096.01a.212.212 0 0 0-.098-.014c-.652.07-1.117.24-1.393.512-.045.036-.064.079-.059.127.012.11.484.543 1.418 1.296.842.65 1.438 1.182 1.788 1.595.35.413.545.81.586 1.192a.696.696 0 0 1-.011.122l.013.12c.001.61-.299 1.117-.9 1.52-.315.21-.871.358-1.666.444a8.672 8.672 0 0 1-2.695-.147c-.921-.19-1.545-.454-1.871-.79a1.15 1.15 0 0 1-.315-.69c-.029-.27.028-.493.17-.67.114-.14.282-.223.505-.246.286-.031.777.045 1.472.228.959.236 1.836.31 2.631.226.159-.017.253-.044.281-.079.015-.017.02-.042.017-.074-.034-.318-.422-.703-1.162-1.155-.43-.26-.879-.622-1.347-1.087-.468-.465-.756-.82-.863-1.066a1.986 1.986 0 0 1-.127-.517c-.06-.557.135-1.069.584-1.535.463-.484 1.108-.843 1.936-1.076Zm-10.299 5.301a1.44 1.44 0 0 0-.007-.288c-.017-.16-.073-.234-.168-.224-.143.016-.376.17-.699.461-.676.603-1.053 1.135-1.133 1.594a.187.187 0 0 1-.016.074l.005.048c.019.175.114.317.287.428.187.092.4.126.638.1.7-.075 1.065-.806 1.093-2.193Zm-.188-2.659a3.03 3.03 0 0 1 .706-.172c.461-.05.795.133 1 .545.159.289.632 1.027 1.419 2.214.904 1.383 1.47 2.232 1.697 2.545.528.732.812 1.273.849 1.623.024.223-.057.449-.241.678a.95.95 0 0 1-.662.36.95.95 0 0 1-.439-.05c-.136-.065-.394-.367-.773-.906-.952-1.379-1.468-2.064-1.548-2.055-.063.007-.14.12-.229.338-.114.286-.345.608-.693.967-.349.343-.663.57-.941.68a2.21 2.21 0 0 1-.682.17c-.668.071-1.311-.07-1.928-.421-.617-.353-1.012-.817-1.187-1.394a4.208 4.208 0 0 1-.096-.448c-.022-.207.001-.516.07-.925.074-.362.157-.636.25-.823.107-.205.309-.492.608-.862.795-.986 1.736-1.674 2.82-2.064Zm-7.85 1.782c-.059-.107-.28-.14-.662-.099-.461.05-.844.155-1.149.316-.23.106-.475.293-.736.562-.263.253-.388.436-.376.547.008.08.14.106.395.079.413-.045.874-.174 1.382-.39.814-.36 1.207-.676 1.178-.946a34.988 34.988 0 0 1-.003-.024l-.029-.045Zm-4.153-.473c.753-.934 1.821-1.474 3.205-1.622.668-.072 1.204-.033 1.606.117.889.34 1.377.915 1.464 1.726.061.573-.106 1.114-.502 1.623-.521.7-1.365 1.232-2.533 1.599-.561.172-.837.298-.828.378.013.127.619.376 1.818.747 1.196.354 1.945.516 2.248.483.175-.018.386.08.635.294.264.213.406.415.427.606.02.191-.083.428-.311.71-.199.246-.409.381-.632.405l-.191.02a1.11 1.11 0 0 0-.217 0c-.691.01-1.621-.181-2.789-.571-1.17-.406-2.036-.828-2.597-1.267-.353-.284-.747-.733-1.182-1.346-.438-.629-.67-1.07-.697-1.325-.024-.223.092-.638.35-1.244.256-.607.498-1.051.726-1.333Zm-5.371-4.301c.245-.268.439-.41.582-.425a.611.611 0 0 1 .423.124c.189.109.344.35.464.723.136.371.304 1.11.502 2.215a122.47 122.47 0 0 0 1.508 7.321c.195.768.315 1.366.361 1.796.056.525-.05.882-.32 1.072-.242.139-.411.213-.507.223-.095.01-.276-.026-.543-.11-.335-.126-.61-.66-.823-1.602-.048-.3-.17-.843-.367-1.626-.426-2.03-.882-4.556-1.366-7.578l-.258-1.734.344-.4Zm-3.471 6.164c-.06-.106-.28-.139-.662-.098-.462.05-.845.155-1.15.316-.23.105-.475.292-.736.562-.262.253-.387.435-.376.547.009.08.14.105.395.078.414-.044.874-.174 1.382-.39.815-.36 1.207-.675 1.178-.946l-.002-.024-.03-.045Zm-4.154-.473c.753-.933 1.822-1.474 3.206-1.622.668-.071 1.203-.032 1.605.118.89.34 1.377.915 1.464 1.726.061.573-.106 1.114-.502 1.623-.52.699-1.365 1.232-2.532 1.598-.561.173-.837.299-.829.378.014.128.62.377 1.818.747 1.197.355 1.946.516 2.248.484.175-.019.387.08.635.294.264.213.407.415.427.606.02.19-.083.427-.31.709-.2.246-.41.382-.633.406l-.19.02a1.114 1.114 0 0 0-.218 0c-.691.009-1.62-.182-2.789-.572-1.17-.405-2.035-.828-2.597-1.266-.352-.285-.746-.733-1.182-1.346-.437-.63-.67-1.071-.697-1.326-.024-.222.093-.637.35-1.244s.499-1.05.726-1.333Zm-5.251-.404c.518-.28 1.007-.445 1.468-.494.462-.05.815.017 1.06.2.276.18.43.413.46.699a.88.88 0 0 1-.193.672c-.156.194-.377.306-.664.337a.728.728 0 0 1-.217-.001l-.12.013c-.302.032-.734.207-1.295.525-.563.301-.951.584-1.164.848-.3.354-.493.657-.58.907-.069.249-.076.636-.02 1.16.016.144.077.564.183 1.26.11.729.176 1.189.196 1.38.075.7.072 1.199-.009 1.497a.937.937 0 0 1-.537.613c-.139.063-.263.1-.375.112-.588.063-.933-.375-1.033-1.313l-.018-.168-.038-.357a121.938 121.938 0 0 0-.47-3.716l-.448-3.282.232-.315a.845.845 0 0 1 .613-.355.94.94 0 0 1 .75.233c.21.17.323.32.337.447.01.095.063.138.159.128.127-.014.31-.114.547-.3.193-.15.585-.393 1.177-.73Zm115.096-27.529c-.059-.106-.28-.139-.662-.098-.461.05-.844.155-1.149.316-.23.105-.475.293-.736.562-.263.253-.388.436-.376.547.008.08.14.106.394.078.414-.044.875-.174 1.383-.389.814-.36 1.207-.676 1.178-.947a34.462 34.462 0 0 0-.003-.024l-.029-.045Zm-4.154-.473c.753-.933 1.822-1.474 3.206-1.622.668-.071 1.203-.032 1.606.118.889.34 1.377.915 1.464 1.726.061.573-.107 1.114-.503 1.623-.52.7-1.364 1.232-2.532 1.598-.561.173-.837.299-.828.379.013.127.619.376 1.817.746 1.197.355 1.946.516 2.249.484.175-.019.386.08.634.294.265.213.407.415.427.606.021.191-.083.427-.31.71-.199.246-.41.38-.632.405l-.191.02a1.12 1.12 0 0 0-.218 0c-.691.009-1.62-.181-2.788-.571-1.17-.406-2.036-.828-2.598-1.267-.352-.284-.746-.733-1.182-1.346-.437-.629-.669-1.07-.697-1.325-.023-.223.093-.638.35-1.245.257-.606.499-1.05.726-1.332Zm-5.25-.403c.517-.28 1.006-.446 1.468-.495.461-.05.814.017 1.059.2.277.18.431.413.461.7a.883.883 0 0 1-.193.672c-.157.193-.378.306-.664.336a.733.733 0 0 1-.218 0l-.119.012c-.302.032-.734.207-1.296.525-.563.302-.951.584-1.164.848-.3.354-.493.657-.579.907-.07.25-.076.636-.02 1.161.015.143.076.563.183 1.26.11.728.175 1.188.196 1.379.074.7.072 1.199-.009 1.497a.94.94 0 0 1-.538.613c-.138.063-.263.1-.374.112-.589.063-.933-.375-1.034-1.313l-.018-.167-.038-.358c-.107-1.003-.264-2.24-.47-3.715l-.448-3.283.232-.315a.845.845 0 0 1 .614-.355.939.939 0 0 1 .749.234c.211.17.324.319.337.446.011.096.063.138.159.128.127-.014.31-.114.547-.3.193-.15.586-.392 1.177-.73Zm-13.047 1.106c.181-.116.343-.181.486-.197a.66.66 0 0 1 .579.228c.183.206.306.603.369 1.192.102.954.321 1.872.657 2.753.352.88.719 1.46 1.103 1.74.226.154.474.216.744.187.923-.099 1.302-1.37 1.137-3.815-.048-.751-.038-1.259.03-1.524.111-.317.389-.5.835-.548.063-.006.16 0 .291.018a.94.94 0 0 1 .626.44c.155.24.349.702.583 1.385.147.467.41 1.203.792 2.208.397 1.004.652 1.66.765 1.97.048.14.084.33.109.568.075.7-.197 1.083-.818 1.15l-.167.017c-.482.004-.852-.367-1.109-1.112-.134-.356-.249-.528-.345-.518-.079.008-.156.113-.231.314-.06.2-.22.426-.483.68a2.892 2.892 0 0 1-1.769.84c-.652.07-1.286-.071-1.903-.424-.603-.37-1.088-.913-1.454-1.63-.561-1.034-.948-2.313-1.159-3.835a8.447 8.447 0 0 1-.098-.69c-.044-.413-.036-.711.025-.895.059-.2.194-.367.405-.502Zm-7.262-5.451c.204-.198.338-.3.402-.308.063-.006.195.02.394.079.299.08.502.252.61.514.109.262.217.894.324 1.896l.097.907.262 2.675.804-.158c.143-.015.646-.126 1.509-.33.126-.03.276-.054.451-.073.207-.022.407.045.601.201.229.185.356.397.382.635a.785.785 0 0 1-.178.598 1.22 1.22 0 0 1-.51.417c-.2.086-.576.182-1.128.29-.677.137-1.093.237-1.247.302-.138.063-.197.19-.176.381.003.032.036.19.099.472.086.506.52 2.535 1.303 6.088.085.345.137.605.156.78.022.207-.004.419-.077.636-.149.418-.43.65-.843.694-.318.034-.571-.068-.757-.306-.148-.177-.327-.73-.539-1.656a275.94 275.94 0 0 1-.773-3.61c-.362-1.731-.552-2.677-.569-2.836-.008-.08-.156-.104-.442-.073-.255.027-.484.06-.689.098a6.613 6.613 0 0 1-.618.09c-.971.104-1.488-.138-1.551-.727a1.196 1.196 0 0 1-.004-.265c.01-.21.151-.394.424-.552.287-.176.661-.288 1.122-.338.557-.06.913-.121 1.067-.186l.276-.126-.191-2.007c-.164-1.688-.247-2.766-.249-3.232-.002-.467.084-.79.258-.97Zm-8.406 11.038a1.44 1.44 0 0 0-.007-.29c-.017-.158-.073-.233-.168-.222-.143.015-.376.169-.699.46-.676.604-1.053 1.135-1.133 1.594a.187.187 0 0 1-.016.074.771.771 0 0 0 .005.048c.019.175.114.318.287.428.187.093.4.126.638.1.7-.074 1.065-.805 1.093-2.192Zm-.188-2.66c.248-.09.483-.148.706-.171.461-.05.795.132 1 .544.159.29.632 1.027 1.419 2.214.905 1.384 1.47 2.232 1.697 2.546.529.732.812 1.273.849 1.623.024.223-.056.448-.241.677a.95.95 0 0 1-.662.36.95.95 0 0 1-.439-.049c-.136-.066-.394-.368-.773-.907-.952-1.378-1.468-2.063-1.548-2.055-.063.007-.14.12-.229.339-.114.285-.345.608-.693.967-.349.343-.663.57-.941.68-.184.084-.411.14-.682.17-.668.07-1.311-.07-1.928-.422s-1.012-.817-1.187-1.394a4.214 4.214 0 0 1-.096-.448c-.022-.207.001-.515.07-.925.074-.362.157-.636.25-.823.107-.204.31-.492.608-.861.795-.987 1.736-1.675 2.82-2.064Zm-7.85 1.782c-.06-.106-.28-.139-.662-.098-.462.05-.845.155-1.149.316-.23.105-.476.292-.737.562-.262.253-.387.435-.375.547.008.08.14.105.394.078.414-.044.875-.174 1.383-.39.814-.36 1.206-.675 1.178-.946a17.422 17.422 0 0 0-.003-.024l-.029-.045Zm-4.154-.473c.753-.933 1.822-1.474 3.206-1.622.668-.071 1.203-.032 1.605.118.89.34 1.378.915 1.464 1.726.062.573-.106 1.113-.502 1.622-.52.7-1.365 1.233-2.532 1.599-.561.173-.837.299-.829.378.014.128.62.377 1.818.747 1.197.355 1.946.516 2.248.484.175-.019.387.079.635.294.264.213.407.415.427.606.021.19-.083.427-.31.709-.199.247-.41.382-.633.405a81.2 81.2 0 0 1-.191.02 1.11 1.11 0 0 0-.217 0c-.691.01-1.62-.18-2.788-.57-1.17-.406-2.036-.829-2.598-1.267-.352-.285-.746-.733-1.182-1.346-.437-.63-.67-1.071-.697-1.326-.024-.222.093-.637.35-1.244s.499-1.051.726-1.333Zm-6.152-4.337c.254-.189.603-.307 1.049-.354a3.58 3.58 0 0 1 1.314.1c.43.115.73.284.899.508.135.21.159.433.071.668-.153.37-.437.578-.85.622a2.154 2.154 0 0 1-.507.006 2.866 2.866 0 0 0-.651-.003.658.658 0 0 0-.141.04l-.096.01c-.371.136-.558.872-.56 2.208-.007.532.003.925.03 1.18.012.11.043.18.094.206a.544.544 0 0 0 .199.052c.095-.01.16-.01.193.003 1.019-.109 1.569.226 1.653 1.006.054.509-.253.8-.921.87l-.095.01c-.414.045-.656.111-.727.2-.059.054-.077.185-.055.391.05.462.275 1.588.676 3.38.253 1.163.387 1.817.402 1.96a.855.855 0 0 1-.132.57c-.206.327-.476.509-.81.545-.494.052-.83-.161-1.01-.64-.205-.558-.502-1.91-.893-4.057-.206-1.024-.327-1.55-.362-1.578l-.048.005c-.063.007-.41.076-1.039.208-.566.125-.865.189-.897.192-.175.019-.37 0-.585-.058-.466-.143-.719-.398-.758-.764-.026-.238.064-.457.268-.656.202-.214.486-.341.852-.38.239-.026.653-.135 1.244-.327l.791-.277-.058-.55c-.104-.97-.038-2.08.199-3.327.151-.837.572-1.494 1.261-1.97Zm-15.934-.782c.204-.199.338-.302.401-.308.064-.007.195.019.395.078.298.08.501.252.61.514.108.262.216.894.323 1.896l.097.907.263 2.675.803-.158c.144-.015.647-.125 1.51-.33.125-.03.276-.054.451-.073.206-.022.407.045.6.201.229.185.357.397.382.635a.785.785 0 0 1-.177.599c-.141.192-.311.33-.511.416-.2.086-.576.183-1.127.29-.678.137-1.093.238-1.247.302-.138.063-.197.19-.177.381.004.032.037.19.099.472.086.506.521 2.535 1.303 6.088.085.345.137.605.156.78a1.47 1.47 0 0 1-.077.636c-.148.418-.429.65-.843.694-.318.034-.57-.068-.757-.306-.147-.177-.327-.729-.539-1.656-.153-.675-.41-1.879-.772-3.61-.363-1.731-.552-2.676-.569-2.835-.009-.08-.156-.104-.443-.074-.254.027-.484.06-.689.098a6.448 6.448 0 0 1-.618.09c-.97.104-1.487-.138-1.55-.727a1.138 1.138 0 0 1-.004-.265c.009-.21.151-.394.423-.552.287-.176.661-.288 1.123-.337.557-.06.912-.122 1.066-.187l.276-.126-.19-2.007c-.165-1.688-.248-2.766-.25-3.232-.001-.466.085-.79.259-.969Zm-6.434 6.626a3.42 3.42 0 0 1 .639-.117c.477-.05.868-.004 1.173.14.321.143.498.366.53.668.012.111-.011.267-.07.466-.124.351-.384.548-.782.59a1.275 1.275 0 0 1-.289.007l-.095.01a.215.215 0 0 0-.098-.013c-.653.07-1.117.24-1.394.51-.044.038-.064.08-.059.128.012.111.485.544 1.418 1.296.842.65 1.438 1.182 1.788 1.595.35.413.545.81.586 1.193a.695.695 0 0 1-.011.122l.013.119c.001.611-.299 1.118-.899 1.52-.316.21-.871.359-1.667.444a8.669 8.669 0 0 1-2.695-.146c-.921-.191-1.545-.454-1.87-.79a1.15 1.15 0 0 1-.315-.69c-.029-.27.027-.494.169-.67.114-.14.282-.223.505-.247.286-.03.777.046 1.473.229.958.235 1.835.31 2.63.225.16-.017.253-.043.282-.078.014-.018.019-.043.016-.075-.034-.318-.421-.703-1.162-1.155-.43-.26-.879-.621-1.347-1.086-.468-.465-.755-.82-.862-1.067a1.988 1.988 0 0 1-.128-.517c-.06-.557.135-1.068.584-1.535.463-.484 1.109-.843 1.937-1.076Zm-8.263 3.346c-.059-.106-.28-.139-.662-.098-.461.05-.844.155-1.149.316-.23.105-.475.292-.736.562-.263.253-.388.435-.376.547.009.08.14.105.395.078.413-.044.874-.174 1.382-.39.814-.36 1.207-.675 1.178-.946l-.003-.024-.029-.045Zm-4.153-.473c.753-.933 1.821-1.474 3.205-1.622.668-.071 1.204-.032 1.606.118.889.34 1.377.915 1.464 1.726.061.573-.106 1.114-.502 1.623-.521.699-1.365 1.232-2.533 1.598-.561.173-.837.299-.828.378.013.128.619.377 1.818.747 1.196.355 1.946.516 2.248.484.175-.019.386.08.635.294.264.213.406.415.427.606.02.19-.083.427-.311.709-.199.247-.409.382-.632.406l-.191.02a1.101 1.101 0 0 0-.217 0c-.691.009-1.621-.182-2.789-.571-1.17-.406-2.036-.829-2.597-1.267-.353-.284-.747-.733-1.182-1.346-.438-.63-.67-1.071-.697-1.326-.024-.222.092-.637.349-1.244s.499-1.05.727-1.333Zm-8.183-6.607c.204-.198.338-.301.402-.308.064-.007.195.02.394.078.299.081.502.252.61.514.11.262.217.895.324 1.897l.097.907.262 2.675.804-.159c.143-.015.646-.125 1.51-.33.125-.03.275-.054.45-.072.207-.023.407.045.601.2.229.186.356.397.382.636a.785.785 0 0 1-.177.598 1.236 1.236 0 0 1-.511.417c-.2.086-.576.182-1.128.29-.677.136-1.093.237-1.246.302-.139.063-.197.19-.177.38.003.033.036.19.099.473.086.506.52 2.535 1.303 6.088.085.345.137.605.156.78.022.207-.004.418-.077.635-.148.419-.43.65-.843.694-.318.034-.57-.068-.757-.305-.147-.177-.327-.73-.539-1.656-.153-.676-.41-1.88-.772-3.61-.363-1.732-.552-2.677-.57-2.836-.008-.08-.155-.104-.442-.073-.254.027-.484.06-.69.098a6.517 6.517 0 0 1-.617.09c-.97.104-1.487-.139-1.55-.728a1.14 1.14 0 0 1-.005-.264c.01-.21.151-.395.424-.553.287-.175.661-.288 1.123-.337.556-.06.912-.122 1.066-.186l.276-.127-.19-2.007c-.165-1.688-.248-2.765-.25-3.232-.002-.466.085-.789.258-.969ZM86.97 24.667a1.492 1.492 0 0 0-.006-.289c-.017-.159-.074-.233-.169-.223-.143.015-.376.17-.699.461-.676.603-1.053 1.135-1.133 1.594a.184.184 0 0 1-.016.074l.005.047c.019.175.115.318.287.428.187.093.4.127.639.101.7-.075 1.064-.806 1.093-2.193Zm-.188-2.659c.248-.09.484-.148.706-.172.462-.05.795.132 1 .545.16.289.633 1.026 1.42 2.213.904 1.384 1.47 2.233 1.696 2.546.529.732.812 1.273.85 1.623.023.223-.057.449-.242.678a.949.949 0 0 1-.661.36.953.953 0 0 1-.44-.05c-.136-.065-.394-.367-.773-.906-.952-1.379-1.468-2.064-1.547-2.055-.064.007-.14.12-.23.338-.114.286-.345.608-.693.967-.35.343-.663.57-.94.68-.185.084-.412.14-.683.17-.668.071-1.31-.07-1.927-.422s-1.013-.816-1.187-1.393a3.934 3.934 0 0 1-.097-.448c-.022-.207.002-.515.07-.925.074-.362.158-.637.25-.823.107-.205.31-.492.608-.862.796-.986 1.736-1.674 2.82-2.064ZM74.349 19.26c.114-.142.298-.226.552-.253.287-.03.518.025.694.167.16.144.284.63.373 1.457a1528 1528 0 0 1 .305 3.298l.387 4.52 1.885-.201c1.24-.133 2.099-.16 2.574-.082.475.078.829.305 1.063.683.077.12.124.26.14.419a.889.889 0 0 1-.238.701.993.993 0 0 1-.664.337 1.095 1.095 0 0 1-.54-.087c-.152-.064-.944-.02-2.375.133l-.955.102c-.795.085-1.369.066-1.72-.057-.367-.122-.637-.318-.811-.589-.151-.21-.263-.648-.334-1.316l-.084-.787a72.13 72.13 0 0 0-.1-1.39c-.048-.59-.089-1.125-.124-1.604-.23-3.193-.326-4.856-.292-4.989.034-.132.122-.287.264-.463ZM61.6 30.643c-11.501.865-20.79.35-29.614-3.458-8.35-3.604-16.178-10.112-25.068-20.947l-.746 6.57a1 1 0 0 1-1.988-.226L5.2 3.64a1 1 0 0 1 1.106-.88l8.943 1.015a1 1 0 1 1-.226 1.986l-6.517-.74c8.765 10.672 16.34 16.904 24.273 20.328 8.386 3.62 17.292 4.155 28.67 3.3a1 1 0 0 1 .151 1.994Z"/></svg>