<svg xmlns="http://www.w3.org/2000/svg" width="199" height="38" fill="none"><path fill="#000" d="M.74 25.4v-6.109h3.663v.656H1.48v2.065h2.648v.656H1.48V25.4H.74Zm6.36.095c-.414 0-.777-.098-1.09-.295a2.006 2.006 0 0 1-.727-.826c-.173-.354-.26-.768-.26-1.241 0-.477.087-.894.26-1.25.175-.356.417-.632.728-.83a1.998 1.998 0 0 1 1.088-.294c.414 0 .776.098 1.086.295.312.197.555.473.728.83.175.355.263.772.263 1.249 0 .473-.088.887-.263 1.241-.173.354-.416.63-.728.826-.31.197-.672.296-1.086.296Zm0-.632c.314 0 .572-.08.775-.241.203-.162.353-.373.45-.636.098-.262.147-.547.147-.853 0-.306-.05-.592-.147-.856a1.444 1.444 0 0 0-.45-.641c-.203-.163-.461-.245-.776-.245-.314 0-.572.082-.775.245a1.443 1.443 0 0 0-.45.64c-.098.265-.147.55-.147.857 0 .306.049.59.146.853.098.263.248.474.45.636.204.16.462.241.776.241Zm3.15.537v-4.582h.68v.692h.048a1.1 1.1 0 0 1 .453-.552c.22-.14.466-.211.74-.211a7.76 7.76 0 0 1 .37.012v.715a2.107 2.107 0 0 0-.164-.026 1.616 1.616 0 0 0-.266-.021c-.222 0-.421.047-.596.14a1.028 1.028 0 0 0-.56.934v2.9h-.705Zm5.488 1.718v-6.3h.68v.728h.084c.051-.08.123-.18.214-.304.094-.125.227-.237.4-.334.175-.1.412-.15.71-.15.386 0 .726.097 1.02.29.295.193.524.466.69.82.164.354.247.772.247 1.253 0 .485-.083.906-.248 1.262a1.953 1.953 0 0 1-.686.823c-.292.193-.63.29-1.011.29-.294 0-.53-.05-.707-.147a1.31 1.31 0 0 1-.409-.337 4.507 4.507 0 0 1-.22-.316h-.06v2.422h-.704Zm.692-4.009c0 .346.05.651.152.916.102.263.25.468.445.617.194.148.433.221.716.221.294 0 .54-.077.736-.232.2-.158.348-.368.448-.633a2.49 2.49 0 0 0 .152-.889c0-.322-.05-.612-.15-.87a1.346 1.346 0 0 0-.444-.618c-.197-.153-.444-.23-.742-.23-.287 0-.527.073-.722.218a1.307 1.307 0 0 0-.442.602c-.1.257-.149.556-.149.898Zm4.427 2.291v-4.582h.68v.692h.048a1.1 1.1 0 0 1 .453-.552c.219-.14.465-.211.74-.211a7.76 7.76 0 0 1 .37.012v.715a2.122 2.122 0 0 0-.164-.026 1.616 1.616 0 0 0-.266-.021c-.223 0-.421.047-.596.14a1.03 1.03 0 0 0-.56.934v2.9h-.705Zm4.847.095c-.414 0-.777-.098-1.089-.295a2.006 2.006 0 0 1-.727-.826c-.174-.354-.26-.768-.26-1.241 0-.477.086-.894.26-1.25.174-.356.417-.632.727-.83a1.998 1.998 0 0 1 1.09-.294c.413 0 .775.098 1.085.295.312.197.555.473.728.83.175.355.262.772.262 1.249 0 .473-.087.887-.262 1.241-.173.354-.416.63-.728.826-.31.197-.672.296-1.086.296Zm0-.632c.314 0 .573-.08.776-.241.203-.162.353-.373.45-.636.098-.262.146-.547.146-.853 0-.306-.049-.592-.146-.856a1.444 1.444 0 0 0-.45-.641c-.203-.163-.462-.245-.776-.245s-.573.082-.776.245a1.443 1.443 0 0 0-.45.64c-.097.265-.146.55-.146.857 0 .306.049.59.146.853.098.263.248.474.45.636.203.16.462.241.776.241Zm3.151-4.045h.704v4.916c0 .283-.049.527-.146.734a1.053 1.053 0 0 1-.436.48c-.193.114-.436.17-.73.17h-.144v-.656h.131c.215 0 .372-.064.472-.19.1-.126.149-.305.149-.538v-4.916Zm.346-.763a.5.5 0 0 1-.355-.14.45.45 0 0 1-.146-.338.45.45 0 0 1 .146-.337.5.5 0 0 1 .355-.14.49.49 0 0 1 .352.14c.1.094.149.206.149.337 0 .132-.05.244-.15.337a.49.49 0 0 1-.351.14Zm3.569 5.44c-.442 0-.823-.097-1.143-.292a1.963 1.963 0 0 1-.737-.823c-.171-.354-.257-.766-.257-1.235 0-.47.086-.883.257-1.24.173-.36.414-.641.722-.842.31-.203.672-.304 1.086-.304.238 0 .474.04.707.119.232.08.444.209.635.388.19.177.343.411.456.704.114.292.17.652.17 1.08v.298h-3.531v-.609h2.815a1.5 1.5 0 0 0-.155-.692 1.168 1.168 0 0 0-.435-.48 1.22 1.22 0 0 0-.662-.176c-.28 0-.523.07-.728.209a1.372 1.372 0 0 0-.468.537c-.11.22-.165.457-.165.71v.405c0 .346.06.64.18.88.12.239.289.42.503.546.215.123.465.185.75.185.184 0 .351-.026.5-.077.151-.054.282-.134.391-.239.11-.107.194-.24.254-.4l.68.191a1.52 1.52 0 0 1-.361.609 1.76 1.76 0 0 1-.627.405 2.325 2.325 0 0 1-.838.143Zm4.829 0c-.43 0-.8-.1-1.11-.304a1.984 1.984 0 0 1-.716-.838 2.841 2.841 0 0 1-.25-1.22c0-.465.085-.876.256-1.232a2.03 2.03 0 0 1 .722-.838c.31-.203.672-.304 1.086-.304.322 0 .612.06.87.179.26.119.471.286.636.5.165.216.267.466.307.752h-.704a1.092 1.092 0 0 0-.358-.554c-.183-.163-.43-.245-.74-.245-.274 0-.514.072-.721.215a1.399 1.399 0 0 0-.48.6c-.114.256-.17.557-.17.903 0 .354.055.662.167.925.113.262.272.466.477.611.207.146.45.218.728.218.183 0 .349-.032.498-.095a1.027 1.027 0 0 0 .6-.704h.703a1.631 1.631 0 0 1-.913 1.244 1.99 1.99 0 0 1-.888.188Zm4.823-4.677v.597h-2.374v-.597h2.374ZM40.74 19.72h.704v4.368c0 .198.028.348.086.447.06.098.135.163.227.197a.91.91 0 0 0 .295.048 1.243 1.243 0 0 0 .31-.036l.144.632a1.47 1.47 0 0 1-.525.084c-.2 0-.394-.043-.585-.129a1.162 1.162 0 0 1-.471-.39c-.124-.175-.185-.396-.185-.662V19.72Zm5.904 2.124-.632.18a1.173 1.173 0 0 0-.176-.308.853.853 0 0 0-.31-.25 1.127 1.127 0 0 0-.504-.099c-.28 0-.514.065-.701.194-.185.127-.278.29-.278.486 0 .175.064.313.191.415.127.101.326.186.597.253l.68.168c.41.099.715.251.916.456.2.203.3.464.3.784 0 .263-.075.497-.226.704a1.51 1.51 0 0 1-.626.49c-.269.119-.58.178-.937.178-.467 0-.854-.1-1.16-.304-.306-.203-.5-.499-.582-.889l.668-.167a.929.929 0 0 0 .361.555c.18.123.413.185.701.185.328 0 .589-.07.782-.209.195-.14.292-.31.292-.507a.533.533 0 0 0-.167-.4c-.111-.109-.282-.19-.513-.244l-.764-.18c-.42-.099-.727-.253-.924-.462a1.12 1.12 0 0 1-.293-.79c0-.258.073-.487.218-.686.147-.199.347-.355.6-.468.254-.114.543-.17.865-.17.453 0 .81.099 1.068.298.26.199.445.461.554.787Zm4.544 3.556-1.396-4.582h.74l.99 3.508h.048l.978-3.508h.752l.967 3.496h.047l.99-3.496h.74L54.648 25.4h-.692l-1.002-3.52h-.072L51.88 25.4h-.692Zm5.787 0v-4.582h.704V25.4h-.704Zm.358-5.345a.5.5 0 0 1-.355-.14.45.45 0 0 1-.146-.338.45.45 0 0 1 .146-.337.5.5 0 0 1 .355-.14.49.49 0 0 1 .352.14c.1.094.15.206.15.337 0 .132-.05.244-.15.337a.49.49 0 0 1-.352.14Zm3.628.763v.597h-2.374v-.597h2.374ZM59.28 19.72h.704v4.368c0 .198.029.348.086.447.06.098.135.163.227.197a.91.91 0 0 0 .295.048c.078 0 .141-.004.191-.012l.12-.024.143.632a1.47 1.47 0 0 1-.525.084c-.2 0-.394-.043-.585-.129a1.16 1.16 0 0 1-.471-.39c-.124-.175-.185-.396-.185-.662V19.72Zm3.542 2.924V25.4h-.704v-6.109h.704v2.243h.06c.108-.236.269-.424.483-.564.217-.14.505-.211.865-.211.313 0 .586.062.82.188.235.123.417.313.547.57.13.254.197.578.197.972V25.4h-.704v-2.863c0-.364-.095-.646-.284-.845-.187-.2-.446-.301-.778-.301-.231 0-.438.049-.62.146-.182.098-.325.24-.43.427a1.387 1.387 0 0 0-.156.68Zm7.97 2.864a1.85 1.85 0 0 1-.79-.165 1.356 1.356 0 0 1-.564-.48 1.355 1.355 0 0 1-.209-.764c0-.262.052-.475.155-.638.104-.165.242-.294.415-.388.173-.093.364-.163.573-.208.21-.048.422-.086.635-.114.278-.036.504-.062.677-.08.175-.02.302-.053.382-.099.081-.046.122-.125.122-.238v-.024c0-.295-.08-.523-.241-.686-.16-.163-.401-.245-.725-.245-.336 0-.6.074-.79.22a1.312 1.312 0 0 0-.404.472l-.668-.239c.12-.278.279-.495.478-.65.2-.157.42-.266.656-.328.239-.064.473-.095.704-.095.147 0 .316.017.507.053.193.034.379.105.558.212.18.107.33.27.45.486.12.217.18.507.18.871v3.02h-.705v-.621h-.036c-.047.1-.127.205-.238.319a1.4 1.4 0 0 1-.445.29 1.72 1.72 0 0 1-.677.119Zm.108-.633c.278 0 .513-.055.703-.164a1.117 1.117 0 0 0 .585-.97v-.644c-.03.036-.095.069-.197.099a3.59 3.59 0 0 1-.346.074 16.158 16.158 0 0 1-.674.09 2.684 2.684 0 0 0-.513.116.884.884 0 0 0-.382.236.6.6 0 0 0-.143.423c0 .245.09.43.271.555.184.123.415.185.696.185Zm7.501.62c-.43 0-.8-.1-1.11-.304a1.983 1.983 0 0 1-.716-.838 2.84 2.84 0 0 1-.25-1.22c0-.465.085-.876.256-1.232a2.03 2.03 0 0 1 .722-.838c.31-.203.672-.304 1.086-.304.322 0 .612.06.871.179s.47.286.635.5c.166.216.268.466.308.752h-.704a1.091 1.091 0 0 0-.358-.554c-.183-.163-.43-.245-.74-.245-.275 0-.515.072-.722.215a1.4 1.4 0 0 0-.48.6c-.114.256-.17.557-.17.903 0 .354.056.662.167.925.113.262.272.466.477.611.207.146.45.218.728.218.183 0 .349-.032.498-.095a1.027 1.027 0 0 0 .6-.704h.704a1.63 1.63 0 0 1-.913 1.244 1.99 1.99 0 0 1-.889.188Zm3.535-6.204v6.11h-.704v-6.11h.704Zm3.21 6.204c-.441 0-.822-.097-1.142-.292a1.962 1.962 0 0 1-.737-.823c-.171-.354-.257-.766-.257-1.235 0-.47.086-.883.257-1.24.173-.36.413-.641.722-.842.31-.203.672-.304 1.086-.304.238 0 .474.04.706.119.233.08.445.209.636.388.19.177.343.411.456.704.114.292.17.652.17 1.08v.298h-3.532v-.609h2.816c0-.258-.051-.489-.155-.692a1.168 1.168 0 0 0-.435-.48 1.22 1.22 0 0 0-.662-.176c-.28 0-.523.07-.728.209a1.374 1.374 0 0 0-.469.537c-.109.22-.164.457-.164.71v.405c0 .346.06.64.18.88.12.239.289.42.503.546.215.123.465.185.75.185.184 0 .351-.026.5-.077.151-.054.282-.134.391-.239.11-.107.194-.24.254-.4l.68.191a1.52 1.52 0 0 1-.361.609 1.76 1.76 0 0 1-.627.405 2.325 2.325 0 0 1-.838.143Zm4.317.013c-.29 0-.554-.055-.791-.165a1.356 1.356 0 0 1-.564-.48 1.355 1.355 0 0 1-.209-.764c0-.262.052-.475.156-.638.103-.165.241-.294.414-.388.173-.093.364-.163.573-.208.21-.048.422-.086.635-.114.279-.036.504-.062.677-.08.175-.02.303-.053.382-.099.082-.046.123-.125.123-.238v-.024c0-.295-.081-.523-.242-.686-.16-.163-.4-.245-.725-.245-.336 0-.6.074-.79.22a1.304 1.304 0 0 0-.403.472l-.668-.239a1.6 1.6 0 0 1 .477-.65c.2-.157.42-.266.656-.328.239-.064.474-.095.704-.095.147 0 .316.017.507.053.193.034.38.105.558.212.181.107.331.27.45.486.12.217.18.507.18.871v3.02h-.704v-.621h-.036c-.048.1-.128.205-.239.319-.111.113-.26.21-.444.29a1.724 1.724 0 0 1-.677.119Zm.107-.633c.278 0 .513-.055.704-.164a1.117 1.117 0 0 0 .585-.97v-.644c-.03.036-.096.069-.197.099-.1.027-.215.052-.346.074a16.083 16.083 0 0 1-.675.09 2.684 2.684 0 0 0-.513.116.884.884 0 0 0-.381.236.6.6 0 0 0-.144.423c0 .245.09.43.272.555.183.123.415.185.695.185Zm3.277.525v-4.582h.68v.692h.048a1.1 1.1 0 0 1 .454-.552c.218-.14.465-.211.74-.211a7.754 7.754 0 0 1 .37.012v.715a2.116 2.116 0 0 0-.165-.026 1.618 1.618 0 0 0-.265-.021c-.223 0-.422.047-.597.14a1.03 1.03 0 0 0-.56.934v2.9h-.705Zm8.734-3.556-.633.18a1.143 1.143 0 0 0-.176-.308.85.85 0 0 0-.31-.25 1.125 1.125 0 0 0-.504-.099c-.28 0-.514.065-.701.194-.185.127-.277.29-.277.486 0 .175.063.313.19.415.128.101.327.186.597.253l.68.168c.41.099.715.251.916.456.201.203.301.464.301.784 0 .263-.075.497-.226.704-.15.207-.358.37-.627.49a2.293 2.293 0 0 1-.937.178c-.467 0-.854-.1-1.16-.304-.306-.203-.5-.499-.582-.889l.669-.167a.93.93 0 0 0 .36.555c.18.123.413.185.702.185.328 0 .588-.07.781-.209.195-.14.292-.31.292-.507a.53.53 0 0 0-.167-.4c-.111-.109-.282-.19-.513-.244l-.763-.18c-.42-.099-.728-.253-.925-.462a1.12 1.12 0 0 1-.292-.79c0-.258.072-.487.217-.686.148-.199.347-.355.6-.468.254-.114.543-.17.865-.17.453 0 .809.099 1.068.298.26.199.445.461.555.787Zm3.004 3.651c-.429 0-.799-.1-1.109-.304a1.978 1.978 0 0 1-.716-.838 2.841 2.841 0 0 1-.251-1.22c0-.465.086-.876.257-1.232.173-.358.413-.637.722-.838.31-.203.672-.304 1.085-.304.323 0 .613.06.871.179.259.119.471.286.636.5.165.216.267.466.307.752h-.704a1.093 1.093 0 0 0-.358-.554c-.183-.163-.429-.245-.74-.245a1.24 1.24 0 0 0-.722.215 1.41 1.41 0 0 0-.48.6c-.113.256-.17.557-.17.903 0 .354.056.662.167.925.114.262.273.466.477.611.207.146.45.218.728.218.183 0 .349-.032.498-.095a1.018 1.018 0 0 0 .6-.704h.704a1.63 1.63 0 0 1-.295.73 1.648 1.648 0 0 1-.618.514 1.988 1.988 0 0 1-.889.188Zm4.693 0c-.414 0-.777-.098-1.089-.295a2.008 2.008 0 0 1-.728-.826c-.173-.354-.26-.768-.26-1.241 0-.477.087-.894.26-1.25.175-.356.418-.632.728-.83a1.998 1.998 0 0 1 1.089-.294c.413 0 .775.098 1.085.295.313.197.555.473.728.83.175.355.263.772.263 1.249 0 .473-.088.887-.263 1.241-.173.354-.415.63-.728.826a1.98 1.98 0 0 1-1.085.296Zm0-.632c.314 0 .572-.08.775-.241.203-.162.353-.373.451-.636a2.44 2.44 0 0 0 .146-.853c0-.306-.049-.592-.146-.856a1.448 1.448 0 0 0-.451-.641c-.203-.163-.461-.245-.775-.245-.315 0-.573.082-.776.245a1.438 1.438 0 0 0-.45.64c-.098.265-.147.55-.147.857 0 .306.049.59.147.853.097.263.247.474.45.636.203.16.461.241.776.241Zm3.15 2.255v-6.3h.68v.728h.084c.052-.08.123-.18.215-.304a1.25 1.25 0 0 1 .399-.334c.175-.1.412-.15.71-.15.386 0 .726.097 1.021.29.294.193.524.466.689.82.165.354.247.772.247 1.253 0 .485-.082.906-.247 1.262a1.95 1.95 0 0 1-.687.823c-.292.193-.629.29-1.011.29-.294 0-.53-.05-.707-.147a1.301 1.301 0 0 1-.408-.337 4.46 4.46 0 0 1-.221-.316h-.06v2.422h-.704Zm.692-4.009c0 .346.051.651.152.916.102.263.25.468.445.617.195.148.433.221.716.221.294 0 .54-.077.737-.232a1.43 1.43 0 0 0 .447-.633 2.49 2.49 0 0 0 .152-.889c0-.322-.05-.612-.149-.87a1.348 1.348 0 0 0-.444-.618c-.197-.153-.445-.23-.743-.23-.287 0-.527.073-.722.218a1.31 1.31 0 0 0-.442.602 2.486 2.486 0 0 0-.149.898Zm6.348 2.386c-.441 0-.822-.097-1.142-.292a1.957 1.957 0 0 1-.737-.823c-.171-.354-.257-.766-.257-1.235 0-.47.086-.883.257-1.24.173-.36.413-.641.722-.842.31-.203.672-.304 1.085-.304.239 0 .475.04.707.119.233.08.445.209.636.388.191.177.343.411.456.704.114.292.17.652.17 1.08v.298h-3.532v-.609h2.816c0-.258-.051-.489-.155-.692a1.164 1.164 0 0 0-.435-.48 1.222 1.222 0 0 0-.663-.176c-.28 0-.523.07-.727.209a1.379 1.379 0 0 0-.469.537c-.109.22-.164.457-.164.71v.405c0 .346.06.64.179.88.122.239.29.42.504.546.215.123.465.185.749.185.185 0 .352-.026.501-.077.151-.054.282-.134.391-.239a1.08 1.08 0 0 0 .253-.4l.681.191a1.52 1.52 0 0 1-.361.609 1.759 1.759 0 0 1-.627.405 2.322 2.322 0 0 1-.838.143Zm6.679.013c-.29 0-.554-.055-.791-.165a1.357 1.357 0 0 1-.563-.48 1.349 1.349 0 0 1-.209-.764c0-.262.052-.475.155-.638.103-.165.242-.294.415-.388a2.16 2.16 0 0 1 .572-.208c.211-.048.423-.086.636-.114.278-.036.504-.062.677-.08.175-.02.302-.053.382-.099.081-.046.122-.125.122-.238v-.024c0-.295-.081-.523-.242-.686-.159-.163-.4-.245-.725-.245-.336 0-.599.074-.79.22a1.31 1.31 0 0 0-.403.472l-.668-.239a1.6 1.6 0 0 1 .477-.65 1.79 1.79 0 0 1 .657-.328c.238-.064.473-.095.704-.095.147 0 .316.017.507.053.193.034.378.105.557.212.181.107.332.27.451.486.119.217.179.507.179.871v3.02h-.704v-.621h-.036c-.048.1-.127.205-.239.319a1.37 1.37 0 0 1-.444.29 1.724 1.724 0 0 1-.677.119Zm.107-.633a1.4 1.4 0 0 0 .704-.164 1.12 1.12 0 0 0 .585-.97v-.644c-.03.036-.096.069-.197.099a3.326 3.326 0 0 1-.346.074 16.172 16.172 0 0 1-.674.09 2.68 2.68 0 0 0-.513.116.883.883 0 0 0-.382.236.602.602 0 0 0-.143.423c0 .245.09.43.271.555.183.123.415.185.695.185Zm3.982-2.231V25.4h-.704v-4.582h.68v.716h.06c.107-.232.27-.42.489-.56.219-.144.501-.215.847-.215.31 0 .582.063.814.19.233.126.414.317.543.573.129.255.194.577.194.967V25.4h-.704v-2.863c0-.36-.093-.64-.28-.842-.187-.203-.444-.304-.77-.304a1.23 1.23 0 0 0-.602.146c-.175.098-.314.24-.415.427a1.402 1.402 0 0 0-.152.68Zm5.94 2.851c-.382 0-.719-.096-1.012-.289a1.956 1.956 0 0 1-.686-.823c-.165-.356-.247-.777-.247-1.262 0-.481.082-.899.247-1.253.165-.354.395-.627.689-.82.295-.193.635-.29 1.021-.29.298 0 .533.05.706.15.175.097.309.209.4.334.094.123.166.225.218.304h.06v-2.255h.704v6.11h-.681v-.705h-.083a4.46 4.46 0 0 1-.221.316 1.301 1.301 0 0 1-.408.337c-.177.098-.413.146-.707.146Zm.095-.632c.282 0 .521-.073.716-.22.195-.15.343-.355.444-.618.102-.264.153-.57.153-.916 0-.342-.05-.641-.15-.898a1.302 1.302 0 0 0-.441-.602 1.176 1.176 0 0 0-.722-.218c-.298 0-.547.077-.746.23a1.37 1.37 0 0 0-.444.617 2.442 2.442 0 0 0-.146.871c0 .326.049.623.149.89.101.264.25.474.447.632.199.155.446.232.74.232Zm6.458-5.572v6.11h-.704v-6.11h.704Zm3.151 6.204c-.414 0-.777-.098-1.089-.295a2.008 2.008 0 0 1-.728-.826c-.173-.354-.259-.768-.259-1.241 0-.477.086-.894.259-1.25.175-.356.418-.632.728-.83a1.998 1.998 0 0 1 1.089-.294c.414 0 .775.098 1.086.295.312.197.555.473.728.83.175.355.262.772.262 1.249 0 .473-.087.887-.262 1.241a1.98 1.98 0 0 1-.728.826 1.984 1.984 0 0 1-1.086.296Zm0-.632c.314 0 .573-.08.775-.241.203-.162.353-.373.451-.636a2.44 2.44 0 0 0 .146-.853c0-.306-.049-.592-.146-.856a1.448 1.448 0 0 0-.451-.641c-.202-.163-.461-.245-.775-.245s-.573.082-.776.245a1.438 1.438 0 0 0-.45.64c-.098.265-.146.55-.146.857 0 .306.048.59.146.853.097.263.247.474.45.636.203.16.462.241.776.241Zm4.033.537-1.396-4.582h.74l.99 3.508h.048l.978-3.508h.752l.966 3.496h.048l.99-3.496h.74l-1.396 4.582h-.692l-1.002-3.52h-.072l-1.002 3.52h-.692Zm8.149 0v-4.582h.68v.692h.048c.084-.226.235-.41.453-.552.219-.14.466-.211.74-.211a7.706 7.706 0 0 1 .37.012v.715a2.08 2.08 0 0 0-.164-.026 1.61 1.61 0 0 0-.265-.021c-.223 0-.422.047-.597.14a1.033 1.033 0 0 0-.561.934v2.9h-.704Zm3.126 0v-4.582h.704V25.4h-.704Zm.358-5.345a.498.498 0 0 1-.355-.14.449.449 0 0 1-.147-.338.45.45 0 0 1 .147-.337.498.498 0 0 1 .355-.14c.137 0 .254.047.352.14a.448.448 0 0 1 .149.337c0 .132-.05.244-.149.337a.491.491 0 0 1-.352.14Zm4.88 1.789-.632.18a1.17 1.17 0 0 0-.176-.308.85.85 0 0 0-.31-.25 1.125 1.125 0 0 0-.504-.099c-.281 0-.514.065-.701.194-.185.127-.278.29-.278.486 0 .175.064.313.191.415.127.101.326.186.597.253l.68.168c.41.099.715.251.916.456.201.203.301.464.301.784 0 .263-.076.497-.227.704a1.51 1.51 0 0 1-.626.49 2.297 2.297 0 0 1-.937.178c-.467 0-.854-.1-1.16-.304-.306-.203-.5-.499-.582-.889l.668-.167c.064.247.184.432.361.555.179.123.413.185.701.185.328 0 .589-.07.782-.209.195-.14.292-.31.292-.507a.534.534 0 0 0-.167-.4c-.111-.109-.282-.19-.513-.244l-.764-.18c-.419-.099-.727-.253-.924-.462a1.12 1.12 0 0 1-.293-.79c0-.258.073-.487.218-.686a1.48 1.48 0 0 1 .6-.468c.254-.114.543-.17.865-.17.453 0 .809.099 1.068.298.26.199.445.461.554.787Zm1.8 1.886-.012-.871h.143l2.005-2.04h.871l-2.136 2.159h-.06l-.811.752Zm-.656 1.67v-6.109h.704v6.11h-.704Zm2.911 0-1.79-2.267.501-.49 2.184 2.757h-.895Zm5.882.095c-.414 0-.777-.098-1.089-.295a2.008 2.008 0 0 1-.728-.826c-.173-.354-.259-.768-.259-1.241 0-.477.086-.894.259-1.25.175-.356.418-.632.728-.83a1.998 1.998 0 0 1 1.089-.294c.413 0 .775.098 1.085.295.313.197.555.473.728.83.175.355.263.772.263 1.249 0 .473-.088.887-.263 1.241-.173.354-.415.63-.728.826a1.98 1.98 0 0 1-1.085.296Zm0-.632c.314 0 .572-.08.775-.241.203-.162.353-.373.451-.636a2.44 2.44 0 0 0 .146-.853c0-.306-.049-.592-.146-.856a1.448 1.448 0 0 0-.451-.641c-.203-.163-.461-.245-.775-.245-.315 0-.573.082-.776.245a1.438 1.438 0 0 0-.45.64c-.098.265-.146.55-.146.857 0 .306.048.59.146.853.097.263.247.474.45.636.203.16.461.241.776.241Zm5.191-4.045v.597h-2.47v-.597h2.47Zm-1.73 4.582v-5.214c0-.263.061-.481.185-.656a1.14 1.14 0 0 1 .48-.394 1.52 1.52 0 0 1 .623-.131 1.61 1.61 0 0 1 .668.12l-.202.608a3.398 3.398 0 0 0-.15-.045.899.899 0 0 0-.244-.027c-.233 0-.401.059-.504.176-.102.117-.152.29-.152.516V25.4h-.704Zm5.783-6.109v6.11h-.704v-6.11h.704Zm2.638 6.217c-.291 0-.554-.055-.791-.165a1.353 1.353 0 0 1-.564-.48 1.356 1.356 0 0 1-.209-.764c0-.262.052-.475.156-.638a1.09 1.09 0 0 1 .414-.388c.173-.093.364-.163.573-.208.211-.048.423-.086.635-.114.279-.036.504-.062.677-.08.175-.02.303-.053.382-.099.082-.046.123-.125.123-.238v-.024c0-.295-.081-.523-.242-.686-.159-.163-.401-.245-.725-.245-.336 0-.6.074-.79.22a1.3 1.3 0 0 0-.403.472l-.668-.239a1.6 1.6 0 0 1 .477-.65 1.8 1.8 0 0 1 .656-.328c.239-.064.474-.095.704-.095.147 0 .316.017.507.053.193.034.379.105.558.212.181.107.331.27.451.486.119.217.179.507.179.871v3.02h-.704v-.621h-.036c-.048.1-.128.205-.239.319a1.37 1.37 0 0 1-.444.29 1.724 1.724 0 0 1-.677.119Zm.107-.633c.278 0 .513-.055.704-.164a1.115 1.115 0 0 0 .585-.969v-.645c-.03.036-.096.069-.197.099-.1.027-.215.052-.346.074a16.96 16.96 0 0 1-.674.09 2.709 2.709 0 0 0-.514.116.88.88 0 0 0-.381.236.598.598 0 0 0-.144.423c0 .245.091.43.272.555.183.123.415.185.695.185Zm5.27-4.057v.597h-2.374v-.597h2.374Zm-1.682-1.098h.704v4.368c0 .198.028.348.086.447.06.098.135.163.227.197a.908.908 0 0 0 .295.048 1.243 1.243 0 0 0 .31-.036l.144.632a1.473 1.473 0 0 1-.525.084c-.199 0-.394-.043-.585-.129a1.158 1.158 0 0 1-.471-.39c-.124-.175-.185-.396-.185-.662V19.72Zm4.613 5.775c-.442 0-.822-.097-1.143-.292a1.962 1.962 0 0 1-.736-.823c-.171-.354-.257-.766-.257-1.235 0-.47.086-.883.257-1.24.173-.36.413-.641.721-.842a1.942 1.942 0 0 1 1.086-.304c.239 0 .475.04.707.119.233.08.445.209.636.388.19.177.343.411.456.704.113.292.17.652.17 1.08v.298h-3.532v-.609h2.816a1.51 1.51 0 0 0-.155-.692 1.166 1.166 0 0 0-.436-.48 1.218 1.218 0 0 0-.662-.176c-.28 0-.523.07-.728.209a1.376 1.376 0 0 0-.468.537c-.109.22-.164.457-.164.71v.405c0 .346.06.64.179.88.121.239.289.42.504.546.215.123.464.185.749.185.185 0 .352-.026.501-.077a1.08 1.08 0 0 0 .391-.239 1.08 1.08 0 0 0 .253-.4l.68.191c-.071.23-.192.434-.361.609a1.755 1.755 0 0 1-.626.405 2.326 2.326 0 0 1-.838.143Zm-194.047 10c-.43 0-.8-.1-1.11-.304a1.984 1.984 0 0 1-.716-.838 2.84 2.84 0 0 1-.25-1.22c0-.465.085-.876.256-1.232a2.03 2.03 0 0 1 .722-.838c.31-.203.672-.304 1.086-.304.322 0 .612.06.87.179.26.119.471.286.636.5.165.216.268.466.307.752h-.704a1.092 1.092 0 0 0-.358-.554c-.183-.163-.43-.245-.74-.245-.274 0-.514.072-.721.215a1.399 1.399 0 0 0-.48.6c-.114.256-.17.557-.17.903 0 .354.055.662.167.925.113.262.272.466.477.611.207.146.45.218.728.218.183 0 .349-.032.498-.095a1.027 1.027 0 0 0 .6-.704h.703a1.631 1.631 0 0 1-.912 1.244 1.99 1.99 0 0 1-.89.188Zm3.534-2.851V35.4h-.704v-6.109h.704v2.243h.06c.107-.236.269-.424.483-.564.217-.14.505-.211.865-.211.313 0 .586.062.82.188.235.123.417.313.547.57.13.254.196.578.196.972V35.4h-.704v-2.864c0-.364-.094-.645-.283-.844-.187-.2-.446-.301-.778-.301-.231 0-.438.049-.62.146-.182.098-.325.24-.43.427a1.387 1.387 0 0 0-.156.68Zm5.608 2.864a1.85 1.85 0 0 1-.79-.165 1.356 1.356 0 0 1-.565-.48 1.355 1.355 0 0 1-.208-.764c0-.262.051-.475.155-.638.103-.165.241-.294.414-.388.173-.093.364-.163.573-.208.21-.048.423-.086.635-.114.279-.036.505-.062.678-.08.175-.02.302-.053.381-.099.082-.046.123-.125.123-.238v-.024c0-.295-.08-.523-.242-.686-.159-.163-.4-.245-.725-.245-.336 0-.6.074-.79.22a1.319 1.319 0 0 0-.403.472l-.668-.238c.12-.279.278-.496.477-.65.201-.158.42-.267.656-.329.239-.064.474-.095.704-.095.147 0 .316.017.507.053.193.034.38.105.558.212.181.107.331.27.45.486.12.217.18.507.18.871v3.02h-.704v-.621h-.036c-.048.1-.127.206-.239.319-.111.113-.26.21-.444.29-.185.079-.41.118-.677.118Zm.107-.633c.278 0 .513-.055.704-.164a1.116 1.116 0 0 0 .585-.97v-.644c-.03.036-.096.069-.197.099-.1.028-.215.052-.346.074a16.713 16.713 0 0 1-.674.09 2.684 2.684 0 0 0-.513.116.885.885 0 0 0-.382.236.6.6 0 0 0-.143.423c0 .245.09.43.271.555.183.123.415.185.695.185Zm3.981-2.231V35.4h-.703v-4.582h.68v.716h.06c.107-.232.27-.42.489-.56.218-.144.5-.215.847-.215.31 0 .581.063.814.19.233.126.414.317.543.573.13.255.194.577.194.967V35.4h-.704v-2.864c0-.36-.094-.64-.28-.84-.188-.204-.444-.305-.77-.305-.225 0-.426.049-.603.146-.175.098-.313.24-.414.427a1.408 1.408 0 0 0-.152.68Zm6.06 4.57a2.61 2.61 0 0 1-.877-.131 1.86 1.86 0 0 1-.612-.34 1.858 1.858 0 0 1-.385-.448l.561-.394c.064.084.144.18.242.287.097.109.23.203.4.283.17.082.394.122.67.122.37 0 .676-.09.916-.268.241-.18.361-.46.361-.841v-.931h-.06a3.788 3.788 0 0 1-.22.31c-.094.121-.229.23-.406.325-.175.094-.411.14-.71.14a1.91 1.91 0 0 1-.996-.262 1.841 1.841 0 0 1-.695-.764c-.169-.334-.253-.74-.253-1.217 0-.469.082-.878.247-1.226.165-.35.395-.62.69-.811.293-.193.633-.29 1.02-.29.298 0 .534.05.71.15.176.097.311.209.405.334.095.123.169.225.22.304h.072v-.728h.68v4.713c0 .394-.09.714-.268.96-.177.25-.416.431-.716.547a2.7 2.7 0 0 1-.996.176Zm-.024-2.518c.282 0 .52-.064.716-.194.195-.129.343-.315.444-.558.102-.242.152-.533.152-.87 0-.33-.05-.622-.149-.875-.1-.252-.246-.45-.441-.593a1.186 1.186 0 0 0-.722-.215c-.298 0-.547.076-.746.227a1.38 1.38 0 0 0-.444.608 2.354 2.354 0 0 0-.147.847c0 .319.05.6.15.845.101.242.25.433.447.572.199.137.445.206.74.206Zm5.214.799c-.442 0-.822-.097-1.143-.292a1.963 1.963 0 0 1-.736-.823c-.171-.354-.257-.766-.257-1.235 0-.47.086-.883.257-1.24.173-.36.413-.641.722-.842.31-.203.672-.304 1.085-.304.239 0 .475.04.707.119.233.08.445.209.636.388.19.177.343.411.456.704.113.292.17.652.17 1.08v.298h-3.532v-.609h2.816a1.51 1.51 0 0 0-.155-.692 1.168 1.168 0 0 0-.435-.48 1.22 1.22 0 0 0-.663-.176c-.28 0-.523.07-.727.209a1.373 1.373 0 0 0-.469.537c-.11.22-.164.457-.164.71v.405c0 .346.06.64.18.88.12.239.288.42.503.546.215.123.465.185.749.185.185 0 .352-.026.501-.077a1.07 1.07 0 0 0 .39-.239c.11-.107.195-.24.255-.4l.68.191a1.52 1.52 0 0 1-.361.609 1.76 1.76 0 0 1-.627.405 2.325 2.325 0 0 1-.838.144Zm6.214-3.651-.633.18a1.176 1.176 0 0 0-.176-.308.854.854 0 0 0-.31-.25 1.127 1.127 0 0 0-.504-.099c-.28 0-.514.065-.701.194-.185.127-.278.29-.278.486 0 .175.064.314.191.415.127.101.326.186.597.253l.68.167c.41.1.715.252.916.457.2.203.301.464.301.784 0 .263-.075.498-.227.704a1.51 1.51 0 0 1-.626.49c-.269.119-.58.178-.937.178-.467 0-.854-.1-1.16-.304-.306-.203-.5-.499-.582-.889l.668-.167a.929.929 0 0 0 .361.555c.18.123.413.185.701.185.328 0 .589-.07.782-.209.195-.14.292-.31.292-.507a.533.533 0 0 0-.167-.4c-.111-.109-.282-.19-.513-.244l-.764-.18c-.42-.099-.727-.253-.924-.462a1.12 1.12 0 0 1-.293-.79c0-.258.073-.487.218-.686.147-.199.347-.355.6-.468.254-.114.543-.17.865-.17.453 0 .81.099 1.068.298.26.199.445.461.554.787Zm5.367 3.651c-.414 0-.777-.098-1.09-.295a2.006 2.006 0 0 1-.727-.826c-.173-.354-.26-.768-.26-1.241 0-.477.087-.894.26-1.25.175-.356.418-.632.728-.83a1.998 1.998 0 0 1 1.089-.294c.413 0 .775.098 1.085.295.313.197.555.473.728.83.175.355.263.772.263 1.249 0 .473-.088.887-.263 1.241-.173.354-.415.63-.728.826a1.98 1.98 0 0 1-1.085.295Zm0-.632c.314 0 .572-.08.775-.242a1.41 1.41 0 0 0 .45-.635c.098-.262.147-.547.147-.853 0-.306-.049-.592-.146-.856a1.444 1.444 0 0 0-.45-.641c-.204-.163-.462-.245-.776-.245-.315 0-.573.082-.776.245a1.443 1.443 0 0 0-.45.64c-.098.265-.147.55-.147.857 0 .306.05.59.147.853.097.263.247.475.45.636.203.16.461.241.776.241Zm3.15.537v-4.582h.68v.692h.048a1.1 1.1 0 0 1 .454-.552c.218-.14.465-.211.74-.211a7.747 7.747 0 0 1 .37.012v.715a2.107 2.107 0 0 0-.165-.026 1.616 1.616 0 0 0-.265-.021c-.223 0-.422.047-.597.14a1.03 1.03 0 0 0-.56.934v2.9h-.705Zm6.193-2.756V35.4h-.705v-6.109h.704v2.243h.06a1.3 1.3 0 0 1 .483-.564c.217-.14.505-.211.865-.211.312 0 .586.062.82.188.235.123.417.313.546.57.132.254.197.578.197.972V35.4h-.704v-2.864c0-.364-.094-.645-.283-.844-.187-.2-.447-.301-.779-.301-.23 0-.437.049-.62.146-.181.098-.324.24-.43.427a1.387 1.387 0 0 0-.155.68Zm4.258 2.756v-4.582h.704V35.4h-.704Zm.358-5.345a.5.5 0 0 1-.355-.14.45.45 0 0 1-.146-.338.45.45 0 0 1 .146-.337.5.5 0 0 1 .355-.14.49.49 0 0 1 .352.14c.1.094.15.206.15.337 0 .132-.05.244-.15.337a.49.49 0 0 1-.352.14Zm3.484 7.159a2.61 2.61 0 0 1-.876-.131 1.86 1.86 0 0 1-.612-.34 1.86 1.86 0 0 1-.384-.448l.56-.394c.064.084.145.18.242.287.098.109.23.203.4.283.17.082.394.122.67.122.37 0 .676-.09.917-.268.24-.18.36-.46.36-.841v-.931h-.06a3.764 3.764 0 0 1-.22.31c-.093.121-.228.23-.405.325-.175.094-.412.14-.71.14-.37 0-.702-.087-.997-.262a1.842 1.842 0 0 1-.695-.764c-.169-.334-.253-.74-.253-1.217 0-.469.082-.878.247-1.226.165-.35.395-.62.69-.811.294-.193.634-.29 1.02-.29.298 0 .534.05.71.15.176.097.312.209.405.334.096.123.17.225.22.304h.073v-.728h.68v4.713c0 .394-.09.714-.269.96-.177.25-.416.431-.716.547a2.7 2.7 0 0 1-.996.176Zm-.023-2.518c.282 0 .521-.064.716-.194.195-.129.343-.315.444-.558.102-.242.153-.533.153-.87 0-.33-.05-.622-.15-.875a1.31 1.31 0 0 0-.441-.593 1.186 1.186 0 0 0-.722-.215c-.298 0-.547.076-.746.227a1.38 1.38 0 0 0-.444.608 2.354 2.354 0 0 0-.146.847c0 .319.05.6.149.845.101.242.25.433.447.572.2.137.446.206.74.206Zm3.997-2.052V35.4h-.704v-6.109h.704v2.243h.06a1.3 1.3 0 0 1 .483-.564c.217-.14.505-.211.865-.211.312 0 .586.062.82.188.235.123.417.313.546.57.132.254.197.578.197.972V35.4h-.704v-2.864c0-.364-.094-.645-.283-.844-.187-.2-.447-.301-.779-.301-.23 0-.437.049-.62.146-.181.098-.324.24-.43.427a1.387 1.387 0 0 0-.155.68Zm7.326 0V35.4h-.704v-4.582h.68v.716h.06c.107-.232.27-.42.489-.56.218-.144.5-.215.847-.215.31 0 .581.063.814.19.233.126.414.317.543.573.13.255.194.577.194.967V35.4h-.704v-2.864c0-.36-.094-.64-.28-.84-.187-.204-.444-.305-.77-.305-.225 0-.426.049-.603.146-.175.098-.313.24-.414.427a1.41 1.41 0 0 0-.152.68Zm7.097.883v-2.709h.704V35.4h-.704v-.776h-.048a1.496 1.496 0 0 1-.501.594c-.227.161-.513.242-.86.242a1.53 1.53 0 0 1-.763-.188 1.315 1.315 0 0 1-.525-.573c-.127-.256-.19-.58-.19-.97v-2.91h.703v2.863c0 .334.094.6.28.8.19.198.43.298.722.298.175 0 .354-.045.535-.135.182-.09.336-.226.459-.411.125-.185.188-.42.188-.707ZM76.4 35.4v-4.582h.68v.716h.06c.095-.244.25-.434.462-.57.213-.137.469-.205.767-.205.302 0 .554.068.755.205.202.136.36.326.474.57h.048a1.34 1.34 0 0 1 .528-.564c.234-.14.516-.211.844-.211.41 0 .745.128 1.005.384.26.255.39.652.39 1.19V35.4h-.703v-3.066c0-.339-.093-.58-.278-.725a1.027 1.027 0 0 0-.653-.218c-.322 0-.572.097-.749.292a1.043 1.043 0 0 0-.265.734V35.4h-.716v-3.138c0-.26-.085-.47-.254-.63a.908.908 0 0 0-.653-.241.965.965 0 0 0-.513.146 1.103 1.103 0 0 0-.382.406 1.198 1.198 0 0 0-.143.593V35.4H76.4Zm7.396 0v-6.109h.704v2.255h.06a6.24 6.24 0 0 1 .215-.304c.093-.125.226-.237.4-.334.175-.1.411-.15.71-.15.385 0 .725.097 1.02.29.294.193.524.466.689.82.165.354.247.772.247 1.253 0 .485-.082.906-.247 1.262a1.954 1.954 0 0 1-.686.823c-.293.193-.63.29-1.012.29-.294 0-.53-.05-.707-.147a1.31 1.31 0 0 1-.408-.337 4.541 4.541 0 0 1-.221-.316h-.084v.704h-.68Zm.692-2.29c0 .345.051.65.153.915.101.263.25.468.444.617.195.148.434.221.716.221.294 0 .54-.077.737-.233.199-.157.348-.367.447-.632.102-.266.152-.563.152-.889 0-.322-.05-.612-.149-.87a1.345 1.345 0 0 0-.444-.618c-.197-.153-.445-.23-.743-.23-.286 0-.527.073-.722.218a1.307 1.307 0 0 0-.441.602c-.1.257-.15.556-.15.898Zm6.352 2.385c-.442 0-.823-.097-1.143-.292a1.962 1.962 0 0 1-.737-.823c-.171-.354-.257-.766-.257-1.235 0-.47.086-.883.257-1.24.173-.36.414-.641.722-.842.31-.203.672-.304 1.085-.304.24 0 .475.04.708.119.232.08.444.209.635.388.19.177.343.411.456.704.114.292.17.652.17 1.08v.298h-3.532v-.609h2.816c0-.258-.051-.489-.155-.692a1.17 1.17 0 0 0-.435-.48 1.22 1.22 0 0 0-.663-.176c-.28 0-.522.07-.727.209a1.373 1.373 0 0 0-.469.537c-.109.22-.164.457-.164.71v.405c0 .346.06.64.18.88.12.239.289.42.503.546.215.123.465.185.75.185.184 0 .351-.026.5-.077.151-.054.282-.134.391-.239.11-.107.194-.24.254-.4l.68.191a1.52 1.52 0 0 1-.361.609 1.76 1.76 0 0 1-.627.405 2.324 2.324 0 0 1-.838.144Zm2.967-.095v-4.582h.68v.692h.048a1.1 1.1 0 0 1 .453-.552c.22-.14.466-.211.74-.211a7.76 7.76 0 0 1 .37.012v.715a2.122 2.122 0 0 0-.164-.026 1.616 1.616 0 0 0-.266-.021c-.222 0-.421.047-.596.14a1.03 1.03 0 0 0-.56.934v2.9h-.705Zm7.349.095c-.413 0-.776-.098-1.088-.295a2.004 2.004 0 0 1-.728-.826c-.173-.354-.26-.768-.26-1.241 0-.477.087-.894.26-1.25a2 2 0 0 1 .728-.83 1.997 1.997 0 0 1 1.088-.294c.414 0 .776.098 1.086.295.312.197.555.473.728.83.175.355.263.772.263 1.249 0 .473-.088.887-.263 1.241a1.98 1.98 0 0 1-.728.826 1.98 1.98 0 0 1-1.086.295Zm0-.632c.315 0 .573-.08.776-.242a1.41 1.41 0 0 0 .45-.635 2.42 2.42 0 0 0 .147-.853c0-.306-.049-.592-.147-.856a1.438 1.438 0 0 0-.45-.641c-.203-.163-.461-.245-.776-.245-.314 0-.572.082-.775.245a1.444 1.444 0 0 0-.45.64c-.098.265-.147.55-.147.857 0 .306.049.59.146.853.098.263.248.475.451.636.203.16.461.241.775.241Zm5.192-4.045v.597h-2.47v-.597h2.47Zm-1.731 4.582v-5.214c0-.263.062-.481.185-.656.124-.175.284-.307.481-.394.196-.088.404-.131.623-.131a1.61 1.61 0 0 1 .668.12l-.203.608a2.929 2.929 0 0 0-.149-.045.899.899 0 0 0-.244-.027c-.233 0-.401.059-.504.176-.102.117-.153.29-.153.516V35.4h-.704Zm5.08 0v-4.582h.68v.692h.047a1.11 1.11 0 0 1 .454-.552c.219-.14.465-.211.74-.211a7.844 7.844 0 0 1 .37.012v.715a2.139 2.139 0 0 0-.165-.026 1.61 1.61 0 0 0-.265-.021c-.223 0-.422.047-.597.14a1.024 1.024 0 0 0-.56.934v2.9h-.704Zm4.907.095c-.442 0-.823-.097-1.143-.292a1.964 1.964 0 0 1-.737-.823c-.171-.354-.256-.766-.256-1.235 0-.47.085-.883.256-1.24.173-.36.414-.641.722-.842.31-.203.672-.304 1.086-.304.239 0 .474.04.707.119.233.08.444.209.635.388.191.177.343.411.457.704.113.292.17.652.17 1.08v.298h-3.532v-.609h2.816a1.51 1.51 0 0 0-.155-.692 1.173 1.173 0 0 0-1.098-.656c-.28 0-.523.07-.728.209a1.369 1.369 0 0 0-.468.537 1.57 1.57 0 0 0-.164.71v.405c0 .346.059.64.179.88.121.239.289.42.504.546.215.123.464.185.749.185.185 0 .352-.026.501-.077.151-.054.281-.134.39-.239.11-.107.194-.24.254-.4l.68.191c-.071.23-.192.434-.361.609a1.763 1.763 0 0 1-.626.405 2.326 2.326 0 0 1-.838.144Zm6.575-4.677-1.695 4.582h-.715l-1.695-4.582h.764l1.265 3.651h.047l1.265-3.65h.764Zm.929 4.582v-4.582h.704V35.4h-.704Zm.358-5.345a.5.5 0 0 1-.355-.14.448.448 0 0 1-.146-.338.45.45 0 0 1 .146-.337.5.5 0 0 1 .355-.14c.137 0 .254.047.352.14a.448.448 0 0 1 .149.337c0 .132-.05.244-.149.337a.491.491 0 0 1-.352.14Zm4.881 1.789-.633.18a1.143 1.143 0 0 0-.176-.308.85.85 0 0 0-.31-.25 1.125 1.125 0 0 0-.504-.099c-.28 0-.514.065-.701.194-.185.127-.277.29-.277.486a.5.5 0 0 0 .191.415c.127.101.326.186.596.253l.68.167c.41.1.715.252.916.457.201.203.301.464.301.784 0 .263-.075.498-.226.704-.15.207-.358.37-.627.49a2.292 2.292 0 0 1-.936.178c-.468 0-.855-.1-1.161-.304-.306-.203-.5-.499-.582-.889l.669-.167a.926.926 0 0 0 .361.555c.179.123.412.185.701.185.328 0 .588-.07.781-.209.195-.14.292-.31.292-.507a.53.53 0 0 0-.167-.4c-.111-.109-.282-.19-.513-.244l-.763-.18c-.42-.099-.728-.253-.925-.462a1.12 1.12 0 0 1-.292-.79c0-.258.072-.487.217-.686.148-.199.347-.355.6-.468.255-.114.543-.17.865-.17.453 0 .809.099 1.068.298.26.199.445.461.555.787Zm1.143 3.556v-4.582h.704V35.4h-.704Zm.358-5.345a.5.5 0 0 1-.355-.14.452.452 0 0 1-.146-.338c0-.13.049-.243.146-.337a.5.5 0 0 1 .355-.14c.137 0 .254.047.352.14a.448.448 0 0 1 .149.337c0 .132-.05.244-.149.337a.491.491 0 0 1-.352.14Zm3.497 5.44c-.414 0-.777-.098-1.089-.295a2.008 2.008 0 0 1-.728-.826c-.173-.354-.259-.768-.259-1.241 0-.477.086-.894.259-1.25.175-.356.418-.632.728-.83a1.998 1.998 0 0 1 1.089-.294c.413 0 .775.098 1.086.295.312.197.554.473.727.83.175.355.263.772.263 1.249 0 .473-.088.887-.263 1.241-.173.354-.415.63-.727.826a1.987 1.987 0 0 1-1.086.295Zm0-.632c.314 0 .572-.08.775-.242.203-.16.353-.372.451-.635a2.44 2.44 0 0 0 .146-.853c0-.306-.049-.592-.146-.856a1.448 1.448 0 0 0-.451-.641c-.203-.163-.461-.245-.775-.245s-.573.082-.776.245a1.438 1.438 0 0 0-.45.64c-.098.265-.146.55-.146.857 0 .306.048.59.146.853.097.263.247.475.45.636.203.16.462.241.776.241Zm3.854-2.219V35.4h-.704v-4.582h.681v.716h.059c.108-.232.271-.42.489-.56.219-.144.502-.215.848-.215.31 0 .581.063.814.19.233.126.414.317.543.573.129.255.194.577.194.967V35.4h-.704v-2.864c0-.36-.094-.64-.281-.84-.187-.204-.443-.305-.769-.305-.225 0-.426.049-.603.146-.175.098-.313.24-.414.427a1.402 1.402 0 0 0-.153.68Zm7.456-.8-.633.18a1.17 1.17 0 0 0-.176-.308.85.85 0 0 0-.31-.25 1.125 1.125 0 0 0-.504-.099c-.281 0-.514.065-.701.194-.185.127-.278.29-.278.486 0 .175.064.314.191.415.128.101.326.186.597.253l.68.167c.41.1.715.252.916.457.201.203.301.464.301.784 0 .263-.075.498-.227.704a1.51 1.51 0 0 1-.626.49 2.293 2.293 0 0 1-.937.178c-.467 0-.854-.1-1.16-.304-.306-.203-.5-.499-.582-.889l.668-.167c.064.247.184.432.361.555.179.123.413.185.701.185.329 0 .589-.07.782-.209.195-.14.292-.31.292-.507a.53.53 0 0 0-.167-.4c-.111-.109-.282-.19-.513-.244l-.763-.18c-.42-.099-.728-.253-.925-.462a1.12 1.12 0 0 1-.293-.79c0-.258.073-.487.218-.686a1.48 1.48 0 0 1 .6-.468c.254-.114.543-.17.865-.17.453 0 .809.099 1.068.298.26.199.445.461.555.787Z" opacity=".6"/><path fill="#000" d="M.122 10.844c-.083-.001-.124-.03-.122-.169l.001-.07c.003-.125.059-.165.17-.191.447-.076.772-.335.778-.682l.138-7.875c.006-.348-.31-.618-.754-.71C.223 1.118.168 1.076.17.95V.88C.173.741.216.714.3.716c.473.008 1.433.066 2.95.093 1 .017 1.627 0 2.866.008.515.01.596.108.59.456l-.033 1.892a.125.125 0 0 1-.127.123l-.111-.002c-.07-.001-.138-.058-.15-.17-.227-1.395-.888-1.783-2.6-1.812l-.444-.008c-.404-.007-.756.223-.762.585L2.416 5.4l1.573.027c.64.012 1.119-.328 1.202-1.134.016-.083.058-.124.183-.122l.07.001c.14.003.166.045.165.129-.01.514-.057.875-.067 1.404-.01.557.027.863.017 1.434-.001.083-.03.125-.169.122l-.07-.001c-.125-.002-.166-.059-.177-.184-.084-.78-.538-1.109-1.164-1.12L2.407 5.93 2.34 9.756c-.006.362.337.646 1.087.729.07.015.11.057.108.182l-.001.07c-.002.14-.045.166-.128.165-.849-.015-1.293-.092-1.794-.101-.5-.009-.92.053-1.49.043Zm6.332.111c-.083-.002-.125-.03-.122-.17v-.069c.003-.125.06-.166.171-.192.308-.078.632-.337.638-.684l.068-3.882c.006-.348-.17-.602-.641-.735-.07-.015-.096-.071-.095-.14l.002-.112c.001-.07.044-.11.114-.137.433-.132 1.164-.537 1.575-.933.056-.055.126-.04.209-.01.096.043.123.1.122.169l-.101 5.8c-.007.362.336.646.67.722.068.015.11.057.107.183l-.001.07c-.002.139-.045.166-.128.164-.431-.007-.875-.085-1.307-.092-.431-.008-.85.055-1.281.047ZM7.833 2.92c-.501-.009-.828-.404-.818-1.003.01-.584.351-.968.852-.959.501.009.814.404.804.988-.01.599-.337.983-.838.974Zm5.227 8.15c-.084-.001-.125-.03-.123-.169l.001-.07c.002-.125.059-.165.17-.191.364-.078.494-.367.265-.775l-.92-1.589-.928 1.39c-.357.536-.14.86.373.966.11.016.166.059.164.184l-.002.07c-.002.139-.044.166-.128.165-.361-.007-.833-.085-1.223-.091-.334-.006-.725.056-1.072.05-.084-.001-.125-.03-.123-.169l.002-.07c.002-.125.044-.166.114-.178.46-.062.897-.36 1.168-.76l1.372-2.035-1.527-2.63c-.216-.365-.56-.635-.85-.696-.07-.015-.11-.058-.109-.183l.002-.07c.002-.139.044-.166.128-.164.431.007.778.083 1.348.093.57.01.99-.052 1.49-.044.084.002.125.03.122.17v.07c-.003.124-.06.165-.171.191-.377.077-.62.379-.349.843l.77 1.35.886-1.321c.285-.427.069-.764-.306-.855-.11-.03-.165-.072-.163-.197l.001-.07c.003-.139.045-.166.128-.165.223.004.695.082 1.084.089.334.006.725-.057.934-.053.083.001.124.03.122.169l-.001.07c-.002.125-.045.166-.115.178-.32.064-.758.363-1.029.762l-1.257 1.87 1.526 2.658c.243.435.669.763.876.836.07.015.11.058.108.183l-.001.07c-.002.139-.045.166-.128.164-.306-.005-.653-.08-1.223-.09-.487-.01-.906.053-1.407.044Zm5.838.31c-1.559-.026-2.924-1.525-2.886-3.738.042-2.407 1.497-3.592 2.93-3.567 1.516.026 2.416 1.128 2.395 2.31-.01.53-.177.568-.47.563l-3.477-.06-.006.333c-.037 2.115.959 3.26 2.072 3.279.64.011 1.104-.26 1.516-.753.071-.082.155-.095.223-.038l.055.043c.069.057.096.127.052.21-.517.937-1.416 1.436-2.404 1.419ZM17.44 6.4l1.433.026c.848.015 1.103-.19 1.112-.718.011-.64-.467-1.15-1.08-1.16-.695-.013-1.275.506-1.465 1.853Zm9.05-4.183c.007-.348-.198-.602-.64-.735-.07-.015-.097-.072-.096-.141l.002-.111a.135.135 0 0 1 .114-.138c.67-.127 1.105-.3 1.513-.558A.19.19 0 0 1 27.55.51l.07.03c.068.028.095.085.094.154L27.56 9.5c-.01.57.167.824.638.958.069.015.096.07.095.14l-.002.112a.135.135 0 0 1-.114.137c-.474.047-1.188.285-1.485.559-.07.054-.127.067-.237.023-.097-.043-.124-.1-.122-.169l.014-.849c-.542.742-1.174 1.08-1.925 1.066-1.489-.026-2.69-1.397-2.65-3.706.043-2.421 1.47-3.62 3.07-3.593.668.012 1.179.215 1.605.543l.043-2.504Zm-3.348 5.258c-.034 1.934.57 3.197 1.642 3.215.64.011 1.262-.548 1.525-1.253l.056-3.228c-.247-1.02-.878-1.505-1.574-1.517-.877-.015-1.614.765-1.65 2.783Zm5.805-.929c-.195-.003-.304-.117-.3-.311l.003-.223c.004-.195.117-.304.312-.3l3.534.06c.194.004.304.118.3.312l-.004.223c-.003.195-.116.304-.31.3l-3.535-.061Zm7.598 5.143c-.57-.01-1.041-.143-1.565-.445l-.037 2.115c-.006.362.337.646.809.724.069.015.11.057.108.183l-.002.07c-.002.138-.044.165-.128.164-.57-.01-1.014-.087-1.418-.094-.403-.007-.822.055-1.253.047-.084-.001-.125-.03-.122-.169v-.07c.003-.125.06-.165.171-.191.308-.078.632-.337.639-.685l.123-7.054c.006-.348-.17-.601-.642-.735-.069-.015-.096-.071-.095-.14l.002-.112a.135.135 0 0 1 .114-.137c.614-.115 1.22-.508 1.517-.795.057-.055.126-.04.209-.01.097.043.123.1.122.169l-.012.71c.497-.562 1.142-.857 1.963-.843 1.544.027 2.692 1.258 2.656 3.317-.041 2.351-1.406 4.011-3.16 3.98Zm-1.493-1.376c.42.606.973.838 1.502.847.863.015 1.74-.79 1.78-3.058.034-2.018-.603-2.99-1.702-3.008-.598-.01-1.202.313-1.502.739l-.078 4.48Zm5.883-3.906c.006-.347-.17-.601-.641-.735-.07-.015-.097-.07-.095-.14l.002-.112a.135.135 0 0 1 .113-.137c.615-.114 1.22-.507 1.517-.795.057-.054.126-.04.21-.01.096.044.123.1.122.17l-.017.973c.47-.66 1.174-1.12 1.703-1.111.71.012 1.05.422 1.04.992-.007.431-.278.775-.667.768-.626-.011-.53-.691-1.199-.703-.362-.006-.644.253-.834.737l-.072 4.146c-.006.362.337.646.794.724.07.015.11.057.109.183l-.002.07c-.002.138-.044.165-.128.164-.556-.01-1-.087-1.432-.095-.43-.007-.85.055-1.28.048-.084-.002-.125-.03-.123-.17l.001-.07c.002-.124.059-.165.17-.191.308-.078.633-.337.639-.685l.07-4.02Zm4.188 5.223c-.084-.002-.125-.03-.122-.17v-.069c.003-.125.06-.166.171-.192.308-.078.632-.337.638-.684l.068-3.882c.006-.348-.17-.602-.641-.735-.07-.015-.096-.071-.095-.14l.002-.112c.001-.07.044-.11.114-.137.433-.132 1.164-.537 1.575-.933.056-.055.126-.04.209-.01.096.043.123.1.122.169l-.101 5.801c-.007.362.336.646.669.722.07.015.11.058.108.183l-.001.07c-.002.138-.045.166-.128.164-.432-.008-.876-.085-1.307-.092-.431-.008-.85.054-1.281.047Zm1.379-8.034c-.501-.009-.828-.404-.818-1.003.01-.584.351-.968.852-.959.5.009.814.404.804.988-.01.599-.337.983-.838.974Zm4.6 8.347c-1.614-.028-3.038-1.375-2.995-3.852.038-2.184 1.355-3.483 3.053-3.454.723.013 1.512.263 1.814.533.15.142.177.226.172.462l-.023 1.336a.125.125 0 0 1-.127.123l-.112-.002c-.07-.001-.138-.058-.164-.17-.298-1.23-.803-1.795-1.596-1.81-.947-.016-1.617.92-1.649 2.742-.037 2.128.905 3.175 1.99 3.194a2.03 2.03 0 0 0 1.6-.738c.07-.082.154-.095.223-.038l.055.043c.069.057.095.127.052.21-.547 1.062-1.361 1.437-2.293 1.421Zm5.649.099c-1.558-.028-2.923-1.527-2.885-3.739.042-2.407 1.496-3.592 2.93-3.567 1.516.026 2.415 1.127 2.395 2.31-.01.529-.177.568-.47.563l-3.478-.061-.006.334c-.037 2.115.96 3.26 2.072 3.279.64.01 1.105-.26 1.517-.753.07-.082.154-.095.223-.038l.055.043c.069.056.095.127.052.21-.517.937-1.417 1.436-2.405 1.419Zm-1.458-4.98 1.434.025c.848.014 1.102-.19 1.112-.719.01-.64-.468-1.149-1.08-1.16-.695-.012-1.275.507-1.466 1.854Z"/></svg>