<svg xmlns="http://www.w3.org/2000/svg" width="187" height="38" fill="none"><path fill="#000" d="M.274 11.4c-.087 0-.13-.029-.13-.173v-.072c0-.13.058-.173.173-.201.46-.087.792-.36.792-.72v-8.15c0-.36-.331-.634-.792-.72-.115-.03-.173-.073-.173-.202V1.09c0-.144.043-.173.13-.173.59 0 1.022.072 1.54.072.519 0 .98-.072 1.57-.072.086 0 .13.029.13.173v.072c0 .13-.044.172-.116.187-.49.072-.85.36-.85.734v3.629h3.529V2.083c0-.36-.331-.633-.792-.72-.115-.029-.173-.072-.173-.201V1.09c0-.144.043-.173.13-.173.59 0 1.022.072 1.54.072.519 0 .98-.072 1.57-.072.086 0 .13.029.13.173v.072c0 .13-.044.172-.116.187-.49.072-.85.36-.85.734v8.15c0 .375.36.663.85.735.072.014.116.058.116.187v.072c0 .144-.044.173-.13.173-.59 0-1.051-.072-1.57-.072-.518 0-.95.072-1.54.072-.087 0-.13-.029-.13-.173v-.072c0-.13.058-.173.173-.201.46-.087.792-.36.792-.72V6.288H2.549v3.946c0 .374.36.662.85.734.071.014.115.058.115.187v.072c0 .144-.044.173-.13.173-.59 0-1.051-.072-1.57-.072-.518 0-.95.072-1.54.072Zm11.435.216c-1.872 0-3.082-1.483-3.082-3.744 0-2.304 1.21-3.816 3.067-3.816 1.843 0 3.024 1.483 3.024 3.715 0 2.319-1.18 3.845-3.01 3.845Zm.072-.446c.979 0 1.526-1.196 1.526-3.226 0-2.174-.62-3.442-1.67-3.442-1.008 0-1.599 1.023-1.599 3.24 0 2.16.648 3.428 1.743 3.428Zm6.19.446c-1.382 0-2.002-.965-2.002-2.376V5.366c0-.374-.36-.662-.705-.734-.072-.014-.115-.058-.115-.187v-.072c0-.144.043-.173.13-.173.316 0 .633.072 1.108.072.216 0 .447-.029.735-.029.345 0 .143.303.143 1.411V8.75c0 1.397.476 1.944 1.239 1.944.518 0 1.094-.302 1.354-.964V5.366c0-.374-.36-.662-.706-.734-.072-.014-.115-.058-.115-.187v-.072c0-.144.043-.173.13-.173.316 0 .633.072 1.108.072.216 0 .447-.029.735-.029.345 0 .143.303.143 1.411v3.86c0 .59.188.85.677.979.072.014.101.072.101.144v.115a.14.14 0 0 1-.115.144c-.49.058-1.224.317-1.526.605-.072.057-.13.072-.245.029-.101-.044-.13-.101-.13-.173v-.879c-.49.792-1.195 1.138-1.944 1.138Zm5.002-5.544c0-.36-.188-.62-.677-.749-.072-.014-.1-.072-.1-.144v-.115a.14.14 0 0 1 .114-.144c.634-.13 1.253-.547 1.556-.85.057-.057.13-.043.215-.014.101.043.13.1.13.173v1.008c.475-.691 1.195-1.181 1.742-1.181.735 0 1.095.418 1.095 1.008 0 .446-.274.806-.677.806-.648 0-.561-.705-1.253-.705-.374 0-.662.273-.85.777v4.292c0 .374.36.662.836.734.072.014.115.058.115.187v.072c0 .144-.043.173-.13.173-.575 0-1.036-.072-1.483-.072-.446 0-.878.072-1.325.072-.086 0-.13-.029-.13-.173v-.072c0-.13.058-.173.174-.201.317-.087.648-.36.648-.72V6.072Z"/><path fill="#000" d="M27.119 11.4c-.086 0-.13-.029-.13-.173v-.072c0-.13.058-.173.173-.201.317-.087.648-.36.648-.72V1.997c0-.36-.216-.62-.677-.749-.072-.014-.1-.072-.1-.144V.989a.14.14 0 0 1 .115-.144C27.839.7 28.343.514 28.76.24a.196.196 0 0 1 .172-.029l.072.029c.072.029.101.086.101.158v9.836c0 .374.36.662.706.734.072.014.115.058.115.187v.072c0 .144-.043.173-.13.173-.446 0-.907-.072-1.353-.072-.447 0-.879.072-1.325.072Z"/><path fill="#000" d="M30.578 14.554c-.72 0-1.152-.375-1.152-.879 0-.403.245-.691.634-.691.547 0 .69.59 1.253.59.504 0 .964-.547 1.555-2.088l.029-.086-2.132-6.034a1.134 1.134 0 0 0-.835-.734c-.072-.014-.115-.058-.115-.187v-.072c0-.144.043-.173.13-.173.446 0 .806.072 1.497.072.691 0 .98-.072 1.498-.072.086 0 .13.029.13.173v.072c0 .13-.058.173-.173.201-.39.087-.72.36-.548.879l1.282 3.989 1.382-3.888c.216-.62-.13-.893-.518-.98-.115-.028-.173-.072-.173-.201v-.072c0-.144.043-.173.13-.173.23 0 .677.072 1.08.072.345 0 .749-.072.965-.072.086 0 .13.029.13.173v.072c0 .13-.044.173-.116.187a1.183 1.183 0 0 0-.85.778l-1.944 5.342c-.95 2.606-1.973 3.802-3.139 3.802Zm9.972-8.482c0-.36-.186-.62-.676-.749-.072-.014-.1-.072-.1-.144v-.115a.14.14 0 0 1 .114-.144c.634-.13 1.253-.547 1.556-.85.057-.057.13-.043.216-.014.1.043.13.1.13.173v1.008c.474-.691 1.194-1.181 1.742-1.181.734 0 1.094.418 1.094 1.008 0 .446-.274.806-.677.806-.648 0-.561-.705-1.253-.705-.374 0-.662.273-.85.777v4.292c0 .374.36.662.836.734.072.014.115.058.115.187v.072c0 .144-.043.173-.13.173-.575 0-1.036-.072-1.483-.072-.446 0-.878.072-1.324.072-.087 0-.13-.029-.13-.173v-.072c0-.13.058-.173.173-.201.317-.087.648-.36.648-.72V6.072Zm8.784 5.472c-.475 0-.922-.245-1.123-1.109-.62.763-1.383 1.181-2.146 1.181-.878 0-1.353-.634-1.353-1.397 0-.95.763-1.9 3.398-2.909l.014-.964c.043-1.44-.245-1.8-.835-1.8-1.21 0-.763 1.972-1.771 1.972-.274 0-.533-.187-.533-.648 0-.979 1.166-1.814 2.448-1.814 1.397 0 2.03.634 1.987 2.088l-.029 2.765c.015 1.526.116 1.757.375 1.757.115 0 .216-.058.302-.173.044-.058.13-.101.245-.029l.043.029c.115.072.101.144.058.273-.159.476-.519.778-1.08.778Zm-3.24-1.598c0 .504.288.792.691.792.432 0 .936-.332 1.34-.879a9.471 9.471 0 0 1-.03-.691V7.886c-1.468.548-2.001 1.282-2.001 2.06Zm6.499 1.67c-.994 0-1.512-.605-1.512-2.347V4.848c-.26 0-.418.029-.576.029-.173 0-.202-.072-.202-.173v-.058c0-.1.044-.13.245-.23.36-.173.864-.59 1.469-1.757.043-.086.13-.086.187-.057l.072.028c.072.03.1.087.1.159v1.44c.548-.015.894-.029 1.268-.058.274-.014.36.029.36.187v.23c0 .16-.086.246-.346.246l-1.281-.015v3.96c0 1.498.216 1.944.777 1.944.188 0 .418-.072.663-.23.086-.058.173-.087.245 0l.057.072c.058.072.072.158 0 .259-.316.46-.936.792-1.526.792Zm4.847 0c-1.613 0-3.053-1.526-3.053-3.816 0-2.491 1.483-3.744 2.966-3.744 1.57 0 2.52 1.123 2.52 2.347 0 .547-.173.59-.475.59h-3.6v.346c0 2.189 1.05 3.355 2.203 3.355.662 0 1.138-.288 1.555-.806.072-.086.159-.1.23-.043l.058.043c.072.058.1.13.058.216-.519.98-1.44 1.512-2.463 1.512Zm-1.6-5.126h1.484c.879 0 1.138-.216 1.138-.764 0-.662-.504-1.18-1.138-1.18-.72 0-1.31.547-1.483 1.944Z"/><path fill="#000" d="M.74 25.4v-6.11h3.663v.657H1.48v2.064h2.648v.657H1.48V25.4H.74Zm6.36.095c-.414 0-.777-.098-1.09-.295a2.006 2.006 0 0 1-.727-.826c-.173-.354-.26-.768-.26-1.241 0-.477.087-.894.26-1.25.175-.356.417-.632.728-.83a1.998 1.998 0 0 1 1.088-.294c.414 0 .776.098 1.086.295.312.197.555.473.728.83.175.355.263.772.263 1.249 0 .473-.088.887-.263 1.24-.173.355-.416.63-.728.827a1.98 1.98 0 0 1-1.086.295Zm0-.632c.314 0 .572-.08.775-.242a1.41 1.41 0 0 0 .45-.635c.098-.262.147-.547.147-.853 0-.306-.05-.592-.147-.856a1.443 1.443 0 0 0-.45-.642c-.203-.163-.461-.244-.776-.244-.314 0-.572.081-.775.245a1.443 1.443 0 0 0-.45.64c-.098.265-.147.55-.147.857 0 .306.049.59.146.853.098.263.248.474.45.635.204.162.462.242.776.242Zm3.15.537v-4.582h.68v.692h.048a1.1 1.1 0 0 1 .454-.552c.218-.14.465-.211.74-.211a8.197 8.197 0 0 1 .37.012v.715a2.057 2.057 0 0 0-.165-.026 1.607 1.607 0 0 0-.265-.021c-.223 0-.422.046-.597.14a1.03 1.03 0 0 0-.56.934V25.4h-.705Zm5.488 1.718v-6.3h.68v.728h.084c.051-.08.123-.181.215-.304a1.23 1.23 0 0 1 .4-.334c.174-.1.41-.15.71-.15.385 0 .725.097 1.02.29.294.193.523.466.688.82.166.354.248.772.248 1.253 0 .485-.082.906-.248 1.262a1.954 1.954 0 0 1-.686.823c-.292.193-.63.29-1.01.29-.295 0-.53-.05-.708-.147a1.31 1.31 0 0 1-.409-.337 4.514 4.514 0 0 1-.22-.316h-.06v2.422h-.704Zm.692-4.009c0 .346.05.651.152.916.102.262.25.468.445.617.195.148.433.221.716.221.294 0 .54-.078.736-.233.2-.157.348-.367.448-.632.101-.267.152-.563.152-.889a2.4 2.4 0 0 0-.15-.871 1.346 1.346 0 0 0-.444-.617c-.197-.154-.444-.23-.742-.23-.287 0-.527.073-.722.218a1.307 1.307 0 0 0-.442.602c-.1.257-.149.556-.149.898Zm4.427 2.291v-4.582h.68v.692h.048a1.1 1.1 0 0 1 .453-.552c.219-.14.465-.211.74-.211a8.205 8.205 0 0 1 .37.012v.715a2.071 2.071 0 0 0-.164-.026 1.606 1.606 0 0 0-.266-.021c-.223 0-.421.046-.596.14a1.028 1.028 0 0 0-.56.934V25.4h-.705Zm4.847.095a2 2 0 0 1-1.089-.295 2.006 2.006 0 0 1-.727-.826c-.174-.354-.26-.768-.26-1.241 0-.477.087-.894.26-1.25.174-.356.417-.632.727-.83a1.997 1.997 0 0 1 1.09-.294c.413 0 .775.098 1.085.295.312.197.555.473.728.83.175.355.262.772.262 1.249 0 .473-.087.887-.262 1.24-.173.355-.416.63-.728.827a1.98 1.98 0 0 1-1.086.295Zm0-.632c.314 0 .573-.08.776-.242a1.41 1.41 0 0 0 .45-.635c.098-.262.146-.547.146-.853 0-.306-.048-.592-.146-.856a1.442 1.442 0 0 0-.45-.642c-.203-.163-.462-.244-.776-.244s-.573.081-.775.245a1.442 1.442 0 0 0-.45.64c-.098.265-.147.55-.147.857 0 .306.049.59.146.853.098.263.248.474.45.635.203.162.462.242.776.242Zm3.151-4.045h.704v4.916c0 .282-.049.527-.146.734-.096.207-.24.367-.436.48-.193.113-.436.17-.73.17h-.144v-.656h.131c.215 0 .372-.064.472-.191.1-.125.149-.304.149-.537v-4.916Zm.346-.764a.5.5 0 0 1-.355-.14.45.45 0 0 1-.146-.337.45.45 0 0 1 .146-.337.5.5 0 0 1 .355-.14.49.49 0 0 1 .352.14c.1.094.15.206.15.337 0 .131-.05.244-.15.337a.49.49 0 0 1-.352.14Zm3.569 5.441c-.442 0-.823-.097-1.143-.292a1.962 1.962 0 0 1-.737-.823c-.171-.354-.256-.766-.256-1.235 0-.47.085-.883.256-1.241.173-.36.414-.64.722-.841.31-.203.672-.304 1.086-.304.238 0 .474.04.707.119.232.08.444.209.635.388.19.177.343.411.456.704.114.292.17.652.17 1.08v.298h-3.531v-.609h2.815c0-.258-.051-.489-.155-.692a1.169 1.169 0 0 0-.435-.48 1.219 1.219 0 0 0-.662-.176c-.28 0-.523.07-.728.209a1.374 1.374 0 0 0-.468.537c-.11.22-.165.457-.165.71v.405c0 .346.06.64.18.88.12.239.289.42.504.546.214.123.464.185.748.185.185 0 .352-.026.501-.078.152-.053.282-.133.391-.238.11-.108.194-.24.254-.4l.68.191a1.52 1.52 0 0 1-.361.609 1.758 1.758 0 0 1-.627.405 2.322 2.322 0 0 1-.838.143Zm4.829 0c-.43 0-.8-.101-1.11-.304a1.984 1.984 0 0 1-.716-.838 2.841 2.841 0 0 1-.25-1.22c0-.465.085-.876.256-1.232a2.03 2.03 0 0 1 .722-.838c.31-.203.672-.304 1.086-.304.322 0 .612.06.87.178.26.12.471.287.636.502.165.214.268.465.307.751h-.704a1.092 1.092 0 0 0-.357-.555c-.183-.163-.43-.244-.74-.244-.275 0-.515.072-.722.215a1.4 1.4 0 0 0-.48.6c-.114.256-.17.557-.17.903 0 .354.055.662.167.925.113.262.272.466.477.611.207.146.45.218.728.218.183 0 .349-.032.498-.095a1.027 1.027 0 0 0 .6-.704h.703a1.63 1.63 0 0 1-.912 1.244 1.99 1.99 0 0 1-.89.187Zm4.823-4.677v.597h-2.374v-.597h2.374ZM40.74 19.72h.704v4.367c0 .2.028.349.086.448.06.097.135.163.227.197a.91.91 0 0 0 .295.047c.078 0 .141-.003.191-.011l.12-.024.143.632a1.471 1.471 0 0 1-.525.083c-.2 0-.394-.042-.585-.128a1.162 1.162 0 0 1-.471-.39c-.124-.175-.185-.396-.185-.663V19.72Zm5.905 2.124-.633.18a1.176 1.176 0 0 0-.176-.308.855.855 0 0 0-.31-.25 1.126 1.126 0 0 0-.504-.099c-.28 0-.514.065-.701.194-.185.127-.278.29-.278.486 0 .175.064.313.191.415.127.101.326.186.597.253l.68.167c.41.1.715.252.916.457.2.203.301.464.301.784 0 .263-.076.497-.227.704a1.51 1.51 0 0 1-.626.49c-.269.119-.58.178-.937.178-.467 0-.854-.101-1.16-.304-.306-.203-.5-.499-.582-.889l.668-.167a.928.928 0 0 0 .361.555c.18.123.413.185.701.185.328 0 .589-.07.782-.209.195-.141.292-.31.292-.507a.533.533 0 0 0-.167-.4c-.111-.109-.282-.19-.513-.244l-.764-.18c-.42-.099-.727-.253-.924-.462a1.12 1.12 0 0 1-.293-.79c0-.259.073-.487.218-.686.147-.199.347-.355.6-.468.254-.114.543-.17.865-.17.453 0 .81.099 1.068.298.26.199.445.461.554.787Zm5.498-1.026v.597h-2.375v-.597h2.375ZM50.46 19.72h.704v4.367c0 .2.03.349.087.448.06.097.135.163.227.197a.91.91 0 0 0 .295.047c.077 0 .141-.003.19-.011l.12-.024.143.632a1.471 1.471 0 0 1-.525.083c-.199 0-.393-.042-.584-.128a1.162 1.162 0 0 1-.472-.39c-.123-.175-.185-.396-.185-.663V19.72Zm3.544 2.924V25.4H53.3v-6.11h.704v2.244h.06c.107-.237.268-.424.483-.564.217-.14.505-.211.865-.211.312 0 .586.062.82.187.235.124.417.314.546.57.132.255.197.579.197.973V25.4h-.704v-2.864c0-.364-.094-.645-.283-.844-.187-.2-.447-.301-.779-.301a1.3 1.3 0 0 0-.62.146c-.181.098-.324.24-.43.427a1.386 1.386 0 0 0-.155.68Zm5.607 2.863c-.29 0-.553-.054-.79-.164a1.357 1.357 0 0 1-.564-.48 1.354 1.354 0 0 1-.209-.764c0-.262.052-.475.155-.638.104-.165.242-.294.415-.388.173-.093.364-.163.573-.209.21-.047.422-.085.635-.113.279-.036.504-.063.677-.08a1.04 1.04 0 0 0 .382-.099c.082-.046.122-.125.122-.238v-.024c0-.295-.08-.523-.241-.686-.16-.163-.4-.245-.725-.245-.336 0-.6.073-.79.22a1.304 1.304 0 0 0-.403.472l-.668-.239a1.6 1.6 0 0 1 .477-.65c.2-.157.42-.266.656-.328.239-.064.473-.095.704-.095.147 0 .316.017.507.053.193.034.379.105.558.212.181.107.331.27.45.486.12.217.18.507.18.871V25.4h-.705v-.62h-.035a1.24 1.24 0 0 1-.239.319c-.111.113-.26.21-.444.289-.185.08-.411.12-.678.12Zm.108-.632c.278 0 .513-.055.704-.164a1.118 1.118 0 0 0 .584-.97v-.644c-.03.036-.095.069-.197.099a3.526 3.526 0 0 1-.346.074 15.575 15.575 0 0 1-.674.09 2.691 2.691 0 0 0-.513.116.884.884 0 0 0-.382.236.6.6 0 0 0-.143.423c0 .245.09.43.272.555.183.123.414.185.695.185Zm5.27-4.057v.597h-2.375v-.597h2.375Zm-1.683-1.098h.704v4.367c0 .2.03.349.087.448.06.097.135.163.227.197a.91.91 0 0 0 .295.047c.078 0 .141-.003.19-.011l.12-.024.143.632a1.471 1.471 0 0 1-.525.083 1.41 1.41 0 0 1-.584-.128 1.162 1.162 0 0 1-.471-.39c-.124-.175-.185-.396-.185-.663V19.72Zm5.808 2.924V25.4h-.704v-6.11h.704v2.244h.06c.107-.237.268-.424.483-.564.217-.14.505-.211.865-.211.313 0 .586.062.82.187.235.124.417.314.546.57.132.255.197.579.197.973V25.4h-.704v-2.864c0-.364-.094-.645-.283-.844-.187-.2-.446-.301-.778-.301a1.3 1.3 0 0 0-.621.146c-.181.098-.324.24-.43.427a1.385 1.385 0 0 0-.155.68Zm5.608 2.863a1.85 1.85 0 0 1-.79-.164 1.356 1.356 0 0 1-.565-.48 1.354 1.354 0 0 1-.209-.764c0-.262.052-.475.156-.638.103-.165.241-.294.414-.388.173-.093.364-.163.573-.209.21-.047.422-.085.635-.113.279-.036.504-.063.677-.08.175-.02.303-.053.382-.099.082-.046.123-.125.123-.238v-.024c0-.295-.081-.523-.242-.686-.16-.163-.4-.245-.725-.245-.336 0-.6.073-.79.22a1.309 1.309 0 0 0-.403.472l-.668-.239a1.61 1.61 0 0 1 .477-.65c.2-.157.42-.266.656-.328.239-.064.474-.095.704-.095.147 0 .316.017.507.053.193.034.38.105.558.212.181.107.331.27.45.486.12.217.18.507.18.871V25.4h-.704v-.62h-.036a1.251 1.251 0 0 1-.239.319c-.111.113-.26.21-.444.289-.185.08-.411.12-.677.12Zm.107-.632c.278 0 .513-.055.704-.164a1.117 1.117 0 0 0 .585-.97v-.644c-.03.036-.096.069-.197.099-.1.027-.215.052-.346.074a15.652 15.652 0 0 1-.675.09 2.69 2.69 0 0 0-.513.116.885.885 0 0 0-.381.236.6.6 0 0 0-.144.423c0 .245.09.43.272.555.183.123.415.185.695.185Zm6.86-4.057L79.995 25.4h-.716l-1.695-4.582h.764l1.265 3.651h.048l1.264-3.65h.764Zm2.686 4.677c-.441 0-.822-.097-1.142-.292a1.962 1.962 0 0 1-.737-.823c-.171-.354-.257-.766-.257-1.235 0-.47.086-.883.257-1.241.173-.36.413-.64.722-.841.31-.203.672-.304 1.085-.304.24 0 .475.04.707.119.233.08.445.209.636.388.19.177.343.411.456.704.114.292.17.652.17 1.08v.298H82.74v-.609h2.816c0-.258-.051-.489-.155-.692a1.17 1.17 0 0 0-1.097-.656c-.28 0-.523.07-.728.209a1.374 1.374 0 0 0-.469.537c-.109.22-.164.457-.164.71v.405c0 .346.06.64.18.88.12.239.289.42.503.546.215.123.465.185.75.185.184 0 .351-.026.5-.078.151-.053.282-.133.391-.238.11-.108.194-.24.254-.4l.68.191a1.52 1.52 0 0 1-.361.609 1.76 1.76 0 0 1-.627.405 2.322 2.322 0 0 1-.838.143Zm8.218-1.968v-2.709h.704V25.4h-.704v-.776h-.048c-.107.233-.274.43-.5.594-.227.161-.514.242-.86.242a1.53 1.53 0 0 1-.763-.188 1.316 1.316 0 0 1-.525-.573c-.128-.257-.191-.58-.191-.97v-2.91h.704v2.863c0 .334.093.6.28.8.189.198.43.297.722.297.175 0 .353-.044.534-.134.183-.09.336-.226.46-.411.124-.185.187-.421.187-.707Zm2.697-.883V25.4h-.704v-4.582h.68v.716h.06c.108-.233.27-.42.49-.56.218-.144.5-.215.847-.215.31 0 .581.063.814.19.233.126.414.317.543.573.13.255.194.577.194.967V25.4h-.704v-2.864c0-.36-.094-.64-.28-.84-.188-.204-.444-.305-.77-.305-.225 0-.426.049-.603.146-.175.098-.313.24-.414.427a1.409 1.409 0 0 0-.153.68Zm6.072 2.851c-.43 0-.8-.101-1.11-.304a1.983 1.983 0 0 1-.716-.838 2.841 2.841 0 0 1-.25-1.22c0-.465.085-.876.256-1.232a2.03 2.03 0 0 1 .722-.838c.31-.203.672-.304 1.086-.304.322 0 .612.06.871.178.258.12.47.287.635.502.165.214.268.465.307.751h-.704a1.087 1.087 0 0 0-.358-.555c-.183-.163-.429-.244-.739-.244-.275 0-.515.072-.722.215a1.404 1.404 0 0 0-.481.6c-.113.256-.17.557-.17.903 0 .354.056.662.167.925.114.262.273.466.478.611.207.146.449.218.728.218.183 0 .349-.032.498-.095.149-.064.275-.155.379-.275.103-.12.177-.262.22-.43h.704a1.622 1.622 0 0 1-.913 1.245c-.254.125-.55.187-.888.187Zm3.534-6.205v6.11h-.704v-6.11h.704Zm3.211 6.205c-.442 0-.823-.097-1.143-.292a1.962 1.962 0 0 1-.736-.823c-.172-.354-.257-.766-.257-1.235 0-.47.085-.883.257-1.241.173-.36.413-.64.721-.841a1.942 1.942 0 0 1 1.086-.304c.239 0 .474.04.707.119.233.08.445.209.636.388.19.177.343.411.456.704.113.292.17.652.17 1.08v.298h-3.532v-.609h2.816a1.51 1.51 0 0 0-.155-.692 1.173 1.173 0 0 0-1.098-.656c-.28 0-.523.07-.728.209a1.376 1.376 0 0 0-.468.537c-.109.22-.164.457-.164.71v.405c0 .346.06.64.179.88.121.239.289.42.504.546.215.123.464.185.749.185.185 0 .352-.026.501-.078.151-.053.281-.133.391-.238a1.08 1.08 0 0 0 .253-.4l.68.191c-.071.23-.192.434-.361.609a1.753 1.753 0 0 1-.626.405 2.324 2.324 0 0 1-.838.143Zm4.316.012a1.85 1.85 0 0 1-.79-.164 1.353 1.353 0 0 1-.564-.48 1.356 1.356 0 0 1-.209-.764c0-.262.052-.475.155-.638a1.1 1.1 0 0 1 .415-.388c.173-.093.364-.163.573-.209.21-.047.422-.085.635-.113.278-.036.504-.063.677-.08.175-.02.302-.053.382-.099.081-.046.122-.125.122-.238v-.024c0-.295-.08-.523-.241-.686-.16-.163-.401-.245-.725-.245-.336 0-.6.073-.791.22a1.31 1.31 0 0 0-.403.472l-.668-.239a1.61 1.61 0 0 1 .478-.65c.2-.157.419-.266.656-.328.238-.064.473-.095.704-.095.147 0 .316.017.507.053.193.034.379.105.558.212.181.107.331.27.45.486.119.217.179.507.179.871V25.4h-.704v-.62h-.036a1.244 1.244 0 0 1-.238.319c-.112.113-.26.21-.445.289-.185.08-.41.12-.677.12Zm.108-.632c.278 0 .513-.055.703-.164a1.115 1.115 0 0 0 .585-.97v-.644c-.03.036-.095.069-.197.099a3.303 3.303 0 0 1-.346.074 14.986 14.986 0 0 1-.674.09 2.688 2.688 0 0 0-.513.116.889.889 0 0 0-.382.236.602.602 0 0 0-.143.423c0 .245.091.43.271.555.183.123.415.185.696.185Zm3.277.525v-4.582h.68v.692h.048a1.1 1.1 0 0 1 .453-.552c.219-.14.466-.211.74-.211a8.22 8.22 0 0 1 .37.012v.715a2.119 2.119 0 0 0-.164-.026 1.612 1.612 0 0 0-.266-.021 1.24 1.24 0 0 0-.596.14 1.033 1.033 0 0 0-.561.934V25.4h-.704Zm8.733-3.556-.632.18a1.17 1.17 0 0 0-.176-.308.859.859 0 0 0-.31-.25 1.127 1.127 0 0 0-.504-.099c-.281 0-.514.065-.701.194-.185.127-.278.29-.278.486 0 .175.064.313.191.415.127.101.326.186.597.253l.68.167c.41.1.715.252.916.457.2.203.301.464.301.784 0 .263-.076.497-.227.704a1.51 1.51 0 0 1-.626.49 2.297 2.297 0 0 1-.937.178c-.467 0-.854-.101-1.16-.304-.306-.203-.5-.499-.582-.889l.668-.167c.064.247.184.432.361.555.179.123.413.185.701.185.328 0 .589-.07.782-.209.195-.141.292-.31.292-.507a.534.534 0 0 0-.167-.4c-.111-.109-.282-.19-.513-.244l-.764-.18c-.419-.099-.728-.253-.924-.462a1.12 1.12 0 0 1-.293-.79c0-.259.073-.487.218-.686a1.48 1.48 0 0 1 .6-.468 2.09 2.09 0 0 1 .865-.17c.453 0 .809.099 1.068.298.26.199.445.461.554.787Zm3.005 3.651c-.43 0-.799-.101-1.11-.304a1.985 1.985 0 0 1-.716-.838 2.84 2.84 0 0 1-.25-1.22c0-.465.085-.876.256-1.232a2.03 2.03 0 0 1 .722-.838c.31-.203.672-.304 1.086-.304.322 0 .613.06.871.178.259.12.47.287.635.502.165.214.268.465.308.751h-.704a1.093 1.093 0 0 0-.358-.555c-.183-.163-.43-.244-.74-.244a1.24 1.24 0 0 0-.722.215 1.395 1.395 0 0 0-.48.6 2.21 2.21 0 0 0-.17.903c0 .354.055.662.167.925.113.262.272.466.477.611.207.146.45.218.728.218.183 0 .349-.032.498-.095a1.026 1.026 0 0 0 .6-.704h.704a1.635 1.635 0 0 1-.913 1.244 1.991 1.991 0 0 1-.889.187Zm4.692 0a2 2 0 0 1-1.089-.295 2.006 2.006 0 0 1-.727-.826c-.173-.354-.26-.768-.26-1.241 0-.477.087-.894.26-1.25.175-.356.417-.632.727-.83a2.002 2.002 0 0 1 1.089-.294c.414 0 .776.098 1.086.295.312.197.555.473.728.83.175.355.262.772.262 1.249 0 .473-.087.887-.262 1.24a1.98 1.98 0 0 1-.728.827 1.98 1.98 0 0 1-1.086.295Zm0-.632c.314 0 .573-.08.776-.242a1.41 1.41 0 0 0 .45-.635 2.42 2.42 0 0 0 .146-.853c0-.306-.048-.592-.146-.856a1.437 1.437 0 0 0-.45-.642c-.203-.163-.462-.244-.776-.244s-.573.081-.775.245a1.447 1.447 0 0 0-.451.64c-.097.265-.146.55-.146.857 0 .306.049.59.146.853.098.263.248.474.451.635.202.162.461.242.775.242Zm3.151 2.255v-6.3h.68v.728h.084c.051-.08.123-.181.214-.304.094-.126.227-.237.4-.334.175-.1.412-.15.71-.15.386 0 .726.097 1.02.29.294.193.524.466.689.82.165.354.248.772.248 1.253 0 .485-.083.906-.248 1.262a1.956 1.956 0 0 1-.686.823c-.292.193-.629.29-1.011.29-.294 0-.53-.05-.707-.147a1.319 1.319 0 0 1-.409-.337 4.394 4.394 0 0 1-.22-.316h-.06v2.422h-.704Zm.692-4.009c0 .346.051.651.152.916.101.262.25.468.445.617.194.148.433.221.715.221.295 0 .54-.078.737-.233.199-.157.348-.367.448-.632.101-.267.152-.563.152-.889 0-.322-.05-.612-.149-.871a1.35 1.35 0 0 0-.445-.617c-.197-.154-.444-.23-.743-.23-.286 0-.527.073-.721.218a1.311 1.311 0 0 0-.442.602 2.486 2.486 0 0 0-.149.898Zm6.348 2.386c-.442 0-.823-.097-1.143-.292a1.964 1.964 0 0 1-.737-.823c-.171-.354-.256-.766-.256-1.235 0-.47.085-.883.256-1.241.173-.36.414-.64.722-.841.31-.203.672-.304 1.086-.304.239 0 .474.04.707.119.233.08.444.209.635.388.191.177.343.411.457.704.113.292.17.652.17 1.08v.298h-3.532v-.609h2.816a1.51 1.51 0 0 0-.155-.692 1.173 1.173 0 0 0-1.098-.656c-.28 0-.523.07-.728.209a1.369 1.369 0 0 0-.468.537c-.109.22-.164.457-.164.71v.405c0 .346.059.64.179.88.121.239.289.42.504.546.215.123.464.185.749.185.185 0 .352-.026.501-.078.151-.053.281-.133.391-.238.109-.108.193-.24.253-.4l.68.191c-.071.23-.192.434-.361.609a1.762 1.762 0 0 1-.626.405 2.324 2.324 0 0 1-.838.143Zm6.213-3.651-.632.18a1.199 1.199 0 0 0-.176-.308.859.859 0 0 0-.31-.25 1.131 1.131 0 0 0-.505-.099c-.28 0-.514.065-.701.194-.185.127-.277.29-.277.486 0 .175.064.313.191.415.127.101.326.186.597.253l.68.167c.409.1.715.252.915.457.201.203.302.464.302.784 0 .263-.076.497-.227.704a1.51 1.51 0 0 1-.626.49 2.297 2.297 0 0 1-.937.178c-.467 0-.854-.101-1.16-.304-.307-.203-.501-.499-.582-.889l.668-.167c.064.247.184.432.361.555.179.123.413.185.701.185.328 0 .589-.07.781-.209.195-.141.293-.31.293-.507a.534.534 0 0 0-.167-.4c-.112-.109-.283-.19-.513-.244l-.764-.18c-.42-.099-.728-.253-.925-.462a1.12 1.12 0 0 1-.292-.79c0-.259.073-.487.218-.686.147-.199.347-.355.599-.468.255-.114.543-.17.865-.17.454 0 .81.099 1.068.298.261.199.446.461.555.787Zm2.193 2.721-.047.322a6.68 6.68 0 0 1-.155.728c-.068.258-.139.502-.212.73-.074.23-.135.411-.182.547h-.537l.101-.505c.042-.209.084-.442.126-.7a12.9 12.9 0 0 0 .107-.788l.036-.334h.763Zm5.588.93c-.441 0-.822-.097-1.142-.292a1.964 1.964 0 0 1-.737-.823c-.171-.354-.257-.766-.257-1.235 0-.47.086-.883.257-1.241.173-.36.414-.64.722-.841.31-.203.672-.304 1.086-.304.238 0 .474.04.707.119.232.08.444.209.635.388.191.177.343.411.456.704.114.292.17.652.17 1.08v.298h-3.531v-.609h2.815c0-.258-.051-.489-.155-.692a1.164 1.164 0 0 0-.435-.48 1.22 1.22 0 0 0-.662-.176c-.281 0-.523.07-.728.209a1.379 1.379 0 0 0-.469.537c-.109.22-.164.457-.164.71v.405c0 .346.06.64.179.88.122.239.29.42.504.546.215.123.465.185.749.185.185 0 .352-.026.501-.078.151-.053.282-.133.391-.238.109-.108.194-.24.254-.4l.68.191a1.52 1.52 0 0 1-.361.609 1.757 1.757 0 0 1-.627.405 2.32 2.32 0 0 1-.838.143Zm6.575-4.677-1.694 4.582h-.716l-1.694-4.582h.763l1.265 3.651h.048l1.265-3.65h.763Zm2.627 4.677c-.414 0-.777-.098-1.089-.295a2.008 2.008 0 0 1-.728-.826c-.173-.354-.259-.768-.259-1.241 0-.477.086-.894.259-1.25.175-.356.418-.632.728-.83a1.997 1.997 0 0 1 1.089-.294c.413 0 .775.098 1.086.295.312.197.554.473.727.83.175.355.263.772.263 1.249 0 .473-.088.887-.263 1.24-.173.355-.415.63-.727.827a1.987 1.987 0 0 1-1.086.295Zm0-.632c.314 0 .573-.08.775-.242.203-.16.353-.372.451-.635a2.44 2.44 0 0 0 .146-.853c0-.306-.049-.592-.146-.856a1.447 1.447 0 0 0-.451-.642c-.202-.163-.461-.244-.775-.244s-.573.081-.776.245a1.437 1.437 0 0 0-.45.64c-.098.265-.146.55-.146.857 0 .306.048.59.146.853.097.263.247.474.45.635.203.162.462.242.776.242Zm3.855-5.573v6.11h-.704v-6.11h.704Zm5.036 1.528-1.695 4.582h-.716l-1.694-4.582h.764l1.264 3.651h.048l1.265-3.65h.764Zm.929 4.582v-4.582h.704V25.4h-.704Zm.358-5.345a.498.498 0 0 1-.355-.14.448.448 0 0 1-.146-.338.45.45 0 0 1 .146-.337.498.498 0 0 1 .355-.14c.137 0 .254.047.352.14a.447.447 0 0 1 .149.337c0 .131-.05.244-.149.337a.491.491 0 0 1-.352.14Zm2.339 2.589V25.4h-.704v-4.582h.68v.716h.06c.107-.233.27-.42.489-.56.219-.144.501-.215.847-.215.31 0 .582.063.815.19.232.126.413.317.542.573.13.255.194.577.194.967V25.4h-.704v-2.864c0-.36-.093-.64-.28-.84-.187-.204-.443-.305-.77-.305-.224 0-.425.049-.602.146a1.05 1.05 0 0 0-.415.427 1.413 1.413 0 0 0-.152.68Zm6.059 4.57c-.34 0-.632-.044-.877-.132a1.863 1.863 0 0 1-.611-.34 1.853 1.853 0 0 1-.385-.447l.561-.394c.063.084.144.18.241.287.098.109.231.203.4.283.171.081.395.122.671.122.37 0 .675-.09.916-.268.241-.18.361-.46.361-.841v-.931h-.06a3.7 3.7 0 0 1-.22.31c-.094.121-.229.23-.406.325-.175.094-.412.14-.71.14a1.91 1.91 0 0 1-.996-.262 1.837 1.837 0 0 1-.695-.764c-.169-.334-.254-.74-.254-1.217 0-.47.083-.878.248-1.226.165-.35.394-.62.689-.811.294-.193.634-.29 1.02-.29.298 0 .535.05.71.15.177.097.312.208.405.334.096.123.169.224.221.304h.072v-.728h.68v4.713c0 .394-.09.714-.269.96-.177.25-.415.431-.715.547a2.708 2.708 0 0 1-.997.176Zm-.024-2.518c.283 0 .521-.065.716-.194a1.21 1.21 0 0 0 .445-.558 2.26 2.26 0 0 0 .152-.87c0-.33-.05-.622-.149-.875-.1-.252-.247-.45-.442-.593a1.185 1.185 0 0 0-.722-.215c-.298 0-.547.076-.745.227a1.385 1.385 0 0 0-.445.608 2.362 2.362 0 0 0-.146.847c0 .319.05.6.149.844.102.243.251.434.448.573.198.137.445.206.739.206ZM.644 35.4v-4.582h.68v.692h.048a1.1 1.1 0 0 1 .454-.552c.218-.14.465-.211.74-.211a8.2 8.2 0 0 1 .37.012v.715a2.065 2.065 0 0 0-.165-.026 1.606 1.606 0 0 0-.265-.021c-.223 0-.422.046-.597.14a1.029 1.029 0 0 0-.56.934V35.4H.643Zm4.907.095c-.441 0-.822-.097-1.142-.292a1.962 1.962 0 0 1-.737-.823c-.171-.354-.256-.766-.256-1.235 0-.47.085-.883.256-1.241.173-.36.414-.64.722-.841.31-.203.672-.304 1.086-.304.238 0 .474.04.707.119.232.08.444.209.635.388.191.177.343.411.456.704.114.292.17.652.17 1.08v.298H3.917v-.609h2.816c0-.258-.052-.489-.156-.692a1.169 1.169 0 0 0-.435-.48 1.22 1.22 0 0 0-.662-.176c-.28 0-.523.07-.728.209a1.374 1.374 0 0 0-.468.537c-.11.22-.165.457-.165.71v.405c0 .346.06.64.18.88.12.239.289.42.504.546.214.123.464.185.748.185.185 0 .352-.026.501-.078.152-.053.282-.133.391-.238.11-.107.194-.24.254-.4l.68.191a1.52 1.52 0 0 1-.361.609 1.759 1.759 0 0 1-.626.405 2.322 2.322 0 0 1-.839.143Zm6.095 1.623v-2.422h-.06a4.541 4.541 0 0 1-.22.316 1.312 1.312 0 0 1-.41.337c-.177.098-.412.146-.707.146a1.79 1.79 0 0 1-1.01-.289 1.954 1.954 0 0 1-.687-.823c-.165-.356-.247-.777-.247-1.262 0-.481.082-.899.247-1.253.165-.354.395-.627.69-.82.294-.193.634-.29 1.02-.29.298 0 .533.05.706.15.175.097.309.208.4.334.093.123.166.224.218.304h.083v-.728h.68v6.3h-.704Zm-1.301-2.255c.282 0 .52-.074.716-.22.195-.15.343-.356.444-.618.102-.265.152-.57.152-.916 0-.342-.05-.641-.149-.898-.1-.258-.246-.46-.441-.602a1.175 1.175 0 0 0-.722-.218c-.298 0-.547.076-.746.23a1.375 1.375 0 0 0-.444.617 2.455 2.455 0 0 0-.146.871c0 .326.05.622.149.889.101.265.25.475.447.632.199.155.446.233.74.233Zm6.181-1.336v-2.709h.704V35.4h-.704v-.776h-.048c-.108.233-.275.43-.501.594-.227.161-.513.242-.86.242a1.53 1.53 0 0 1-.763-.188 1.316 1.316 0 0 1-.525-.573c-.127-.257-.19-.58-.19-.97v-2.91h.703v2.863c0 .334.093.6.28.8.19.198.43.297.722.297.175 0 .353-.044.534-.134.183-.09.336-.226.46-.411.125-.185.188-.421.188-.707Zm1.993 1.873v-4.582h.704V35.4h-.704Zm.358-5.345a.5.5 0 0 1-.355-.14.45.45 0 0 1-.146-.338.45.45 0 0 1 .146-.337.5.5 0 0 1 .355-.14.49.49 0 0 1 .352.14c.1.094.149.206.149.337 0 .131-.05.244-.15.337a.49.49 0 0 1-.351.14Zm1.635 5.345v-4.582h.68v.692h.048a1.1 1.1 0 0 1 .454-.552c.218-.14.465-.211.74-.211a8.197 8.197 0 0 1 .37.012v.715a2.057 2.057 0 0 0-.165-.026 1.607 1.607 0 0 0-.265-.021c-.223 0-.422.046-.597.14a1.03 1.03 0 0 0-.56.934V35.4h-.705Zm4.908.095c-.442 0-.823-.097-1.143-.292a1.962 1.962 0 0 1-.737-.823c-.171-.354-.256-.766-.256-1.235 0-.47.085-.883.256-1.241.173-.36.414-.64.722-.841.31-.203.672-.304 1.086-.304.238 0 .474.04.707.119.232.08.444.209.635.388.19.177.343.411.456.704.114.292.17.652.17 1.08v.298h-3.531v-.609H26.6c0-.258-.052-.489-.156-.692a1.169 1.169 0 0 0-.435-.48 1.219 1.219 0 0 0-.662-.176c-.28 0-.523.07-.728.209a1.374 1.374 0 0 0-.469.537c-.109.22-.163.457-.163.71v.405c0 .346.06.64.178.88.122.239.29.42.505.546.214.123.464.185.748.185.185 0 .352-.026.501-.078.152-.053.282-.133.391-.238.11-.107.194-.24.254-.4l.68.191a1.52 1.52 0 0 1-.361.609 1.758 1.758 0 0 1-.627.405 2.322 2.322 0 0 1-.838.143Zm2.967-.095v-4.582h.68v.716h.06c.096-.244.25-.434.462-.57.213-.137.469-.205.767-.205.302 0 .554.068.755.205.203.136.36.326.474.57h.048c.117-.237.293-.424.528-.564.234-.14.516-.211.844-.211.41 0 .745.128 1.005.384.26.255.391.652.391 1.19V35.4h-.704v-3.066c0-.339-.093-.58-.277-.725a1.027 1.027 0 0 0-.654-.218c-.322 0-.571.097-.748.292a1.043 1.043 0 0 0-.266.734V35.4h-.716v-3.138c0-.26-.084-.47-.253-.63a.908.908 0 0 0-.654-.241.965.965 0 0 0-.513.146 1.104 1.104 0 0 0-.381.406 1.197 1.197 0 0 0-.144.593V35.4h-.704Zm9.223.095c-.442 0-.823-.097-1.143-.292a1.962 1.962 0 0 1-.737-.823c-.171-.354-.257-.766-.257-1.235 0-.47.086-.883.257-1.241.173-.36.414-.64.722-.841.31-.203.672-.304 1.086-.304.238 0 .474.04.707.119.232.08.444.209.635.388.19.177.343.411.456.704.114.292.17.652.17 1.08v.298h-3.532v-.609h2.816c0-.258-.051-.489-.155-.692a1.169 1.169 0 0 0-.435-.48 1.219 1.219 0 0 0-.663-.176c-.28 0-.523.07-.727.209a1.373 1.373 0 0 0-.469.537c-.109.22-.164.457-.164.71v.405c0 .346.06.64.18.88.12.239.289.42.503.546.215.123.465.185.75.185.184 0 .351-.026.5-.078.151-.053.282-.133.391-.238.11-.107.194-.24.254-.4l.68.191a1.52 1.52 0 0 1-.361.609 1.76 1.76 0 0 1-.627.405 2.322 2.322 0 0 1-.838.143Zm3.671-2.851V35.4h-.704v-4.582h.68v.716h.06c.107-.233.27-.42.49-.56.218-.144.5-.215.846-.215.31 0 .582.063.815.19.232.126.413.317.542.573.13.255.194.577.194.967V35.4h-.703v-2.864c0-.36-.094-.64-.28-.84-.188-.204-.444-.305-.77-.305-.225 0-.426.049-.603.146-.175.098-.313.24-.415.427a1.408 1.408 0 0 0-.152.68Zm6.202-1.826v.597H45.11v-.597h2.374Zm-1.682-1.098h.704v4.367c0 .2.029.348.087.448.06.097.135.163.226.197a.911.911 0 0 0 .296.047c.077 0 .14-.004.19-.011l.12-.024.143.632a1.47 1.47 0 0 1-.525.084c-.199 0-.394-.043-.585-.129a1.162 1.162 0 0 1-.471-.39c-.123-.175-.185-.396-.185-.663V29.72Zm5.905 2.124-.633.18a1.173 1.173 0 0 0-.176-.308.853.853 0 0 0-.31-.25 1.125 1.125 0 0 0-.504-.099c-.28 0-.514.065-.7.194-.186.127-.278.29-.278.486 0 .175.063.313.19.415.128.101.327.186.597.253l.68.167c.41.1.715.252.916.457.2.203.301.464.301.784 0 .263-.075.497-.226.704-.15.207-.358.37-.627.49-.268.119-.58.178-.936.178-.468 0-.855-.101-1.16-.304-.307-.203-.5-.499-.583-.889l.669-.167a.929.929 0 0 0 .36.555c.18.123.413.185.702.185.328 0 .588-.07.781-.209.195-.141.293-.31.293-.507a.533.533 0 0 0-.167-.4c-.112-.109-.283-.19-.514-.244l-.763-.18c-.42-.099-.728-.253-.925-.462a1.12 1.12 0 0 1-.292-.79c0-.259.072-.487.217-.686.148-.199.347-.355.6-.468.255-.114.543-.17.865-.17.453 0 .81.099 1.068.298.26.199.445.461.555.787Zm5.367 3.651c-.414 0-.777-.098-1.089-.295a2.006 2.006 0 0 1-.728-.826c-.173-.354-.26-.768-.26-1.241 0-.477.087-.894.26-1.25.175-.356.418-.632.728-.83a1.998 1.998 0 0 1 1.089-.294c.413 0 .776.098 1.086.295.312.197.555.473.727.83.175.355.263.772.263 1.249 0 .473-.087.887-.263 1.24-.172.355-.415.63-.727.827a1.98 1.98 0 0 1-1.086.295Zm0-.632c.314 0 .573-.08.776-.242.202-.16.353-.372.45-.635a2.44 2.44 0 0 0 .146-.853c0-.306-.049-.592-.146-.856a1.443 1.443 0 0 0-.45-.642c-.203-.163-.462-.244-.776-.244s-.573.081-.776.245a1.443 1.443 0 0 0-.45.64c-.098.265-.146.55-.146.857 0 .306.048.59.146.853.097.263.247.474.45.635.203.161.462.242.776.242Zm3.151.537v-4.582h.68v.692h.047a1.1 1.1 0 0 1 .454-.552c.219-.14.465-.211.74-.211a8.205 8.205 0 0 1 .37.012v.715a2.071 2.071 0 0 0-.165-.026 1.606 1.606 0 0 0-.265-.021c-.223 0-.422.046-.597.14a1.028 1.028 0 0 0-.56.934V35.4h-.704Zm6.836.107a1.85 1.85 0 0 1-.79-.164 1.357 1.357 0 0 1-.564-.48 1.354 1.354 0 0 1-.21-.764c0-.262.053-.475.156-.638.103-.165.242-.294.415-.388.173-.093.363-.163.572-.209.211-.047.423-.085.636-.113.278-.036.504-.063.677-.08.175-.02.302-.053.382-.099.081-.046.122-.125.122-.239v-.023c0-.295-.08-.523-.242-.686-.159-.163-.4-.245-.725-.245-.336 0-.6.073-.79.22a1.319 1.319 0 0 0-.403.472l-.668-.239a1.61 1.61 0 0 1 .477-.65 1.8 1.8 0 0 1 .656-.328c.24-.064.474-.095.705-.095.147 0 .316.017.507.053.192.034.378.105.557.212.181.107.332.27.45.486.12.217.18.507.18.871V35.4h-.704v-.62h-.036a1.24 1.24 0 0 1-.239.319c-.11.113-.26.21-.444.289-.185.08-.41.12-.677.12Zm.107-.632a1.4 1.4 0 0 0 .704-.164 1.117 1.117 0 0 0 .585-.97v-.644c-.03.036-.096.069-.197.099a3.32 3.32 0 0 1-.346.074 15.652 15.652 0 0 1-.674.09 2.693 2.693 0 0 0-.513.116.885.885 0 0 0-.382.236.6.6 0 0 0-.143.423c0 .245.09.43.271.555.183.123.415.185.695.185Zm3.278.525v-4.582h.68v.692h.048a1.1 1.1 0 0 1 .453-.552c.219-.14.465-.211.74-.211a8.205 8.205 0 0 1 .37.012v.715a2.071 2.071 0 0 0-.164-.026 1.606 1.606 0 0 0-.266-.021c-.223 0-.421.046-.596.14a1.028 1.028 0 0 0-.56.934V35.4h-.705Zm4.907.095c-.442 0-.823-.097-1.143-.292a1.962 1.962 0 0 1-.737-.823c-.17-.354-.256-.766-.256-1.235 0-.47.085-.883.256-1.241.173-.36.414-.64.722-.841.31-.203.672-.304 1.086-.304.239 0 .474.04.707.119.233.08.445.209.635.388.191.177.344.411.457.704.113.292.17.652.17 1.08v.298h-3.532v-.609h2.816a1.51 1.51 0 0 0-.155-.692 1.169 1.169 0 0 0-.436-.48 1.219 1.219 0 0 0-.662-.176c-.28 0-.523.07-.728.209a1.373 1.373 0 0 0-.468.537c-.11.22-.164.457-.164.71v.405c0 .346.06.64.179.88.121.239.29.42.504.546.215.123.464.185.749.185.185 0 .352-.026.5-.078a1.07 1.07 0 0 0 .392-.238 1.07 1.07 0 0 0 .253-.4l.68.191c-.071.23-.192.434-.36.609a1.758 1.758 0 0 1-.627.405 2.322 2.322 0 0 1-.838.143Zm8.576-3.651-.633.18a1.176 1.176 0 0 0-.176-.308.855.855 0 0 0-.31-.25 1.126 1.126 0 0 0-.504-.099c-.28 0-.514.065-.701.194-.185.127-.277.29-.277.486 0 .175.063.313.19.415.128.101.327.186.597.253l.68.167c.41.1.715.252.916.457.2.203.301.464.301.784 0 .263-.075.497-.227.704-.149.207-.357.37-.626.49a2.29 2.29 0 0 1-.937.178c-.467 0-.854-.101-1.16-.304-.306-.203-.5-.499-.582-.889l.669-.167a.928.928 0 0 0 .36.555c.18.123.413.185.702.185.328 0 .588-.07.781-.209.195-.141.292-.31.292-.507a.533.533 0 0 0-.167-.4c-.111-.109-.282-.19-.513-.244l-.763-.18c-.42-.099-.728-.253-.925-.462a1.12 1.12 0 0 1-.292-.79c0-.259.072-.487.217-.686.147-.199.347-.355.6-.468.255-.114.543-.17.865-.17.453 0 .81.099 1.068.298.26.199.445.461.555.787ZM85.07 35.4v-4.582h.681v.716h.06c.095-.244.25-.434.462-.57.213-.137.468-.205.767-.205.302 0 .553.068.754.205.203.136.361.326.475.57h.047c.118-.237.294-.424.528-.564a1.62 1.62 0 0 1 .845-.211c.41 0 .744.128 1.005.384.26.255.39.652.39 1.19V35.4h-.703v-3.066c0-.339-.093-.58-.278-.725a1.027 1.027 0 0 0-.653-.218c-.322 0-.572.097-.749.292a1.043 1.043 0 0 0-.265.734V35.4h-.716v-3.138c0-.26-.085-.47-.254-.63a.908.908 0 0 0-.653-.241.965.965 0 0 0-.513.146 1.104 1.104 0 0 0-.382.406 1.197 1.197 0 0 0-.143.593V35.4h-.704Zm8.65.107a1.85 1.85 0 0 1-.79-.164 1.357 1.357 0 0 1-.564-.48 1.354 1.354 0 0 1-.21-.764c0-.262.053-.475.156-.638.103-.165.242-.294.415-.388.173-.093.364-.163.572-.209.211-.047.423-.085.636-.113.278-.036.504-.063.677-.08a1.04 1.04 0 0 0 .382-.099c.081-.046.122-.125.122-.239v-.023c0-.295-.08-.523-.242-.686-.159-.163-.4-.245-.724-.245-.337 0-.6.073-.791.22-.19.148-.325.305-.403.472l-.668-.239c.12-.278.279-.495.477-.65.201-.157.42-.266.657-.328.238-.064.473-.095.704-.095.147 0 .316.017.507.053.193.034.379.105.558.212.18.107.33.27.45.486.12.217.179.507.179.871V35.4h-.704v-.62h-.036a1.24 1.24 0 0 1-.238.319c-.112.113-.26.21-.445.289-.185.08-.41.12-.677.12Zm.107-.632a1.4 1.4 0 0 0 .704-.164 1.118 1.118 0 0 0 .585-.97v-.644c-.03.036-.095.069-.197.099-.1.027-.215.052-.346.074a15.575 15.575 0 0 1-.674.09 2.691 2.691 0 0 0-.513.116.884.884 0 0 0-.382.236.6.6 0 0 0-.143.423c0 .245.09.43.271.555.183.123.415.185.695.185Zm3.982-5.585v6.11h-.704v-6.11h.704Zm1.993 0v6.11h-.704v-6.11h.704Zm3.211 6.205c-.442 0-.823-.097-1.143-.292a1.964 1.964 0 0 1-.737-.823c-.171-.354-.256-.766-.256-1.235 0-.47.085-.883.256-1.241.173-.36.414-.64.722-.841.31-.203.672-.304 1.086-.304.239 0 .474.04.707.119.233.08.444.209.635.388.191.177.343.411.457.704.113.292.17.652.17 1.08v.298h-3.532v-.609h2.816a1.51 1.51 0 0 0-.155-.692 1.173 1.173 0 0 0-1.098-.656c-.28 0-.523.07-.728.209a1.369 1.369 0 0 0-.468.537c-.109.22-.164.457-.164.71v.405c0 .346.059.64.179.88.121.239.289.42.504.546.215.123.464.185.749.185.185 0 .352-.026.501-.078.151-.053.281-.133.391-.238.109-.107.193-.24.253-.4l.68.191c-.071.23-.192.434-.361.609a1.762 1.762 0 0 1-.626.405 2.324 2.324 0 0 1-.838.143Zm2.968-.095v-4.582h.68v.692h.048c.083-.227.234-.41.453-.552.219-.14.465-.211.74-.211a8.295 8.295 0 0 1 .37.012v.715a2.119 2.119 0 0 0-.164-.026 1.612 1.612 0 0 0-.266-.021c-.223 0-.422.046-.597.14a1.024 1.024 0 0 0-.56.934V35.4h-.704Zm5.488 0v-4.582h.704V35.4h-.704Zm.358-5.345a.498.498 0 0 1-.355-.14.45.45 0 0 1-.147-.338.45.45 0 0 1 .147-.337.498.498 0 0 1 .355-.14c.137 0 .254.047.352.14a.447.447 0 0 1 .149.337c0 .131-.05.244-.149.337a.491.491 0 0 1-.352.14Zm2.339 2.589V35.4h-.704v-4.582h.68v.716h.06c.107-.233.27-.42.489-.56.219-.144.501-.215.847-.215.31 0 .582.063.814.19.233.126.414.317.543.573.13.255.194.577.194.967V35.4h-.704v-2.864c0-.36-.093-.64-.28-.84-.187-.204-.444-.305-.77-.305-.224 0-.425.049-.602.146-.175.098-.314.24-.415.427a1.413 1.413 0 0 0-.152.68Zm9.818-.8-.633.18a1.17 1.17 0 0 0-.176-.308.85.85 0 0 0-.31-.25 1.124 1.124 0 0 0-.504-.099c-.281 0-.514.065-.701.194-.185.127-.278.29-.278.486 0 .175.064.313.191.415.128.101.326.186.597.253l.68.167c.41.1.715.252.916.457.201.203.301.464.301.784 0 .263-.075.497-.227.704a1.51 1.51 0 0 1-.626.49 2.297 2.297 0 0 1-.937.178c-.467 0-.854-.101-1.16-.304-.306-.203-.5-.499-.582-.889l.668-.167c.064.247.184.432.361.555.179.123.413.185.701.185.328 0 .589-.07.782-.209.195-.141.292-.31.292-.507a.53.53 0 0 0-.167-.4c-.111-.109-.282-.19-.513-.244l-.764-.18c-.419-.099-.727-.253-.924-.462a1.12 1.12 0 0 1-.293-.79c0-.259.073-.487.218-.686a1.48 1.48 0 0 1 .6-.468c.254-.114.543-.17.865-.17.453 0 .809.099 1.068.298.26.199.445.461.555.787Zm1.143 3.556v-4.582h.704V35.4h-.704Zm.358-5.345a.5.5 0 0 1-.355-.14.448.448 0 0 1-.146-.338.45.45 0 0 1 .146-.337.5.5 0 0 1 .355-.14c.137 0 .254.047.352.14a.447.447 0 0 1 .149.337c0 .131-.05.244-.149.337a.491.491 0 0 1-.352.14Zm1.504 5.345v-.537l2.601-3.34v-.049h-2.518v-.656h3.425v.561l-2.53 3.317v.048h2.613v.656h-3.591Zm6.465.095c-.441 0-.822-.097-1.142-.292a1.964 1.964 0 0 1-.737-.823c-.171-.354-.256-.766-.256-1.235 0-.47.085-.883.256-1.241.173-.36.414-.64.722-.841.31-.203.672-.304 1.086-.304.238 0 .474.04.707.119.232.08.444.209.635.388.191.177.343.411.457.704.113.292.17.652.17 1.08v.298h-3.532v-.609h2.816a1.51 1.51 0 0 0-.155-.692 1.173 1.173 0 0 0-1.098-.656c-.281 0-.523.07-.728.209a1.369 1.369 0 0 0-.468.537 1.57 1.57 0 0 0-.164.71v.405c0 .346.059.64.179.88.121.239.289.42.504.546.214.123.464.185.748.185.185 0 .352-.026.502-.078.151-.053.281-.133.39-.238.11-.107.194-.24.254-.4l.68.191a1.52 1.52 0 0 1-.361.609 1.762 1.762 0 0 1-.626.405 2.325 2.325 0 0 1-.839.143Z" opacity=".6"/></svg>