<svg xmlns="http://www.w3.org/2000/svg" width="216" height="38" fill="none"><path fill="#000" d="M3.283 12.372c-1.137 0-2.52-.388-2.808-.648-.144-.13-.187-.259-.187-.46V8.988c0-.1.072-.172.173-.172h.1c.101 0 .173.043.202.144.475 2.016 1.44 2.865 2.664 2.865 1.095 0 1.67-.82 1.67-1.685 0-2.419-4.579-3.398-4.579-6.206 0-1.411.965-2.42 2.708-2.42.964 0 1.944.289 2.318.606.144.13.187.259.187.46v1.772c0 .1-.072.172-.173.172h-.115c-.1 0-.173-.043-.201-.144-.49-1.713-1.181-2.318-2.175-2.318-.777 0-1.31.547-1.31 1.354 0 2.275 4.593 3.11 4.593 6.177 0 1.44-.993 2.78-3.067 2.78Zm5.815 0c-1.383 0-2.002-.964-2.002-2.376V6.123c0-.375-.36-.663-.705-.735-.072-.014-.116-.057-.116-.187V5.13c0-.144.044-.173.13-.173.317 0 .634.072 1.109.072.216 0 .446-.028.734-.028.346 0 .144.302.144 1.41v3.097c0 1.397.475 1.944 1.239 1.944.518 0 1.094-.303 1.353-.965V6.123c0-.375-.36-.663-.706-.735-.072-.014-.115-.057-.115-.187V5.13c0-.144.043-.173.13-.173.317 0 .634.072 1.109.072.216 0 .446-.028.734-.028.346 0 .144.302.144 1.41v3.86c0 .59.187.85.677.98.072.014.1.071.1.143v.115a.14.14 0 0 1-.114.144c-.49.058-1.224.317-1.527.605-.072.058-.13.072-.245.029-.1-.043-.13-.1-.13-.173v-.878c-.489.792-1.194 1.137-1.943 1.137Zm7.528 0c-1.152 0-1.526-.648-1.944-.648-.216 0-.331.058-.432.274-.058.115-.13.158-.245.158h-.072c-.144 0-.216-.086-.201-.23.028-.245.043-.907.043-1.152v-8.02c0-.36-.216-.62-.677-.75-.072-.014-.1-.072-.1-.144v-.115a.14.14 0 0 1 .114-.144c.692-.144 1.138-.331 1.556-.605a.196.196 0 0 1 .172-.028l.072.028c.072.03.101.087.101.159v4.493c.504-.576 1.152-.836 1.915-.836 1.714 0 2.91 1.268 2.91 3.514 0 2.78-1.585 4.046-3.212 4.046Zm-1.555-1.468a1.886 1.886 0 0 0 1.613.921c.907 0 1.742-.749 1.742-3.153 0-2.261-.792-3.125-1.915-3.125-.533 0-1.08.245-1.44.691v4.666Zm7.616 1.468c-.95 0-1.815-.288-2.088-.518-.159-.144-.188-.23-.188-.475V9.752a.13.13 0 0 1 .13-.13h.115c.072 0 .144.058.173.173.288 1.238 1.08 2.088 2.06 2.088.69 0 1.065-.403 1.065-1.051 0-1.628-3.442-2.247-3.442-4.277 0-1.037.764-1.743 2.103-1.743.792 0 1.54.202 1.8.418.158.144.187.23.187.475v1.267a.13.13 0 0 1-.13.13h-.115c-.072 0-.144-.058-.173-.173-.259-1.166-1.022-1.627-1.684-1.627-.505 0-.864.302-.864.835 0 1.325 3.355 1.858 3.355 4.205 0 1.195-.792 2.03-2.304 2.03Zm5.913 0c-1.67 0-3.168-1.368-3.168-3.93 0-2.262 1.339-3.63 3.096-3.63.749 0 1.57.245 1.886.519.159.144.187.23.187.475v1.382a.13.13 0 0 1-.13.13h-.114c-.072 0-.144-.058-.173-.173-.331-1.267-.864-1.843-1.685-1.843-.98 0-1.656.98-1.656 2.866 0 2.203.994 3.268 2.117 3.268a2.1 2.1 0 0 0 1.641-.792c.072-.086.159-.1.23-.043l.058.043c.072.058.101.13.058.216-.547 1.11-1.382 1.512-2.347 1.512Zm3.471-5.544c0-.36-.187-.619-.677-.748-.072-.015-.1-.072-.1-.144V5.82a.14.14 0 0 1 .115-.144c.633-.13 1.252-.547 1.555-.85.058-.057.13-.042.216-.014.1.044.13.101.13.173v1.008c.475-.691 1.195-1.18 1.742-1.18.734 0 1.094.417 1.094 1.007 0 .447-.273.807-.677.807-.648 0-.561-.706-1.252-.706-.375 0-.663.274-.85.778v4.291c0 .374.36.662.835.734.072.015.116.058.116.188v.072c0 .144-.044.172-.13.172-.576 0-1.037-.072-1.483-.072-.447 0-.879.072-1.325.072-.086 0-.13-.028-.13-.172v-.072c0-.13.058-.173.173-.202.317-.086.648-.36.648-.72V6.828Zm4.428 5.328c-.087 0-.13-.028-.13-.172v-.072c0-.13.058-.173.173-.202.317-.086.648-.36.648-.72V6.972c0-.36-.187-.619-.677-.748-.072-.015-.1-.072-.1-.144v-.116c0-.072.043-.115.115-.144.446-.144 1.195-.576 1.612-.993.058-.058.13-.043.216-.015.101.044.13.101.13.173v6.005c0 .374.36.662.706.734.072.015.115.058.115.188v.072c0 .144-.044.172-.13.172-.446 0-.907-.072-1.353-.072-.447 0-.879.072-1.325.072ZM37.78 3.82c-.518 0-.864-.403-.864-1.023 0-.604.346-1.008.864-1.008.519 0 .85.404.85 1.008 0 .62-.331 1.023-.85 1.023Zm5.426 8.552c-.59 0-1.08-.13-1.628-.432v2.19c0 .374.36.662.85.734.072.014.115.057.115.187v.072c0 .144-.043.173-.13.173-.59 0-1.05-.072-1.468-.072-.418 0-.85.072-1.296.072-.087 0-.13-.03-.13-.173v-.072c0-.13.058-.173.173-.202.317-.086.648-.36.648-.72v-7.3c0-.36-.187-.62-.677-.75-.072-.014-.1-.071-.1-.143V5.82a.14.14 0 0 1 .114-.144c.634-.13 1.253-.547 1.556-.85.057-.057.13-.042.216-.014.1.044.13.101.13.173v.735c.503-.59 1.166-.908 2.015-.908 1.599 0 2.808 1.253 2.808 3.384 0 2.434-1.382 4.176-3.197 4.176Zm-1.57-1.396c.446.619 1.022.85 1.57.85.892 0 1.785-.85 1.785-3.198 0-2.088-.677-3.081-1.814-3.081-.62 0-1.239.345-1.541.792v4.637Zm7.273 1.396c-.994 0-1.512-.604-1.512-2.347v-4.42c-.26 0-.418.028-.576.028-.173 0-.202-.072-.202-.173v-.057c0-.101.043-.13.245-.23.36-.173.864-.591 1.469-1.757.043-.087.13-.087.187-.058l.072.029c.072.029.1.086.1.158v1.44c.548-.014.893-.029 1.268-.057.273-.015.36.028.36.187v.23c0 .159-.087.245-.346.245l-1.281-.014v3.96c0 1.497.216 1.944.777 1.944.187 0 .418-.072.663-.23.086-.058.172-.087.244 0l.058.071c.058.072.072.159 0 .26-.317.46-.936.791-1.526.791Zm1.919-.216c-.086 0-.13-.028-.13-.172v-.072c0-.13.058-.173.174-.202.316-.086.648-.36.648-.72V6.972c0-.36-.188-.619-.677-.748-.072-.015-.101-.072-.101-.144v-.116c0-.072.043-.115.115-.144.447-.144 1.195-.576 1.613-.993.058-.058.13-.043.216-.015.1.044.13.101.13.173v6.005c0 .374.36.662.705.734.072.015.115.058.115.188v.072c0 .144-.043.172-.13.172-.446 0-.906-.072-1.353-.072-.446 0-.878.072-1.325.072ZM52.11 3.82c-.518 0-.864-.403-.864-1.023 0-.604.346-1.008.864-1.008s.85.404.85 1.008c0 .62-.332 1.023-.85 1.023Zm4.824 8.552c-1.872 0-3.082-1.483-3.082-3.744 0-2.304 1.21-3.816 3.067-3.816 1.844 0 3.024 1.484 3.024 3.716 0 2.318-1.18 3.844-3.01 3.844Zm.072-.446c.979 0 1.526-1.195 1.526-3.226 0-2.174-.62-3.441-1.67-3.441-1.008 0-1.599 1.022-1.599 3.24 0 2.16.648 3.427 1.743 3.427Zm8.077-4.507c0-1.253-.418-1.685-1.21-1.685-.518 0-1.109.302-1.382.965v4.291c0 .374.36.662.705.734.072.015.115.058.115.188v.072c0 .144-.043.172-.13.172-.446 0-.906-.072-1.353-.072-.446 0-.878.072-1.325.072-.086 0-.13-.028-.13-.172v-.072c0-.13.058-.173.174-.202.316-.086.648-.36.648-.72V6.828c0-.36-.188-.619-.677-.748-.072-.015-.101-.072-.101-.144V5.82a.14.14 0 0 1 .115-.144c.634-.13 1.253-.547 1.555-.85.058-.057.13-.042.216-.014.101.044.13.101.13.173v.965c.49-.792 1.195-1.138 1.944-1.138 1.382 0 2.002.85 2.002 2.376v3.802c0 .374.36.662.705.734.072.015.115.058.115.188v.072c0 .144-.043.172-.13.172-.446 0-.906-.072-1.353-.072-.446 0-.878.072-1.325.072-.086 0-.13-.028-.13-.172v-.072c0-.13.058-.173.174-.202.316-.086.648-.36.648-.72V7.419Z"/><path fill="#000" d="M4.916 21.956c-.066-.2-.152-.38-.26-.54a1.665 1.665 0 0 0-.378-.411c-.146-.113-.31-.2-.496-.26a1.972 1.972 0 0 0-.608-.09 1.81 1.81 0 0 0-.987.281c-.297.187-.532.463-.707.826-.175.364-.263.81-.263 1.34 0 .529.089.975.266 1.34.177.363.416.639.718.825a1.9 1.9 0 0 0 1.02.28c.35 0 .659-.074.925-.223.269-.15.478-.364.627-.638.15-.277.227-.602.227-.976l.226.048H3.39v-.656h2.326v.656c0 .503-.107.94-.322 1.313-.213.371-.507.66-.883.865a2.66 2.66 0 0 1-1.288.304c-.541 0-1.017-.127-1.426-.382a2.572 2.572 0 0 1-.955-1.086c-.226-.469-.34-1.026-.34-1.67 0-.483.065-.918.194-1.304a2.88 2.88 0 0 1 .555-.99c.239-.272.521-.481.847-.626a2.618 2.618 0 0 1 1.077-.218c.322 0 .622.049.9.146a2.416 2.416 0 0 1 1.301 1.038c.148.243.249.512.305.808h-.764Zm1.971 4.2v-4.581h.68v.692h.048a1.1 1.1 0 0 1 .453-.552c.219-.141.466-.212.74-.212a7.756 7.756 0 0 1 .37.012v.716a2.097 2.097 0 0 0-.164-.027 1.617 1.617 0 0 0-.266-.02 1.24 1.24 0 0 0-.596.14 1.029 1.029 0 0 0-.56.934v2.898h-.705Zm4.907.096c-.442 0-.822-.098-1.143-.292a1.962 1.962 0 0 1-.736-.824c-.171-.354-.257-.765-.257-1.235 0-.469.086-.883.257-1.24.173-.36.413-.64.722-.842a1.94 1.94 0 0 1 1.085-.304c.239 0 .475.04.707.12.233.079.445.208.636.387.19.177.343.412.456.704.113.292.17.652.17 1.08v.298H10.16v-.608h2.816c0-.259-.051-.49-.155-.692a1.17 1.17 0 0 0-1.098-.657c-.28 0-.523.07-.727.21a1.373 1.373 0 0 0-.469.536c-.11.22-.164.457-.164.71v.406c0 .346.06.64.18.88.12.238.288.42.503.546.215.123.465.184.749.184.185 0 .352-.025.501-.077.151-.054.281-.133.39-.239.11-.107.195-.24.254-.4l.68.192c-.071.23-.191.433-.36.608a1.76 1.76 0 0 1-.627.406 2.322 2.322 0 0 1-.838.143Zm4.316.012c-.29 0-.554-.055-.79-.164a1.357 1.357 0 0 1-.564-.48 1.354 1.354 0 0 1-.209-.764c0-.263.052-.475.155-.639.104-.165.242-.294.415-.387.173-.094.364-.163.573-.21a6.97 6.97 0 0 1 .635-.112c.278-.036.504-.063.677-.081.175-.02.302-.053.382-.098.081-.046.122-.126.122-.239v-.024c0-.294-.08-.523-.241-.686-.16-.163-.401-.245-.725-.245-.336 0-.6.074-.79.221a1.288 1.288 0 0 0-.403.471l-.669-.238c.12-.279.279-.495.478-.65.2-.158.42-.267.656-.329.239-.063.473-.095.704-.095.147 0 .316.018.507.054.193.034.379.104.558.211.18.108.331.27.45.487.12.216.18.507.18.87v3.02h-.705v-.621h-.035c-.048.1-.128.206-.24.32a1.37 1.37 0 0 1-.444.288c-.184.08-.41.12-.677.12Zm.108-.633c.278 0 .513-.054.704-.164a1.117 1.117 0 0 0 .584-.97v-.643c-.03.035-.095.068-.197.098a3.239 3.239 0 0 1-.346.075 15.645 15.645 0 0 1-.674.09 2.692 2.692 0 0 0-.513.115.884.884 0 0 0-.382.236.6.6 0 0 0-.143.424c0 .244.09.43.272.555.183.123.414.184.695.184Zm5.27-4.056v.596h-2.375v-.596h2.375Zm-1.683-1.098h.704v4.367c0 .199.03.348.087.447.06.098.135.163.227.197a.91.91 0 0 0 .295.048c.078 0 .141-.004.19-.012l.12-.024.143.633a1.472 1.472 0 0 1-.525.084c-.199 0-.393-.044-.584-.13a1.161 1.161 0 0 1-.472-.39c-.123-.175-.185-.396-.185-.662v-4.558Zm7.145 1.098v.596h-2.47v-.596h2.47Zm-1.73 4.581v-5.214c0-.262.061-.481.184-.656a1.16 1.16 0 0 1 .48-.394c.197-.087.405-.131.624-.131a1.645 1.645 0 0 1 .668.12l-.203.608a3.545 3.545 0 0 0-.149-.045.904.904 0 0 0-.244-.027c-.233 0-.401.059-.504.176-.102.118-.153.29-.153.516v5.047h-.703Zm2.716 0v-4.581h.704v4.581h-.704Zm.358-5.345a.5.5 0 0 1-.355-.14.45.45 0 0 1-.146-.337.45.45 0 0 1 .146-.337.5.5 0 0 1 .355-.14.49.49 0 0 1 .352.14c.1.093.15.206.15.337 0 .131-.05.243-.15.337a.49.49 0 0 1-.352.14Zm3.628.764v.596h-2.374v-.596h2.374Zm-1.682-1.098h.704v4.367c0 .199.029.348.086.447a.45.45 0 0 0 .227.197.91.91 0 0 0 .295.048c.078 0 .142-.004.191-.012l.12-.024.143.633a1.47 1.47 0 0 1-.525.084c-.2 0-.394-.044-.585-.13a1.161 1.161 0 0 1-.471-.39c-.124-.175-.185-.396-.185-.662v-4.558Zm7.144 1.098v.596h-2.47v-.596h2.47Zm-1.73 4.581v-5.214c0-.262.061-.481.185-.656.123-.175.283-.306.48-.394.197-.087.405-.131.623-.131a1.649 1.649 0 0 1 .668.12l-.202.608a3.545 3.545 0 0 0-.15-.045.904.904 0 0 0-.244-.027c-.233 0-.4.059-.504.176-.102.118-.152.29-.152.516v5.047h-.704Zm4.389.096c-.413 0-.776-.098-1.088-.295a2.006 2.006 0 0 1-.728-.827c-.173-.354-.26-.767-.26-1.24 0-.478.087-.895.26-1.25a2 2 0 0 1 .728-.83 1.997 1.997 0 0 1 1.088-.295c.414 0 .776.098 1.086.295.312.197.555.474.728.83.175.355.262.772.262 1.25 0 .473-.087.886-.262 1.24-.173.354-.416.63-.728.827a1.98 1.98 0 0 1-1.086.295Zm0-.633c.315 0 .573-.08.776-.241.203-.161.353-.373.45-.636.098-.262.146-.546.146-.853 0-.306-.048-.591-.146-.856a1.441 1.441 0 0 0-.45-.641c-.203-.163-.462-.245-.776-.245s-.572.082-.775.245a1.441 1.441 0 0 0-.45.641c-.098.265-.147.55-.147.856 0 .307.049.591.146.854.098.262.248.474.45.635.203.161.462.241.776.241Zm3.151.537v-4.581h.68v.692h.048a1.1 1.1 0 0 1 .453-.552c.219-.141.466-.212.74-.212a7.754 7.754 0 0 1 .37.012v.716a2.098 2.098 0 0 0-.164-.027 1.618 1.618 0 0 0-.266-.02 1.24 1.24 0 0 0-.596.14 1.029 1.029 0 0 0-.56.934v2.898h-.705Zm5.488 1.719v-6.3h.68v.727h.084c.051-.08.123-.18.214-.304a1.26 1.26 0 0 1 .4-.334c.175-.1.412-.149.71-.149.386 0 .726.096 1.02.29.294.192.524.466.69.82.164.354.247.771.247 1.253 0 .485-.083.905-.248 1.261a1.954 1.954 0 0 1-.686.823c-.292.193-.63.29-1.011.29-.294 0-.53-.049-.707-.146a1.31 1.31 0 0 1-.409-.337 4.514 4.514 0 0 1-.22-.316h-.06v2.422h-.704Zm.692-4.01c0 .347.05.652.152.916.101.263.25.469.444.618.195.147.434.22.716.22.295 0 .54-.077.737-.232.2-.157.348-.368.448-.633.101-.266.152-.562.152-.889 0-.322-.05-.612-.15-.87a1.347 1.347 0 0 0-.444-.618c-.197-.153-.444-.23-.743-.23-.286 0-.527.073-.721.218a1.306 1.306 0 0 0-.442.603c-.1.256-.15.555-.15.898Zm4.426 2.291v-4.581h.68v.692h.049a1.1 1.1 0 0 1 .453-.552c.219-.141.465-.212.74-.212a7.76 7.76 0 0 1 .37.012v.716a2.103 2.103 0 0 0-.164-.027 1.616 1.616 0 0 0-.266-.02c-.223 0-.422.046-.597.14a1.028 1.028 0 0 0-.56.934v2.898H53.8Zm4.848.096c-.414 0-.777-.098-1.089-.295a2.006 2.006 0 0 1-.728-.827c-.173-.354-.26-.767-.26-1.24 0-.478.087-.895.26-1.25.175-.356.418-.633.728-.83a1.997 1.997 0 0 1 1.089-.295c.414 0 .775.098 1.086.295.312.197.555.474.728.83.175.355.262.772.262 1.25 0 .473-.087.886-.262 1.24-.173.354-.416.63-.728.827a1.98 1.98 0 0 1-1.086.295Zm0-.633c.314 0 .573-.08.775-.241.203-.161.353-.373.45-.636.098-.262.147-.546.147-.853a2.47 2.47 0 0 0-.146-.856 1.441 1.441 0 0 0-.45-.641c-.203-.163-.462-.245-.776-.245s-.573.082-.776.245a1.441 1.441 0 0 0-.45.641 2.47 2.47 0 0 0-.146.856c0 .307.048.591.146.854.097.262.248.474.45.635.203.161.462.241.776.241Zm4.881.633a1.79 1.79 0 0 1-1.011-.29 1.954 1.954 0 0 1-.687-.823c-.165-.356-.247-.776-.247-1.261 0-.482.082-.9.247-1.253.166-.354.395-.628.69-.82.294-.194.634-.29 1.02-.29.298 0 .534.05.707.15.175.097.308.208.4.333.093.123.166.225.217.304h.06v-2.255h.704v6.11h-.68v-.704h-.084a4.514 4.514 0 0 1-.22.316 1.31 1.31 0 0 1-.41.337c-.176.097-.412.146-.706.146Zm.095-.633c.283 0 .521-.073.716-.22a1.39 1.39 0 0 0 .445-.618c.101-.264.152-.57.152-.915 0-.343-.05-.642-.15-.898a1.305 1.305 0 0 0-.44-.603 1.174 1.174 0 0 0-.723-.218c-.298 0-.547.077-.745.23a1.375 1.375 0 0 0-.445.617 2.453 2.453 0 0 0-.146.872c0 .326.05.622.149.889.102.264.25.475.448.632.198.155.445.232.74.232Zm6.279-1.336v-2.708h.704v4.581h-.704v-.775h-.047c-.108.232-.275.43-.501.593-.227.162-.514.242-.86.242a1.53 1.53 0 0 1-.763-.188 1.316 1.316 0 0 1-.525-.573c-.127-.256-.191-.58-.191-.969v-2.911h.704v2.863c0 .334.093.6.28.8.19.199.43.298.722.298a1.2 1.2 0 0 0 .534-.134c.183-.09.336-.227.46-.412.125-.185.187-.42.187-.707Zm3.855 1.969c-.43 0-.8-.101-1.11-.304a1.983 1.983 0 0 1-.715-.839 2.84 2.84 0 0 1-.251-1.22c0-.465.085-.876.257-1.232.173-.358.413-.637.721-.838a1.94 1.94 0 0 1 1.086-.304c.322 0 .613.06.871.179.259.12.47.286.636.501.165.215.267.465.307.752h-.704a1.091 1.091 0 0 0-.358-.555c-.183-.163-.43-.245-.74-.245a1.24 1.24 0 0 0-.722.215 1.399 1.399 0 0 0-.48.6 2.22 2.22 0 0 0-.17.904c0 .354.056.662.167.924.113.263.272.467.477.612.207.145.45.217.728.217.183 0 .35-.031.498-.095a1.029 1.029 0 0 0 .6-.704h.704a1.631 1.631 0 0 1-.913 1.244 1.99 1.99 0 0 1-.889.188Zm4.824-4.677v.596h-2.375v-.596h2.375Zm-1.683-1.098h.704v4.367c0 .199.029.348.087.447.06.098.135.163.226.197a.91.91 0 0 0 .296.048c.077 0 .14-.004.19-.012l.12-.024.143.633a1.47 1.47 0 0 1-.525.084c-.199 0-.394-.044-.585-.13a1.161 1.161 0 0 1-.47-.39c-.124-.175-.186-.396-.186-.662v-4.558Zm2.741 5.679v-4.581h.704v4.581h-.703Zm.358-5.345a.5.5 0 0 1-.355-.14.45.45 0 0 1-.146-.337.45.45 0 0 1 .147-.337.5.5 0 0 1 .354-.14.49.49 0 0 1 .352.14c.1.093.15.206.15.337 0 .131-.05.243-.15.337a.49.49 0 0 1-.352.14Zm1.505 5.345v-.537l2.6-3.34v-.048h-2.517v-.656h3.424v.56l-2.529 3.317v.048h2.613v.656h-3.591Zm6.465.096c-.441 0-.822-.098-1.142-.292a1.962 1.962 0 0 1-.737-.824c-.171-.354-.257-.765-.257-1.235 0-.469.086-.883.257-1.24.173-.36.413-.64.722-.842a1.94 1.94 0 0 1 1.086-.304c.238 0 .474.04.706.12.233.079.445.208.636.387.19.177.343.412.456.704.114.292.17.652.17 1.08v.298h-3.531v-.608h2.815c0-.259-.051-.49-.155-.692a1.17 1.17 0 0 0-1.097-.657c-.28 0-.523.07-.728.21a1.374 1.374 0 0 0-.469.536c-.109.22-.164.457-.164.71v.406c0 .346.06.64.18.88.12.238.289.42.503.546.215.123.465.184.75.184.184 0 .351-.025.5-.077.151-.054.282-.133.391-.239.11-.107.194-.24.254-.4l.68.192c-.072.23-.192.433-.361.608a1.76 1.76 0 0 1-.627.406 2.323 2.323 0 0 1-.838.143Zm4.698 0c-.382 0-.719-.097-1.01-.29a1.954 1.954 0 0 1-.687-.823c-.165-.356-.248-.776-.248-1.261 0-.482.083-.9.248-1.253.165-.354.395-.628.69-.82.293-.194.633-.29 1.02-.29.297 0 .533.05.706.15.175.097.308.208.4.333.093.123.166.225.218.304h.06v-2.255h.703v6.11h-.68v-.704h-.083a4.514 4.514 0 0 1-.221.316 1.311 1.311 0 0 1-.409.337c-.177.097-.412.146-.707.146Zm.096-.633c.282 0 .52-.073.716-.22.195-.15.343-.355.444-.618.102-.264.152-.57.152-.915 0-.343-.05-.642-.149-.898-.1-.259-.246-.46-.441-.603a1.174 1.174 0 0 0-.722-.218c-.299 0-.547.077-.746.23a1.375 1.375 0 0 0-.444.617 2.453 2.453 0 0 0-.147.872c0 .326.05.622.15.889.101.264.25.475.447.632.199.155.445.232.74.232Zm8.999-3.019-.632.18a1.168 1.168 0 0 0-.176-.308.86.86 0 0 0-.31-.25 1.131 1.131 0 0 0-.504-.099c-.28 0-.514.065-.701.194-.185.128-.278.29-.278.487a.5.5 0 0 0 .191.414c.127.102.326.186.597.254l.68.167c.409.1.715.251.916.456.2.203.301.465.301.785 0 .262-.076.497-.227.704a1.5 1.5 0 0 1-.626.489 2.28 2.28 0 0 1-.937.179c-.467 0-.854-.101-1.16-.304-.306-.203-.5-.5-.582-.89l.668-.166a.929.929 0 0 0 .361.555c.18.123.413.184.701.184.328 0 .589-.07.782-.208.195-.142.292-.31.292-.507a.534.534 0 0 0-.167-.4c-.111-.11-.282-.191-.513-.245l-.764-.179c-.42-.1-.728-.253-.924-.462a1.12 1.12 0 0 1-.293-.79c0-.26.073-.488.218-.687.147-.198.347-.355.6-.468.254-.113.542-.17.865-.17.453 0 .809.1 1.068.298.26.2.445.462.554.788Zm3.065 3.652c-.442 0-.823-.098-1.143-.292a1.964 1.964 0 0 1-.737-.824c-.171-.354-.256-.765-.256-1.235 0-.469.085-.883.256-1.24.173-.36.414-.64.722-.842.31-.203.672-.304 1.086-.304.239 0 .474.04.707.12.233.079.444.208.635.387.191.177.343.412.457.704.113.292.17.652.17 1.08v.298h-3.532v-.608h2.816c0-.259-.052-.49-.155-.692a1.174 1.174 0 0 0-1.098-.657c-.28 0-.523.07-.728.21a1.369 1.369 0 0 0-.468.536c-.11.22-.164.457-.164.71v.406c0 .346.059.64.179.88.121.238.289.42.504.546.215.123.464.184.749.184.185 0 .352-.025.501-.077.151-.054.281-.133.39-.239.11-.107.194-.24.254-.4l.68.192c-.071.23-.192.433-.361.608a1.762 1.762 0 0 1-.626.406 2.324 2.324 0 0 1-.838.143Zm2.968-.096v-4.581h.68v.692h.047c.084-.227.235-.411.454-.552.219-.141.465-.212.74-.212a7.844 7.844 0 0 1 .37.012v.716a2.12 2.12 0 0 0-.165-.027 1.61 1.61 0 0 0-.265-.02c-.223 0-.422.046-.597.14a1.024 1.024 0 0 0-.56.934v2.898h-.704Zm7.011-4.581-1.694 4.581h-.716l-1.694-4.581h.763l1.265 3.65h.048l1.264-3.65h.764Zm.929 4.581v-4.581h.704v4.581h-.704Zm.358-5.345a.502.502 0 0 1-.355-.14.452.452 0 0 1-.146-.337c0-.131.049-.244.146-.337a.5.5 0 0 1 .355-.14.49.49 0 0 1 .352.14c.1.093.149.206.149.337a.444.444 0 0 1-.149.337.49.49 0 0 1-.352.14Zm3.497 5.441c-.43 0-.799-.101-1.11-.304a1.984 1.984 0 0 1-.716-.839 2.84 2.84 0 0 1-.25-1.22c0-.465.085-.876.256-1.232a2.03 2.03 0 0 1 .722-.838c.31-.203.672-.304 1.086-.304.322 0 .613.06.871.179.259.12.47.286.635.501.165.215.268.465.308.752h-.704a1.093 1.093 0 0 0-.358-.555c-.183-.163-.43-.245-.74-.245a1.24 1.24 0 0 0-.722.215 1.395 1.395 0 0 0-.48.6 2.21 2.21 0 0 0-.17.904c0 .354.055.662.167.924.113.263.272.467.477.612.207.145.45.217.728.217.183 0 .349-.031.498-.095a1.027 1.027 0 0 0 .6-.704h.704a1.636 1.636 0 0 1-.913 1.244 1.991 1.991 0 0 1-.889.188Zm4.752 0c-.442 0-.822-.098-1.143-.292a1.962 1.962 0 0 1-.736-.824c-.171-.354-.257-.765-.257-1.235 0-.469.086-.883.257-1.24.173-.36.413-.64.721-.842a1.943 1.943 0 0 1 1.086-.304c.239 0 .475.04.707.12.233.079.445.208.636.387.19.177.343.412.456.704.113.292.17.652.17 1.08v.298h-3.532v-.608h2.816c0-.259-.052-.49-.155-.692a1.167 1.167 0 0 0-.436-.48 1.218 1.218 0 0 0-.662-.177c-.28 0-.523.07-.728.21a1.376 1.376 0 0 0-.468.536c-.109.22-.164.457-.164.71v.406c0 .346.06.64.179.88.121.238.289.42.504.546.215.123.464.184.749.184.185 0 .352-.025.501-.077a1.08 1.08 0 0 0 .391-.239 1.08 1.08 0 0 0 .253-.4l.68.192c-.071.23-.192.433-.361.608a1.753 1.753 0 0 1-.626.406 2.324 2.324 0 0 1-.838.143Zm6.213-3.652-.632.18a1.196 1.196 0 0 0-.176-.308.86.86 0 0 0-.31-.25 1.131 1.131 0 0 0-.504-.099c-.281 0-.514.065-.701.194-.185.128-.278.29-.278.487a.5.5 0 0 0 .191.414c.127.102.326.186.597.254l.68.167c.409.1.715.251.916.456.2.203.301.465.301.785 0 .262-.076.497-.227.704a1.5 1.5 0 0 1-.626.489 2.28 2.28 0 0 1-.937.179c-.467 0-.854-.101-1.16-.304-.307-.203-.5-.5-.582-.89l.668-.166a.935.935 0 0 0 .361.555c.179.123.413.184.701.184.328 0 .589-.07.782-.208.195-.142.292-.31.292-.507a.534.534 0 0 0-.167-.4c-.111-.11-.282-.191-.513-.245l-.764-.179c-.419-.1-.728-.253-.924-.462a1.12 1.12 0 0 1-.293-.79c0-.26.073-.488.218-.687a1.48 1.48 0 0 1 .6-.468 2.1 2.1 0 0 1 .865-.17c.453 0 .809.1 1.067.298.261.2.446.462.555.788Zm2.194 2.721-.048.322a6.68 6.68 0 0 1-.155.728 14.72 14.72 0 0 1-.212.731c-.074.229-.134.41-.182.546h-.537l.101-.504c.042-.209.084-.443.126-.701a12.9 12.9 0 0 0 .107-.788l.036-.334h.764Zm3.666.835v-4.581h.68v.692h.048c.084-.227.235-.411.454-.552.218-.141.465-.212.739-.212a7.706 7.706 0 0 1 .37.012v.716a2.062 2.062 0 0 0-.164-.027 1.61 1.61 0 0 0-.265-.02c-.223 0-.422.046-.597.14a1.05 1.05 0 0 0-.412.381 1.032 1.032 0 0 0-.149.552v2.9h-.704Zm4.907.096c-.441 0-.822-.098-1.142-.292a1.964 1.964 0 0 1-.737-.824c-.171-.354-.257-.765-.257-1.235 0-.469.086-.883.257-1.24.173-.36.414-.64.722-.842.31-.203.672-.304 1.086-.304.238 0 .474.04.707.12.232.079.444.208.635.387.191.177.343.412.456.704.114.292.17.652.17 1.08v.298h-3.531v-.608h2.816c0-.259-.052-.49-.156-.692a1.165 1.165 0 0 0-.435-.48 1.22 1.22 0 0 0-.662-.177c-.281 0-.523.07-.728.21a1.369 1.369 0 0 0-.468.536 1.57 1.57 0 0 0-.165.71v.406c0 .346.06.64.179.88.122.238.29.42.505.546.214.123.464.184.748.184.185 0 .352-.025.501-.077a1.06 1.06 0 0 0 .391-.239c.11-.107.194-.24.254-.4l.68.192c-.072.23-.192.433-.361.608a1.757 1.757 0 0 1-.627.406 2.316 2.316 0 0 1-.838.143Zm4.961-4.677v.596h-2.375v-.596h2.375Zm-1.682-1.098h.704v4.367c0 .199.028.348.086.447.06.098.135.163.227.197a.908.908 0 0 0 .295.048c.078 0 .141-.004.191-.012l.119-.024.143.633a1.478 1.478 0 0 1-.525.084c-.198 0-.393-.044-.584-.13a1.167 1.167 0 0 1-.472-.39c-.123-.175-.184-.396-.184-.662v-4.558Zm4.089 5.787a1.86 1.86 0 0 1-.79-.164 1.354 1.354 0 0 1-.564-.48 1.356 1.356 0 0 1-.209-.764c0-.263.052-.475.155-.639.104-.165.242-.294.415-.387.173-.094.364-.163.573-.21.21-.047.422-.085.635-.112.278-.036.504-.063.677-.081.175-.02.302-.053.382-.098.081-.046.122-.126.122-.239v-.024c0-.294-.08-.523-.241-.686-.16-.163-.401-.245-.725-.245-.336 0-.6.074-.791.221a1.295 1.295 0 0 0-.402.471l-.669-.238c.12-.279.279-.495.478-.65.2-.158.419-.267.656-.329.239-.063.473-.095.704-.095.147 0 .316.018.507.054.193.034.379.104.558.211.181.108.331.27.45.487.12.216.179.507.179.87v3.02h-.704v-.621h-.036a1.23 1.23 0 0 1-.238.32c-.112.112-.26.209-.445.288-.185.08-.41.12-.677.12Zm.108-.633c.278 0 .513-.054.704-.164a1.119 1.119 0 0 0 .584-.97v-.643c-.03.035-.095.068-.197.098a3.246 3.246 0 0 1-.346.075 14.986 14.986 0 0 1-.674.09 2.688 2.688 0 0 0-.513.115.89.89 0 0 0-.382.236.602.602 0 0 0-.143.424c0 .244.091.43.272.555.182.123.414.184.695.184Zm3.277.525v-4.581h.704v4.581h-.704Zm.358-5.345a.502.502 0 0 1-.355-.14.452.452 0 0 1-.146-.337c0-.131.049-.244.146-.337a.5.5 0 0 1 .355-.14.49.49 0 0 1 .352.14.448.448 0 0 1 .149.337c0 .131-.05.243-.149.337a.49.49 0 0 1-.352.14Zm2.339 2.589v2.756h-.704v-4.581h.681v.716h.059c.108-.233.271-.42.489-.561.219-.143.502-.215.848-.215.31 0 .581.064.814.19.233.126.414.317.543.574.129.254.194.576.194.966v2.911h-.704v-2.863c0-.36-.094-.64-.281-.841-.187-.203-.443-.305-.769-.305a1.23 1.23 0 0 0-.603.147c-.175.097-.313.24-.414.426a1.402 1.402 0 0 0-.153.68Zm6.131 2.852c-.441 0-.822-.098-1.142-.292a1.957 1.957 0 0 1-.737-.824c-.171-.354-.257-.765-.257-1.235 0-.469.086-.883.257-1.24.173-.36.414-.64.722-.842.31-.203.672-.304 1.086-.304.238 0 .474.04.707.12.232.079.444.208.635.387.191.177.343.412.456.704.114.292.17.652.17 1.08v.298h-3.532v-.608h2.816c0-.259-.051-.49-.155-.692a1.165 1.165 0 0 0-.435-.48 1.22 1.22 0 0 0-.662-.177c-.281 0-.523.07-.728.21a1.379 1.379 0 0 0-.469.536c-.109.22-.164.457-.164.71v.406c0 .346.06.64.179.88.122.238.29.42.504.546.215.123.465.184.749.184.185 0 .352-.025.501-.077.151-.054.282-.133.391-.239.109-.107.194-.24.254-.4l.68.192c-.072.23-.192.433-.361.608a1.757 1.757 0 0 1-.627.406 2.32 2.32 0 0 1-.838.143Zm2.968-.096v-4.581h.68v.692h.048c.084-.227.235-.411.453-.552.219-.141.466-.212.74-.212a7.706 7.706 0 0 1 .37.012v.716a2.062 2.062 0 0 0-.164-.027 1.61 1.61 0 0 0-.265-.02c-.223 0-.422.046-.597.14a1.05 1.05 0 0 0-.412.381 1.032 1.032 0 0 0-.149.552v2.9h-.704Zm6.371-3.556-.632.18a1.196 1.196 0 0 0-.176-.308.854.854 0 0 0-.311-.25 1.125 1.125 0 0 0-.504-.099c-.28 0-.514.065-.701.194-.185.128-.277.29-.277.487a.5.5 0 0 0 .191.414c.127.102.326.186.596.254l.68.167c.41.1.715.251.916.456.201.203.302.465.302.785 0 .262-.076.497-.227.704a1.5 1.5 0 0 1-.627.489c-.268.12-.58.179-.936.179-.468 0-.854-.101-1.161-.304-.306-.203-.5-.5-.581-.89l.668-.166a.935.935 0 0 0 .361.555c.179.123.412.184.701.184.328 0 .588-.07.781-.208.195-.142.293-.31.293-.507a.534.534 0 0 0-.167-.4c-.112-.11-.283-.191-.513-.245l-.764-.179c-.42-.1-.728-.253-.925-.462a1.12 1.12 0 0 1-.292-.79c0-.26.072-.488.218-.687.147-.198.347-.355.599-.468.255-.113.543-.17.865-.17.454 0 .81.1 1.068.298.261.2.446.462.555.788Zm5.367 3.652a2 2 0 0 1-1.089-.295 2.008 2.008 0 0 1-.728-.827c-.173-.354-.259-.767-.259-1.24 0-.478.086-.895.259-1.25.175-.356.418-.633.728-.83a2 2 0 0 1 1.089-.295c.414 0 .776.098 1.086.295.312.197.555.474.728.83.175.355.262.772.262 1.25 0 .473-.087.886-.262 1.24a1.98 1.98 0 0 1-.728.827 1.98 1.98 0 0 1-1.086.295Zm0-.633c.314 0 .573-.08.776-.241a1.42 1.42 0 0 0 .45-.636 2.42 2.42 0 0 0 .146-.853c0-.306-.048-.591-.146-.856a1.437 1.437 0 0 0-.45-.641c-.203-.163-.462-.245-.776-.245s-.573.082-.775.245a1.447 1.447 0 0 0-.451.641 2.47 2.47 0 0 0-.146.856c0 .307.049.591.146.854.098.262.248.474.451.635.202.161.461.241.775.241Zm3.151.537v-4.581h.68v.692h.048c.083-.227.234-.411.453-.552.219-.141.465-.212.74-.212a7.775 7.775 0 0 1 .37.012v.716a2.153 2.153 0 0 0-.164-.027 1.623 1.623 0 0 0-.266-.02c-.223 0-.421.046-.596.14a1.032 1.032 0 0 0-.561.934v2.898h-.704Zm5.488 1.719v-6.3h.68v.727h.083a6.88 6.88 0 0 1 .215-.304c.094-.125.227-.236.4-.334.175-.1.412-.149.71-.149.386 0 .726.096 1.02.29.294.192.524.466.689.82.165.354.248.771.248 1.253 0 .485-.083.905-.248 1.261a1.955 1.955 0 0 1-.686.823c-.292.193-.629.29-1.011.29-.295 0-.53-.049-.707-.146a1.319 1.319 0 0 1-.409-.337 4.82 4.82 0 0 1-.221-.316h-.059v2.422h-.704Zm.692-4.01c0 .347.05.652.152.916.101.263.249.469.444.618.195.147.434.22.716.22.295 0 .54-.077.737-.232.199-.157.348-.368.448-.633.101-.266.152-.562.152-.889 0-.322-.05-.612-.15-.87a1.341 1.341 0 0 0-.444-.618c-.197-.153-.444-.23-.743-.23-.286 0-.527.073-.722.218a1.309 1.309 0 0 0-.441.603 2.486 2.486 0 0 0-.149.898Zm4.426 2.291v-4.581h.681v.692h.047c.084-.227.235-.411.454-.552.219-.141.465-.212.74-.212a7.704 7.704 0 0 1 .369.012v.716a1.979 1.979 0 0 0-.164-.027 1.61 1.61 0 0 0-.265-.02c-.223 0-.422.046-.597.14a1.024 1.024 0 0 0-.561.934v2.898h-.704Zm4.848.096c-.414 0-.777-.098-1.089-.295a2.008 2.008 0 0 1-.728-.827c-.173-.354-.259-.767-.259-1.24 0-.478.086-.895.259-1.25.175-.356.418-.633.728-.83a1.997 1.997 0 0 1 1.089-.295c.413 0 .775.098 1.086.295.312.197.554.474.727.83.175.355.263.772.263 1.25 0 .473-.088.886-.263 1.24-.173.354-.415.63-.727.827a1.987 1.987 0 0 1-1.086.295Zm0-.633c.314 0 .573-.08.775-.241.203-.161.353-.373.451-.636.097-.262.146-.546.146-.853a2.47 2.47 0 0 0-.146-.856 1.447 1.447 0 0 0-.451-.641c-.202-.163-.461-.245-.775-.245s-.573.082-.776.245a1.437 1.437 0 0 0-.45.641c-.098.265-.146.55-.146.856 0 .307.048.591.146.854.097.262.247.474.45.635.203.161.462.241.776.241Zm3.151-4.044h.704v4.916c0 .282-.049.526-.147.733-.095.207-.24.367-.435.48-.193.114-.437.17-.731.17h-.143v-.656h.131c.215 0 .372-.063.471-.19.1-.126.15-.305.15-.537v-4.916Zm.346-.764a.498.498 0 0 1-.355-.14.45.45 0 0 1-.147-.337.45.45 0 0 1 .147-.337.499.499 0 0 1 .355-.14.49.49 0 0 1 .352.14.448.448 0 0 1 .149.337c0 .131-.05.243-.149.337a.491.491 0 0 1-.352.14Zm3.568 5.441c-.442 0-.822-.098-1.143-.292a1.962 1.962 0 0 1-.736-.824c-.171-.354-.257-.765-.257-1.235 0-.469.086-.883.257-1.24.173-.36.413-.64.722-.842.31-.203.672-.304 1.085-.304.239 0 .475.04.707.12.233.079.445.208.636.387.191.177.343.412.456.704.113.292.17.652.17 1.08v.298h-3.532v-.608h2.816c0-.259-.052-.49-.155-.692a1.172 1.172 0 0 0-.435-.48 1.222 1.222 0 0 0-.663-.177c-.28 0-.523.07-.728.21a1.385 1.385 0 0 0-.468.536c-.109.22-.164.457-.164.71v.406c0 .346.06.64.179.88.121.238.289.42.504.546.215.123.465.184.749.184.185 0 .352-.025.501-.077a1.08 1.08 0 0 0 .391-.239 1.08 1.08 0 0 0 .253-.4l.68.192a1.5 1.5 0 0 1-.36.608 1.757 1.757 0 0 1-.627.406 2.32 2.32 0 0 1-.838.143Zm4.829 0c-.429 0-.799-.101-1.109-.304a1.977 1.977 0 0 1-.716-.839 2.84 2.84 0 0 1-.251-1.22c0-.465.086-.876.257-1.232.173-.358.413-.637.722-.838.31-.203.672-.304 1.085-.304.323 0 .613.06.871.179.259.12.471.286.636.501.165.215.267.465.307.752h-.704a1.093 1.093 0 0 0-.358-.555c-.183-.163-.429-.245-.74-.245a1.24 1.24 0 0 0-.722.215 1.41 1.41 0 0 0-.48.6c-.113.256-.17.558-.17.904 0 .354.056.662.167.924.114.263.273.467.477.612.207.145.45.217.728.217.183 0 .349-.031.498-.095a1.019 1.019 0 0 0 .6-.704h.704a1.63 1.63 0 0 1-.295.73 1.648 1.648 0 0 1-.618.514 1.988 1.988 0 0 1-.889.188Zm4.824-4.677v.596h-2.375v-.596h2.375Zm-1.683-1.098h.704v4.367c0 .199.029.348.087.447.06.098.135.163.227.197a.904.904 0 0 0 .295.048c.077 0 .141-.004.191-.012l.119-.024.143.633a1.462 1.462 0 0 1-.525.084c-.199 0-.393-.044-.584-.13a1.167 1.167 0 0 1-.472-.39c-.123-.175-.185-.396-.185-.662v-4.558Zm5.905 2.123-.632.18a1.196 1.196 0 0 0-.176-.308.86.86 0 0 0-.31-.25 1.133 1.133 0 0 0-.505-.099c-.28 0-.514.065-.701.194-.185.128-.277.29-.277.487a.5.5 0 0 0 .191.414c.127.102.326.186.596.254l.681.167c.409.1.715.251.915.456.201.203.302.465.302.785 0 .262-.076.497-.227.704a1.5 1.5 0 0 1-.626.489 2.28 2.28 0 0 1-.937.179c-.467 0-.854-.101-1.161-.304-.306-.203-.5-.5-.581-.89l.668-.166a.935.935 0 0 0 .361.555c.179.123.413.184.701.184.328 0 .589-.07.781-.208.195-.142.293-.31.293-.507a.534.534 0 0 0-.167-.4c-.112-.11-.283-.191-.513-.245l-.764-.179c-.42-.1-.728-.253-.925-.462a1.12 1.12 0 0 1-.292-.79c0-.26.073-.488.218-.687.147-.198.347-.355.599-.468.255-.113.543-.17.865-.17.454 0 .81.1 1.068.298.261.2.446.462.555.788ZM2.637 31.575v.596H.263v-.596h2.374ZM.955 30.477h.704v4.367c0 .199.028.348.086.447.06.098.135.164.227.197a.91.91 0 0 0 .295.048c.078 0 .141-.004.191-.012l.12-.024.143.633a1.47 1.47 0 0 1-.525.084c-.2 0-.394-.044-.585-.13a1.161 1.161 0 0 1-.471-.39c-.124-.175-.185-.396-.185-.662v-4.558ZM4.498 33.4v2.756h-.704v-6.109h.704v2.244h.06c.107-.237.268-.425.483-.564.217-.141.505-.212.865-.212.313 0 .586.063.82.188.235.123.417.313.547.57.13.254.196.578.196.972v2.911h-.704v-2.863c0-.364-.094-.645-.283-.844-.187-.201-.446-.302-.779-.302a1.3 1.3 0 0 0-.62.147 1.08 1.08 0 0 0-.43.426 1.386 1.386 0 0 0-.155.68Zm5.608 2.864c-.29 0-.554-.055-.79-.164a1.357 1.357 0 0 1-.565-.48 1.354 1.354 0 0 1-.208-.764c0-.263.051-.475.155-.639.103-.164.241-.294.414-.387.173-.094.364-.163.573-.21.21-.047.423-.085.635-.112.279-.036.505-.063.678-.081a1.04 1.04 0 0 0 .381-.098c.082-.046.123-.126.123-.239v-.024c0-.294-.08-.523-.242-.686-.16-.163-.4-.245-.725-.245-.336 0-.6.074-.79.221a1.308 1.308 0 0 0-.403.471l-.668-.238c.12-.279.278-.495.477-.65.2-.158.42-.267.656-.329.239-.063.474-.095.704-.095.147 0 .317.018.507.054.193.034.38.104.558.211.181.108.331.27.45.487.12.216.18.507.18.87v3.02h-.704v-.621h-.036c-.048.1-.127.206-.239.32-.111.112-.26.209-.444.288-.185.08-.41.12-.677.12Zm.107-.633c.278 0 .513-.054.704-.164a1.118 1.118 0 0 0 .585-.97v-.643c-.03.035-.096.068-.197.098a3.35 3.35 0 0 1-.346.075 15.645 15.645 0 0 1-.674.09 2.691 2.691 0 0 0-.514.115.884.884 0 0 0-.381.236.6.6 0 0 0-.144.424c0 .244.091.43.272.554.183.124.415.185.695.185Zm5.27-4.056v.596H13.11v-.596h2.374Zm-1.682-1.098h.704v4.367c0 .199.028.348.086.447.06.098.135.164.227.197a.91.91 0 0 0 .295.048c.078 0 .141-.004.191-.012l.12-.024.143.633a1.471 1.471 0 0 1-.525.084c-.2 0-.394-.044-.585-.13a1.16 1.16 0 0 1-.471-.39c-.124-.175-.185-.396-.185-.662v-4.558Zm5.103 5.679v-4.581h.68v.692h.048a1.1 1.1 0 0 1 .454-.552c.219-.141.465-.212.74-.212a7.76 7.76 0 0 1 .37.012v.716a2.103 2.103 0 0 0-.165-.027 1.616 1.616 0 0 0-.265-.02c-.223 0-.422.046-.597.14a1.028 1.028 0 0 0-.56.934v2.898h-.705Zm4.907.096c-.441 0-.822-.098-1.142-.292a1.963 1.963 0 0 1-.737-.824c-.17-.354-.256-.765-.256-1.235 0-.469.085-.883.256-1.24.173-.36.414-.64.722-.842a1.94 1.94 0 0 1 1.086-.304c.239 0 .474.04.707.12.233.079.444.208.635.387.191.177.343.412.457.704.113.292.17.652.17 1.08v.298h-3.532v-.608h2.816a1.5 1.5 0 0 0-.155-.692 1.169 1.169 0 0 0-.436-.48 1.22 1.22 0 0 0-.662-.177c-.28 0-.523.07-.728.21a1.372 1.372 0 0 0-.468.536c-.11.22-.164.457-.164.71v.406c0 .346.06.64.179.88.121.238.289.42.504.546.215.123.464.184.748.184.186 0 .352-.025.502-.077.15-.054.281-.133.39-.239.11-.107.194-.24.254-.4l.68.191a1.522 1.522 0 0 1-.36.609 1.758 1.758 0 0 1-.627.406 2.322 2.322 0 0 1-.838.143Zm6.095 1.623v-2.422h-.06a4.541 4.541 0 0 1-.22.316 1.311 1.311 0 0 1-.41.337c-.176.097-.412.146-.706.146-.382 0-.72-.097-1.012-.29a1.953 1.953 0 0 1-.686-.823c-.165-.356-.247-.776-.247-1.262 0-.48.082-.898.247-1.252.165-.354.395-.628.69-.82.294-.194.634-.29 1.02-.29.298 0 .534.05.707.15.175.097.308.208.4.333.093.123.165.225.217.305h.084v-.728h.68v6.3h-.704Zm-1.3-2.255c.281 0 .52-.074.715-.221.195-.15.343-.355.444-.618.102-.264.153-.57.153-.916 0-.342-.05-.64-.15-.897a1.3 1.3 0 0 0-.441-.603 1.174 1.174 0 0 0-.722-.218c-.298 0-.547.077-.746.23a1.375 1.375 0 0 0-.444.617 2.456 2.456 0 0 0-.146.871c0 .327.05.623.149.89.101.264.25.475.447.632.2.155.446.233.74.233Zm6.18-1.337v-2.708h.704v4.581h-.704v-.775h-.048c-.107.233-.274.43-.501.593-.227.162-.513.242-.86.242a1.53 1.53 0 0 1-.763-.188 1.316 1.316 0 0 1-.525-.573c-.127-.256-.19-.58-.19-.969v-2.911h.703v2.863c0 .334.094.6.28.8.19.199.43.298.723.298a1.2 1.2 0 0 0 .534-.134c.182-.09.336-.227.459-.412.125-.185.188-.42.188-.707Zm1.994 1.873v-4.581h.703v4.581h-.704Zm.357-5.345a.5.5 0 0 1-.355-.14.45.45 0 0 1-.146-.337.45.45 0 0 1 .146-.337.5.5 0 0 1 .355-.14.49.49 0 0 1 .352.14c.1.093.15.206.15.337 0 .131-.05.243-.15.337a.49.49 0 0 1-.352.14Zm1.636 5.345v-4.581h.68v.692h.047a1.1 1.1 0 0 1 .454-.552c.218-.141.465-.212.74-.212a7.754 7.754 0 0 1 .37.012v.716a2.089 2.089 0 0 0-.165-.027 1.618 1.618 0 0 0-.265-.02c-.223 0-.422.046-.597.14a1.029 1.029 0 0 0-.56.934v2.898h-.704Zm4.907.096c-.442 0-.823-.098-1.143-.292a1.962 1.962 0 0 1-.737-.824c-.17-.354-.256-.765-.256-1.235 0-.469.085-.883.256-1.24.173-.36.414-.64.722-.842a1.94 1.94 0 0 1 1.086-.304c.239 0 .474.04.707.12.233.079.444.208.635.387.191.177.343.412.457.704.113.292.17.652.17 1.08v.298h-3.532v-.608h2.816c0-.259-.052-.49-.155-.692a1.17 1.17 0 0 0-1.098-.657c-.28 0-.523.07-.728.21a1.373 1.373 0 0 0-.468.536c-.11.22-.164.457-.164.71v.406c0 .346.06.64.179.88.12.238.289.42.504.546.215.123.464.184.748.184.185 0 .352-.025.502-.077.15-.054.281-.133.39-.239.11-.107.194-.24.254-.4l.68.191a1.522 1.522 0 0 1-.36.609 1.758 1.758 0 0 1-.627.406 2.322 2.322 0 0 1-.839.143Zm7.191 0c-.413 0-.776-.099-1.088-.295a2.006 2.006 0 0 1-.728-.827c-.173-.354-.26-.767-.26-1.24 0-.478.087-.895.26-1.25a2 2 0 0 1 .728-.83 1.997 1.997 0 0 1 1.088-.295c.414 0 .776.098 1.086.295.312.197.555.474.728.83.175.355.262.772.262 1.25 0 .473-.087.886-.262 1.24-.173.354-.416.63-.728.827a1.98 1.98 0 0 1-1.086.295Zm0-.633c.315 0 .573-.08.776-.241.203-.161.353-.373.45-.636.098-.262.146-.546.146-.853 0-.306-.048-.591-.146-.856a1.442 1.442 0 0 0-.45-.641c-.203-.163-.461-.245-.776-.245-.314 0-.572.082-.775.245a1.442 1.442 0 0 0-.45.641c-.098.265-.147.55-.147.856 0 .307.049.591.146.853.098.263.248.475.45.636.204.161.462.242.776.242Zm3.855-2.219v2.756h-.704v-4.581h.68v.716h.06c.107-.233.27-.42.49-.561.218-.143.5-.215.846-.215.31 0 .582.064.815.19.232.126.413.317.543.574.129.254.193.576.193.966v2.911h-.704v-2.863c0-.36-.093-.64-.28-.841-.187-.203-.443-.305-.77-.305-.224 0-.425.05-.602.147-.175.097-.313.24-.415.426a1.409 1.409 0 0 0-.152.68Zm6.059 4.57a2.61 2.61 0 0 1-.877-.131 1.86 1.86 0 0 1-.611-.34 1.863 1.863 0 0 1-.385-.448l.56-.393a4.8 4.8 0 0 0 .242.286c.098.11.231.204.4.283.171.082.395.123.671.123.37 0 .675-.09.916-.269.24-.179.36-.46.36-.841v-.93h-.059a3.787 3.787 0 0 1-.22.31c-.094.12-.23.23-.406.325-.175.093-.412.14-.71.14a1.91 1.91 0 0 1-.996-.263 1.841 1.841 0 0 1-.695-.763c-.17-.334-.254-.74-.254-1.217 0-.47.083-.878.248-1.226.165-.35.394-.62.689-.812a1.816 1.816 0 0 1 1.02-.289c.298 0 .535.05.71.15.177.097.312.208.406.333.095.123.169.225.22.305h.072v-.728h.68v4.713c0 .393-.09.714-.269.96-.176.249-.415.43-.715.546a2.71 2.71 0 0 1-.997.176Zm-.024-2.517c.283 0 .521-.065.716-.194.195-.13.343-.316.445-.558.101-.243.152-.533.152-.871 0-.33-.05-.622-.15-.874a1.315 1.315 0 0 0-.44-.594 1.186 1.186 0 0 0-.723-.215c-.298 0-.547.076-.745.227a1.38 1.38 0 0 0-.445.609 2.35 2.35 0 0 0-.146.847c0 .318.05.6.15.844.1.242.25.433.447.573.199.137.445.206.74.206Zm5.155.799c-.414 0-.777-.099-1.089-.295a2.006 2.006 0 0 1-.728-.827c-.173-.354-.26-.767-.26-1.24 0-.478.087-.895.26-1.25.175-.356.418-.633.728-.83a1.998 1.998 0 0 1 1.089-.295c.413 0 .776.098 1.086.295.312.197.555.474.728.83.174.355.262.772.262 1.25 0 .473-.088.886-.263 1.24-.172.354-.415.63-.727.827a1.98 1.98 0 0 1-1.086.295Zm0-.633c.314 0 .573-.08.776-.241.202-.161.353-.373.45-.636.097-.262.146-.546.146-.853a2.47 2.47 0 0 0-.146-.856 1.442 1.442 0 0 0-.45-.641c-.203-.163-.462-.245-.776-.245s-.573.082-.776.245a1.443 1.443 0 0 0-.45.641 2.47 2.47 0 0 0-.146.856c0 .307.049.591.146.853.097.263.248.475.45.636.203.161.462.242.776.242Zm3.151.537v-4.581h.704v4.581h-.704Zm.358-5.345a.5.5 0 0 1-.355-.14.45.45 0 0 1-.146-.337.45.45 0 0 1 .146-.337c.1-.094.217-.14.355-.14a.49.49 0 0 1 .352.14.447.447 0 0 1 .149.337c0 .131-.05.243-.15.337a.49.49 0 0 1-.351.14Zm2.339 2.589v2.756h-.704v-4.581h.68v.716h.06c.107-.233.27-.42.489-.561.219-.143.501-.215.847-.215.31 0 .582.064.815.19.232.126.413.317.542.574.13.254.194.576.194.966v2.911h-.704v-2.863c0-.36-.093-.64-.28-.841-.187-.203-.444-.305-.77-.305-.224 0-.425.05-.602.147-.175.097-.313.24-.415.426a1.409 1.409 0 0 0-.152.68Zm6.059 4.57a2.61 2.61 0 0 1-.877-.131 1.86 1.86 0 0 1-.611-.34 1.86 1.86 0 0 1-.385-.448l.56-.393a4.8 4.8 0 0 0 .242.286c.098.11.23.204.4.283.171.082.395.123.671.123.37 0 .675-.09.916-.269.24-.179.36-.46.36-.841v-.93h-.059a3.787 3.787 0 0 1-.22.31c-.094.12-.23.23-.406.325-.175.093-.412.14-.71.14a1.91 1.91 0 0 1-.996-.263 1.841 1.841 0 0 1-.695-.763c-.17-.334-.254-.74-.254-1.217 0-.47.082-.878.248-1.226.165-.35.394-.62.689-.812a1.816 1.816 0 0 1 1.02-.289c.298 0 .535.05.71.15.177.097.312.208.405.333.096.123.17.225.221.305h.072v-.728h.68v4.713c0 .393-.09.714-.269.96-.177.249-.415.43-.716.546-.298.117-.63.176-.996.176Zm-.024-2.517c.283 0 .521-.065.716-.194.195-.13.343-.316.445-.558.101-.243.152-.533.152-.871 0-.33-.05-.622-.15-.874a1.315 1.315 0 0 0-.44-.594 1.186 1.186 0 0 0-.723-.215c-.298 0-.547.076-.746.227a1.38 1.38 0 0 0-.444.609 2.35 2.35 0 0 0-.146.847c0 .318.05.6.149.844.102.242.25.433.448.573.198.137.445.206.74.206ZM86.7 32.6l-.632.18a1.173 1.173 0 0 0-.176-.308.855.855 0 0 0-.31-.25 1.127 1.127 0 0 0-.504-.099c-.28 0-.514.065-.701.194-.185.128-.278.29-.278.487a.5.5 0 0 0 .191.414c.127.102.326.186.597.254l.68.167c.41.1.715.251.916.456.2.203.3.465.3.785 0 .262-.075.497-.226.704-.149.206-.358.37-.626.489-.269.12-.58.179-.937.179-.467 0-.854-.102-1.16-.304-.306-.203-.5-.5-.582-.89l.668-.166a.928.928 0 0 0 .361.554c.18.124.413.185.701.185.328 0 .589-.07.782-.208.195-.142.292-.31.292-.508a.533.533 0 0 0-.167-.4c-.111-.109-.282-.19-.513-.244l-.764-.179c-.42-.1-.727-.253-.924-.462a1.12 1.12 0 0 1-.293-.79c0-.26.073-.488.218-.687.147-.198.347-.355.6-.468a2.11 2.11 0 0 1 .865-.17c.453 0 .809.1 1.068.298.26.2.445.462.554.788Zm4.031 1.683v-2.708h.704v4.581h-.704v-.775h-.048c-.107.233-.274.43-.5.593-.228.162-.514.242-.86.242a1.53 1.53 0 0 1-.763-.188 1.316 1.316 0 0 1-.526-.573c-.127-.256-.19-.58-.19-.969v-2.911h.704v2.863c0 .334.093.6.28.8.189.199.43.298.722.298a1.2 1.2 0 0 0 .534-.134c.183-.09.336-.227.46-.412.124-.185.187-.42.187-.707Zm1.994 3.592v-6.3h.68v.728h.083c.052-.08.123-.181.215-.305.093-.125.227-.236.4-.334.175-.1.411-.149.71-.149.385 0 .725.096 1.02.29.294.192.524.466.689.82.165.354.247.771.247 1.252 0 .486-.082.906-.247 1.262a1.954 1.954 0 0 1-.686.823c-.293.193-.63.29-1.011.29-.295 0-.53-.049-.707-.146a1.311 1.311 0 0 1-.41-.337 4.541 4.541 0 0 1-.22-.316h-.06v2.422h-.703Zm.692-4.01c0 .347.05.652.152.916.101.263.25.469.444.618.195.147.434.22.716.22.294 0 .54-.077.737-.232.199-.157.348-.368.447-.633.102-.266.152-.562.152-.889 0-.322-.05-.612-.149-.87a1.346 1.346 0 0 0-.444-.618c-.197-.153-.445-.23-.743-.23-.286 0-.527.073-.722.218a1.307 1.307 0 0 0-.441.603c-.1.256-.15.555-.15.897Zm4.426 4.01v-6.3h.68v.728h.084c.052-.08.123-.181.215-.305a1.26 1.26 0 0 1 .4-.334c.174-.1.411-.149.71-.149.385 0 .725.096 1.019.29.295.192.524.466.69.82.165.354.247.771.247 1.252 0 .486-.082.906-.247 1.262a1.957 1.957 0 0 1-.687.823 1.79 1.79 0 0 1-1.01.29c-.295 0-.53-.049-.708-.146a1.311 1.311 0 0 1-.408-.337 4.507 4.507 0 0 1-.221-.316h-.06v2.422h-.704Zm.692-4.01c0 .347.051.652.152.916.102.263.25.469.445.618.195.147.433.22.716.22.294 0 .54-.077.737-.232.198-.157.348-.368.447-.633.101-.266.152-.562.152-.889 0-.322-.05-.612-.149-.87a1.349 1.349 0 0 0-.444-.618c-.197-.153-.445-.23-.743-.23-.287 0-.527.073-.722.218a1.306 1.306 0 0 0-.442.603 2.48 2.48 0 0 0-.149.897Zm6.288 2.387c-.413 0-.776-.099-1.088-.295a2.001 2.001 0 0 1-.728-.827c-.173-.354-.26-.767-.26-1.24 0-.478.087-.895.26-1.25a2 2 0 0 1 .728-.83 1.996 1.996 0 0 1 1.088-.295c.414 0 .776.098 1.086.295.312.197.555.474.728.83.175.355.262.772.262 1.25 0 .473-.087.886-.262 1.24a1.98 1.98 0 0 1-.728.827 1.98 1.98 0 0 1-1.086.295Zm0-.633c.315 0 .573-.08.776-.241a1.42 1.42 0 0 0 .45-.636 2.42 2.42 0 0 0 .146-.853c0-.306-.048-.591-.146-.856a1.437 1.437 0 0 0-.45-.641c-.203-.163-.461-.245-.776-.245-.314 0-.572.082-.775.245a1.447 1.447 0 0 0-.451.641 2.47 2.47 0 0 0-.146.856c0 .307.049.591.146.853.098.263.248.475.451.636.203.161.461.242.775.242Zm3.151.537v-4.581h.68v.692h.048a1.1 1.1 0 0 1 .453-.552c.219-.141.466-.212.74-.212a7.775 7.775 0 0 1 .37.012v.716a2.153 2.153 0 0 0-.164-.027 1.623 1.623 0 0 0-.266-.02 1.24 1.24 0 0 0-.596.14 1.05 1.05 0 0 0-.412.381 1.032 1.032 0 0 0-.149.552v2.9h-.704Zm5.405-4.581v.596h-2.374v-.596h2.374Zm-1.682-1.098h.704v4.367c0 .199.029.348.086.447.06.098.136.164.227.197a.908.908 0 0 0 .295.048c.078 0 .142-.004.191-.012l.12-.024.143.633a1.474 1.474 0 0 1-.525.084c-.199 0-.394-.044-.585-.13a1.158 1.158 0 0 1-.471-.39c-.124-.175-.185-.396-.185-.662v-4.558Z" opacity=".6"/></svg>