<svg xmlns="http://www.w3.org/2000/svg" width="64" height="64" fill="none"><path fill="#4471F7" fill-rule="evenodd" d="M21.333 0C9.551 0 0 9.551 0 21.333v21.334C0 54.449 9.551 64 21.333 64h21.334C54.449 64 64 54.449 64 42.667V21.333C64 9.551 54.449 0 42.667 0H21.333Zm33.111 19.21c3.032 5.313-4.559 15.354-16.954 22.429-12.396 7.074-24.902 8.503-27.934 3.19-3.032-5.312 4.559-15.353 16.954-22.428 12.396-7.075 24.902-8.503 27.934-3.19ZM31.25 23.926c.323-1.196 2.02-1.196 2.342 0l.585 2.172a5.457 5.457 0 0 0 3.851 3.85l2.172.585c1.196.323 1.196 2.02 0 2.343l-2.172.584a5.457 5.457 0 0 0-3.85 3.851l-.586 2.172c-.322 1.196-2.02 1.196-2.342 0l-.584-2.172a5.457 5.457 0 0 0-3.851-3.85l-2.172-.585c-1.196-.323-1.196-2.02 0-2.342l2.172-.585a5.457 5.457 0 0 0 3.85-3.851l.585-2.172Z" clip-rule="evenodd"/></svg>