<svg xmlns="http://www.w3.org/2000/svg" width="48" height="48" fill="none"><circle cx="24" cy="24" r="24" fill="#005DC2"/><circle cx="24" cy="24" r="23.5" stroke="#000" stroke-opacity=".15"/><g filter="url(#a)"><path fill="#fff" fill-rule="evenodd" d="M33.342 19.054c-1.07 4.972-4.48 7.604-9.89 7.604H21.49L20.027 36h3.182c.46 0 .85-.334.923-.788l.037-.198.732-4.637.047-.255a.933.933 0 0 1 .922-.789h.581c3.76 0 6.705-1.527 7.565-5.945.345-1.773.18-3.26-.674-4.334Zm-2.178-5.244c-1.111-1.267-3.12-1.81-5.69-1.81h-7.458a1.07 1.07 0 0 0-1.055.9l-3.106 19.697a.64.64 0 0 0 .633.74h4.605l1.156-7.335-.036.23a1.065 1.065 0 0 1 1.052-.901h2.187c4.3 0 7.664-1.746 8.648-6.796.029-.15.076-.438.076-.438.28-1.869-.002-3.137-1.012-4.287Z" clip-rule="evenodd"/></g><defs><filter id="a" width="20.337" height="24.923" x="13.847" y="12" color-interpolation-filters="sRGB" filterUnits="userSpaceOnUse"><feFlood flood-opacity="0" result="BackgroundImageFix"/><feColorMatrix in="SourceAlpha" result="hardAlpha" values="0 0 0 0 0 0 0 0 0 0 0 0 0 0 0 0 0 0 127 0"/><feOffset dy=".923"/><feComposite in2="hardAlpha" operator="out"/><feColorMatrix values="0 0 0 0 0 0 0 0 0 0 0 0 0 0 0 0 0 0 0.25 0"/><feBlend in2="BackgroundImageFix" result="effect1_dropShadow_631_5483"/><feBlend in="SourceGraphic" in2="effect1_dropShadow_631_5483" result="shape"/></filter></defs></svg>