<svg xmlns="http://www.w3.org/2000/svg" width="36" height="36" fill="none"><circle cx="18" cy="18" r="18" fill="#F99600"/><circle cx="18" cy="18" r="17.5" stroke="#000" stroke-opacity=".15"/><g filter="url(#a)"><path fill="#fff" d="M21.7 14.041a5.38 5.38 0 0 0-3.705-1.46 5.426 5.426 0 0 0-5.251 4.092.388.388 0 0 1-.376.295H10.52a.387.387 0 0 1-.381-.457 8.002 8.002 0 0 1 13.387-4.295l1.152-1.152A.774.774 0 0 1 26 11.61v4.324a.774.774 0 0 1-.774.775H20.9a.774.774 0 0 1-.547-1.322L21.7 14.04Zm-10.926 5.25H15.1c.69 0 1.035.833.547 1.321L14.3 21.959a5.38 5.38 0 0 0 3.706 1.46 5.426 5.426 0 0 0 5.251-4.091.388.388 0 0 1 .376-.296h1.849c.241 0 .425.22.38.458a8.002 8.002 0 0 1-13.387 4.294l-1.152 1.152A.774.774 0 0 1 10 24.39v-4.325c0-.427.347-.774.774-.774Z"/></g><defs><filter id="a" width="16" height="17" x="10" y="10" color-interpolation-filters="sRGB" filterUnits="userSpaceOnUse"><feFlood flood-opacity="0" result="BackgroundImageFix"/><feColorMatrix in="SourceAlpha" result="hardAlpha" values="0 0 0 0 0 0 0 0 0 0 0 0 0 0 0 0 0 0 127 0"/><feOffset dy="1"/><feComposite in2="hardAlpha" operator="out"/><feColorMatrix values="0 0 0 0 0 0 0 0 0 0 0 0 0 0 0 0 0 0 0.25 0"/><feBlend in2="BackgroundImageFix" result="effect1_dropShadow_424_1767"/><feBlend in="SourceGraphic" in2="effect1_dropShadow_424_1767" result="shape"/></filter></defs></svg>