<svg xmlns="http://www.w3.org/2000/svg" width="48" height="48" fill="none"><circle cx="24" cy="24" r="24" fill="#007AFF"/><circle cx="24" cy="24" r="23.5" stroke="#000" stroke-opacity=".15"/><g fill="#fff" filter="url(#a)"><path fill-rule="evenodd" d="M12 22.4h24v4.879c0 1.064 0 1.98-.099 2.714-.105.787-.344 1.54-.955 2.152-.612.612-1.366.85-2.153.956-.734.099-1.65.099-2.714.099H17.921c-1.064 0-1.98 0-2.714-.099-.787-.105-1.541-.344-2.153-.956-.611-.611-.85-1.365-.955-2.152-.1-.734-.1-1.65-.099-2.714v-4.88Zm3.6 3.6a1.2 1.2 0 0 1 1.2-1.2h2.4a1.2 1.2 0 1 1 0 2.4h-2.4a1.2 1.2 0 0 1-1.2-1.2Zm6 0a1.2 1.2 0 0 1 1.2-1.2h2.4a1.2 1.2 0 1 1 0 2.4h-2.4a1.2 1.2 0 0 1-1.2-1.2Z" clip-rule="evenodd"/><path d="M36 20v-.079c0-1.064 0-1.98-.099-2.714-.105-.787-.344-1.541-.955-2.153-.612-.611-1.366-.85-2.153-.955-.734-.1-1.65-.1-2.714-.099H17.921c-1.064 0-1.98 0-2.714.099-.787.105-1.541.344-2.153.955-.611.612-.85 1.366-.955 2.153-.1.734-.1 1.65-.099 2.714V20h24Z"/></g><defs><filter id="a" width="24" height="20.2" x="12" y="14" color-interpolation-filters="sRGB" filterUnits="userSpaceOnUse"><feFlood flood-opacity="0" result="BackgroundImageFix"/><feColorMatrix in="SourceAlpha" result="hardAlpha" values="0 0 0 0 0 0 0 0 0 0 0 0 0 0 0 0 0 0 127 0"/><feOffset dy="1"/><feComposite in2="hardAlpha" operator="out"/><feColorMatrix values="0 0 0 0 0 0 0 0 0 0 0 0 0 0 0 0 0 0 0.25 0"/><feBlend in2="BackgroundImageFix" result="effect1_dropShadow_631_5494"/><feBlend in="SourceGraphic" in2="effect1_dropShadow_631_5494" result="shape"/></filter></defs></svg>