<svg xmlns="http://www.w3.org/2000/svg" width="48" height="48" fill="none"><circle cx="24" cy="24" r="24" fill="#006CE2"/><circle cx="24" cy="24" r="23.5" stroke="#000" stroke-opacity=".15"/><g filter="url(#a)"><path fill="#fff" fill-rule="evenodd" d="M27.885 14.832c.875-1.014 1.465-2.427 1.303-3.832-1.26.048-2.786.805-3.69 1.818-.812.899-1.52 2.335-1.33 3.713 1.407.104 2.842-.684 3.717-1.7Zm3.154 8.918c.035 3.633 3.325 4.84 3.361 4.856-.026.086-.525 1.722-1.733 3.414-1.044 1.462-2.128 2.917-3.835 2.949-1.677.03-2.217-.953-4.136-.953-1.917 0-2.516.921-4.104.983-1.647.058-2.903-1.582-3.955-3.039-2.153-2.98-3.797-8.42-1.589-12.092 1.097-1.822 3.057-2.979 5.185-3.007 1.618-.03 3.145 1.043 4.134 1.043.99 0 2.846-1.29 4.797-1.1.817.032 3.11.315 4.582 2.38-.119.07-2.736 1.53-2.707 4.566Z" clip-rule="evenodd"/></g><defs><filter id="a" width="20.4" height="25" x="14" y="11" color-interpolation-filters="sRGB" filterUnits="userSpaceOnUse"><feFlood flood-opacity="0" result="BackgroundImageFix"/><feColorMatrix in="SourceAlpha" result="hardAlpha" values="0 0 0 0 0 0 0 0 0 0 0 0 0 0 0 0 0 0 127 0"/><feOffset dy="1"/><feComposite in2="hardAlpha" operator="out"/><feColorMatrix values="0 0 0 0 0 0 0 0 0 0 0 0 0 0 0 0 0 0 0.25 0"/><feBlend in2="BackgroundImageFix" result="effect1_dropShadow_631_5487"/><feBlend in="SourceGraphic" in2="effect1_dropShadow_631_5487" result="shape"/></filter></defs></svg>