<svg xmlns="http://www.w3.org/2000/svg" width="36" height="36" fill="none"><circle cx="18" cy="18" r="18" fill="#35CC00"/><circle cx="18" cy="18" r="17.5" stroke="#000" stroke-opacity=".15"/><g fill="#fff" filter="url(#a)"><path fill-rule="evenodd" d="M19.595 26.188h-2.94c-2.772 0-4.158 0-5.019-.861-.861-.861-.861-2.247-.861-5.02v-5.04c0-2.771 0-4.157.861-5.018.861-.861 2.254-.861 5.04-.861.446 0 .803 0 1.104.012a1.1 1.1 0 0 0-.016.18l-.007 2.083c0 .806 0 1.519.077 2.093.084.623.276 1.245.785 1.753.508.508 1.13.7 1.753.784.574.078 1.287.078 2.093.077h2.979c.03.393.03.875.03 1.517v2.42c0 2.773 0 4.159-.86 5.02-.861.86-2.247.86-5.02.86Z" clip-rule="evenodd"/><path d="m23.529 13.516-2.91-2.619c-.829-.746-1.244-1.119-1.752-1.314l-.007 2.01c0 1.732 0 2.598.538 3.137.538.538 1.405.538 3.137.538h2.631c-.266-.518-.743-.947-1.637-1.752Z"/></g><defs><filter id="a" width="14.7" height="17.8" x="10.775" y="9.388" color-interpolation-filters="sRGB" filterUnits="userSpaceOnUse"><feFlood flood-opacity="0" result="BackgroundImageFix"/><feColorMatrix in="SourceAlpha" result="hardAlpha" values="0 0 0 0 0 0 0 0 0 0 0 0 0 0 0 0 0 0 127 0"/><feOffset dy="1"/><feComposite in2="hardAlpha" operator="out"/><feColorMatrix values="0 0 0 0 0 0 0 0 0 0 0 0 0 0 0 0 0 0 0.25 0"/><feBlend in2="BackgroundImageFix" result="effect1_dropShadow_1338_3342"/><feBlend in="SourceGraphic" in2="effect1_dropShadow_1338_3342" result="shape"/></filter></defs></svg>