<svg xmlns="http://www.w3.org/2000/svg" width="48" height="48" fill="none"><circle cx="24" cy="24" r="24" fill="#F99600"/><circle cx="24" cy="24" r="23.5" stroke="#000" stroke-opacity=".15"/><g filter="url(#a)"><path fill="#fff" d="M28.934 18.722a7.175 7.175 0 0 0-4.94-1.948 7.235 7.235 0 0 0-7.002 5.456.517.517 0 0 1-.501.394h-2.465a.516.516 0 0 1-.508-.61c.93-4.942 5.27-8.68 10.482-8.68a10.63 10.63 0 0 1 7.368 2.953l1.537-1.536c.65-.65 1.762-.19 1.762.73v5.766c0 .57-.462 1.032-1.033 1.032H27.87c-.92 0-1.38-1.111-.73-1.762l1.795-1.795ZM14.366 25.72h5.766c.92 0 1.38 1.112.73 1.763l-1.796 1.795a7.175 7.175 0 0 0 4.94 1.948 7.235 7.235 0 0 0 7.002-5.456.518.518 0 0 1 .502-.394h2.464c.323 0 .568.293.508.61-.93 4.942-5.27 8.68-10.482 8.68a10.63 10.63 0 0 1-7.368-2.954l-1.537 1.537c-.65.65-1.762.19-1.762-.73v-5.766c0-.57.463-1.033 1.033-1.033Z"/></g><defs><filter id="a" width="21.333" height="22.333" x="13.333" y="13.333" color-interpolation-filters="sRGB" filterUnits="userSpaceOnUse"><feFlood flood-opacity="0" result="BackgroundImageFix"/><feColorMatrix in="SourceAlpha" result="hardAlpha" values="0 0 0 0 0 0 0 0 0 0 0 0 0 0 0 0 0 0 127 0"/><feOffset dy="1"/><feComposite in2="hardAlpha" operator="out"/><feColorMatrix values="0 0 0 0 0 0 0 0 0 0 0 0 0 0 0 0 0 0 0.25 0"/><feBlend in2="BackgroundImageFix" result="effect1_dropShadow_428_3108"/><feBlend in="SourceGraphic" in2="effect1_dropShadow_428_3108" result="shape"/></filter></defs></svg>