<svg xmlns="http://www.w3.org/2000/svg" width="36" height="36" fill="none"><circle cx="18" cy="18" r="18" fill="#35CC00"/><circle cx="18" cy="18" r="17.5" stroke="#000" stroke-opacity=".15"/><g filter="url(#a)"><path fill="#fff" d="M27.41 11.702C26.2 11.193 24.987 11 23.774 11c-3.849 0-7.697 1.948-11.546 1.948-.966 0-1.93-.122-2.896-.429a1.068 1.068 0 0 0-.323-.05.994.994 0 0 0-1.008.994v9.914c0 .395.226.769.589.92 1.212.51 2.425.703 3.637.703 3.85 0 7.698-1.949 11.547-1.949.966 0 1.93.123 2.896.43.108.034.217.05.323.05A.994.994 0 0 0 28 22.537v-9.914c0-.395-.226-.769-.59-.921ZM9.5 14.132c.629.157 1.285.236 1.96.279a2.002 2.002 0 0 1-1.96 1.61v-1.89Zm0 8.906v-1.493a2 2 0 0 1 1.99 1.919 7.548 7.548 0 0 1-1.99-.426ZM18 21c-1.381 0-2.5-1.344-2.5-3 0-1.657 1.12-3 2.5-3s2.5 1.343 2.5 3-1.12 3-2.5 3Zm8.5.868a10.744 10.744 0 0 0-1.698-.264 1.996 1.996 0 0 1 1.698-1.54v1.804Zm0-7.378a1.996 1.996 0 0 1-1.744-1.924c.61.068 1.19.195 1.744.396v1.528Z"/></g><defs><filter id="a" width="20" height="15" x="8" y="11" color-interpolation-filters="sRGB" filterUnits="userSpaceOnUse"><feFlood flood-opacity="0" result="BackgroundImageFix"/><feColorMatrix in="SourceAlpha" result="hardAlpha" values="0 0 0 0 0 0 0 0 0 0 0 0 0 0 0 0 0 0 127 0"/><feOffset dy="1"/><feComposite in2="hardAlpha" operator="out"/><feColorMatrix values="0 0 0 0 0 0 0 0 0 0 0 0 0 0 0 0 0 0 0.25 0"/><feBlend in2="BackgroundImageFix" result="effect1_dropShadow_424_1764"/><feBlend in="SourceGraphic" in2="effect1_dropShadow_424_1764" result="shape"/></filter></defs></svg>