<svg xmlns="http://www.w3.org/2000/svg" width="36" height="36" fill="none"><circle cx="18" cy="18" r="18" fill="#35CC00"/><circle cx="18" cy="18" r="17.5" stroke="#000" stroke-opacity=".15"/><g filter="url(#a)"><path fill="#fff" d="M26.1 20.314c0 1.704-2.216 3.086-4.95 3.086s-4.95-1.381-4.95-3.086c0-1.705 2.216-3.085 4.95-3.085s4.95 1.381 4.95 3.085Zm-4.95 4.757c-2.734 0-4.95-1.381-4.95-3.085v1.928c0 1.704 2.216 3.086 4.95 3.086s4.95-1.381 4.95-3.086v-1.928c0 1.704-2.216 3.085-4.95 3.085Zm-6.3-9.9c2.734 0 4.95-1.381 4.95-3.085S17.584 9 14.85 9 9.9 10.382 9.9 12.086c0 1.705 2.216 3.085 4.95 3.085Zm-.112 3.6a5.023 5.023 0 0 1 1.962-2.15 7.593 7.593 0 0 1-1.85.225c-2.734-.003-4.95-1.385-4.95-3.089v1.928c0 1.685 2.16 3.045 4.838 3.083v.003ZM14.85 27c.325 0 .649-.02.971-.06a4.426 4.426 0 0 1-1.233-1.877c-2.612-.085-4.688-1.428-4.688-3.077v1.928C9.9 25.618 12.116 27 14.85 27Zm-.45-4v-1.94c-2.52-.144-4.5-1.452-4.5-3.06v1.929c0 1.609 1.98 2.931 4.5 3.071Z"/></g><defs><filter id="a" width="16.2" height="19" x="9.9" y="9" color-interpolation-filters="sRGB" filterUnits="userSpaceOnUse"><feFlood flood-opacity="0" result="BackgroundImageFix"/><feColorMatrix in="SourceAlpha" result="hardAlpha" values="0 0 0 0 0 0 0 0 0 0 0 0 0 0 0 0 0 0 127 0"/><feOffset dy="1"/><feComposite in2="hardAlpha" operator="out"/><feColorMatrix values="0 0 0 0 0 0 0 0 0 0 0 0 0 0 0 0 0 0 0.25 0"/><feBlend in2="BackgroundImageFix" result="effect1_dropShadow_424_1827"/><feBlend in="SourceGraphic" in2="effect1_dropShadow_424_1827" result="shape"/></filter></defs></svg>