<svg xmlns="http://www.w3.org/2000/svg" width="48" height="48" fill="none"><circle cx="24" cy="24" r="24" fill="#35CC00"/><circle cx="24" cy="24" r="23.5" stroke="#000" stroke-opacity=".15"/><g filter="url(#a)"><path fill="#fff" d="M34.8 27.085c0 2.273-2.954 4.115-6.6 4.115-3.645 0-6.6-1.842-6.6-4.115s2.954-4.113 6.6-4.113c3.646 0 6.6 1.842 6.6 4.113Zm-6.6 6.343c-3.645 0-6.6-1.842-6.6-4.113v2.57c0 2.273 2.954 4.115 6.6 4.115 3.646 0 6.6-1.842 6.6-4.115v-2.57c0 2.271-2.954 4.113-6.6 4.113Zm-8.4-13.2c3.646 0 6.6-1.842 6.6-4.113 0-2.272-2.954-4.115-6.6-4.115-3.646 0-6.6 1.842-6.6 4.115s2.954 4.113 6.6 4.113Zm-.15 4.8a6.695 6.695 0 0 1 2.617-2.866c-.807.2-1.635.301-2.467.3-3.646-.005-6.6-1.847-6.6-4.119v2.57c0 2.247 2.88 4.06 6.45 4.11v.005ZM19.8 36c.433 0 .865-.027 1.295-.08a5.9 5.9 0 0 1-1.644-2.502c-3.482-.114-6.25-1.905-6.25-4.103v2.57c0 2.273 2.953 4.115 6.6 4.115Zm-.6-5.333V28.08c-3.36-.192-6-1.936-6-4.08v2.572c0 2.145 2.64 3.908 6 4.095Z"/></g><defs><filter id="a" width="21.6" height="25" x="13.2" y="12" color-interpolation-filters="sRGB" filterUnits="userSpaceOnUse"><feFlood flood-opacity="0" result="BackgroundImageFix"/><feColorMatrix in="SourceAlpha" result="hardAlpha" values="0 0 0 0 0 0 0 0 0 0 0 0 0 0 0 0 0 0 127 0"/><feOffset dy="1"/><feComposite in2="hardAlpha" operator="out"/><feColorMatrix values="0 0 0 0 0 0 0 0 0 0 0 0 0 0 0 0 0 0 0.25 0"/><feBlend in2="BackgroundImageFix" result="effect1_dropShadow_428_3112"/><feBlend in="SourceGraphic" in2="effect1_dropShadow_428_3112" result="shape"/></filter></defs></svg>