<svg xmlns="http://www.w3.org/2000/svg" width="36" height="36" fill="none"><circle cx="18" cy="18" r="18" fill="#007AFF"/><circle cx="18" cy="18" r="17.5" stroke="#000" stroke-opacity=".15"/><g filter="url(#a)"><path fill="#fff" d="M23.919 18.79a1 1 0 0 0-.378-.725l-2.967-2.349 2.198-5.964a1 1 0 0 0-1.585-1.104l-8.72 7.349a1.002 1.002 0 0 0-.357.814 1.05 1.05 0 0 0 .447.78l3.822 2.56-2.184 5.897a1 1 0 0 0 .394 1.178 1 1 0 0 0 1.253-.122l7.742-7.558a1 1 0 0 0 .335-.757Z"/></g><defs><filter id="a" width="11.81" height="19.98" x="12.108" y="8.412" color-interpolation-filters="sRGB" filterUnits="userSpaceOnUse"><feFlood flood-opacity="0" result="BackgroundImageFix"/><feColorMatrix in="SourceAlpha" result="hardAlpha" values="0 0 0 0 0 0 0 0 0 0 0 0 0 0 0 0 0 0 127 0"/><feOffset dy="1"/><feComposite in2="hardAlpha" operator="out"/><feColorMatrix values="0 0 0 0 0 0 0 0 0 0 0 0 0 0 0 0 0 0 0.25 0"/><feBlend in2="BackgroundImageFix" result="effect1_dropShadow_424_1800"/><feBlend in="SourceGraphic" in2="effect1_dropShadow_424_1800" result="shape"/></filter></defs></svg>