<svg xmlns="http://www.w3.org/2000/svg" width="90" height="46" fill="none"><path fill="#000" d="M2.013 19.077A6.495 6.495 0 0 1 2 18.63c0-.204-.002-.321-.004-.352.212-1.287.384-2.39.516-3.309.147-.92.266-1.698.357-2.332.092-.634.162-1.14.21-1.52.049-.38.08-.673.096-.878.014-.22.018-.37.012-.448a1.55 1.55 0 0 0 .007-.212l-.039-.49a3.53 3.53 0 0 0-.078-.7 1.776 1.776 0 0 0-.237-.616.423.423 0 0 0-.442-.247.701.701 0 0 0-.498.25 9.312 9.312 0 0 0-.343.427 2.18 2.18 0 0 1-.395.36c-.132.105-.31.126-.535.066.167-.672.403-1.16.708-1.467.32-.307.808-.486 1.462-.538.39-.03.684.025.883.166a.974.974 0 0 1 .443.553c.096.228.157.497.181.809l.075.958a9.37 9.37 0 0 1-.026 1.765 33.843 33.843 0 0 1-.191 1.755 66.2 66.2 0 0 0-.215 1.756 10.935 10.935 0 0 0-.002 1.764l.018.233a2 2 0 0 1 .04.209l.28-.328a280.779 280.779 0 0 0 2.712-4.68c.69-1.198 1.235-2.134 1.637-2.808.4-.69.716-1.161.947-1.415.23-.253.455-.388.673-.405.203-.016.363.026.48.127.133.099.237.224.312.375.074.15.127.32.157.505.045.169.072.323.083.463l.57 7.244.303-.024 7.18-13.048c.372-.656.776-1.095 1.213-1.317.436-.238 1.013-.284 1.73-.136l-2.216 2.619a218.454 218.454 0 0 0-2.907 5.494 250.55 250.55 0 0 0-1.948 3.938 928.034 928.034 0 0 0-1.25 2.638 24.164 24.164 0 0 1-.793 1.59c-.22.378-.42.644-.595.799-.177.14-.39.219-.64.238-.42.033-.742-.075-.966-.323a2.542 2.542 0 0 1-.47-.904 6.974 6.974 0 0 1-.183-1.137 26.071 26.071 0 0 0-.052-.96l-.12-1.52-.061-1.381c-.004-.454-.01-.924-.017-1.41.008-.502.025-1.075.053-1.72a371.134 371.134 0 0 1-3.05 5.459c-.784 1.393-1.428 2.478-1.931 3.255-.504.776-.908 1.31-1.215 1.6-.292.273-.57.42-.835.441-.42.033-.698-.007-.832-.122-.136-.13-.216-.352-.24-.663Zm15.336-1.393a1.974 1.974 0 0 1 .026-.566c.033-.175.102-.4.206-.674a36.4 36.4 0 0 0 .514-.934c.262-.46.53-.943.803-1.45.29-.509.558-.984.805-1.427.262-.46.44-.78.536-.959.124-.213.225-.331.301-.353a4.468 4.468 0 0 1 .888-.07c.173.003.29.103.353.302a6.571 6.571 0 0 1-.769 1.588l-.964 1.487a11.891 11.891 0 0 0-.798 1.52 3.214 3.214 0 0 0-.274 1.597c.062-.005.156-.005.282.001.142.005.29.009.448.012.157.003.298.008.424.014a.96.96 0 0 0 .304-.024c.092-.023.245-.067.46-.13.229-.081.465-.162.71-.244.26-.083.504-.165.732-.246.23-.08.389-.14.48-.179l.013.164c.02.061.032.107.034.138.025.312-.103.58-.383.806a3.565 3.565 0 0 1-.966.57 7.07 7.07 0 0 1-1.15.325c-.387.062-.69.101-.908.118a3.95 3.95 0 0 1-.73-.013 2.114 2.114 0 0 1-.653-.23 1.674 1.674 0 0 1-.504-.431 1.512 1.512 0 0 1-.22-.712Zm5.724-14.226a6.24 6.24 0 0 1 .563-.02c.172.002.323.029.453.081.13.053.238.138.326.257.087.118.14.287.157.505l.024.304c.008.109.001.219-.021.33a.553.553 0 0 1-.097.267c-.057.067-.156.106-.296.117a.693.693 0 0 1-.556-.192 1.612 1.612 0 0 1-.323-.515 3.22 3.22 0 0 1-.168-.645 7.52 7.52 0 0 1-.062-.489ZM22.851 16.5c-.035-.452.015-.91.15-1.376.137-.465.304-.925.504-1.379.198-.47.397-.932.596-1.387a6.1 6.1 0 0 0 .46-1.329c-.282.195-.532.316-.747.364-.201.032-.45.06-.746.082l-.304.024a4.02 4.02 0 0 0-.305 0c.066-.35.214-.667.442-.95.227-.3.49-.557.786-.768.311-.228.633-.418.966-.57.348-.168.659-.302.933-.402.41-.769.734-1.53.972-2.286.237-.771.477-1.519.717-2.243.256-.74.56-1.447.916-2.117.369-.687.883-1.331 1.54-1.931l.187.878-2.383 7.076a8.2 8.2 0 0 1 .62-.19l.737-.199c.26-.067.507-.126.738-.175a8.2 8.2 0 0 0 .62-.19l.14-.011a1.102 1.102 0 0 1 .732.037c.146.066.276.229.39.486a32.434 32.434 0 0 0-2.796 1.207c-.83.41-1.542.92-2.137 1.531-.58.595-1.04 1.336-1.377 2.224-.323.872-.51 1.976-.563 3.312.023.28.058.537.108.768.05.231.255.356.617.375.358-.029.688-.125.988-.29.3-.164.593-.336.877-.515.282-.195.566-.374.85-.537.301-.165.63-.261.989-.29.03.375-.107.73-.41 1.067a4.883 4.883 0 0 1-1.128.912 6.64 6.64 0 0 1-1.36.647c-.472.163-.865.256-1.176.28a1.86 1.86 0 0 1-.856-.12 1.974 1.974 0 0 1-.67-.441 2.81 2.81 0 0 1-.432-.719c-.1-.274-.162-.56-.185-.855Zm14.479 1.167a1.601 1.601 0 0 1-1.089-.103 2.364 2.364 0 0 1-.808-.712 2.524 2.524 0 0 1-.41-1.026 1.73 1.73 0 0 1 .151-1.07c.616-.941 1.028-1.679 1.237-2.213.208-.549.265-.921.171-1.118-.08-.213-.28-.284-.604-.211-.31.056-.68.226-1.112.51-.434.27-.9.62-1.399 1.05-.483.43-.932.897-1.347 1.4a10.525 10.525 0 0 0-1.077 1.565c-.287.524-.46 1.031-.515 1.522-.148.105-.275.194-.379.265a.944.944 0 0 1-.368.099c-.234.018-.38-.049-.439-.2a1.704 1.704 0 0 1-.109-.486c-.03-.39.055-.796.257-1.219.216-.44.466-.852.75-1.234.298-.4.583-.76.855-1.079.272-.334.463-.6.573-.797.339-.669.675-1.385 1.006-2.148.331-.778.661-1.564.99-2.358a79.07 79.07 0 0 1 1.013-2.383c.36-.796.74-1.555 1.137-2.276a1.71 1.71 0 0 1 .167-.272.421.421 0 0 1 .252-.09c.124-.01.22.006.286.048a.729.729 0 0 1 .207.242c.005.063-.003.165-.023.308a6.926 6.926 0 0 1-.034.473 2.053 2.053 0 0 1-.058.451c-.02.143-.036.238-.048.286a46.87 46.87 0 0 0-.39 1.018 61.273 61.273 0 0 1-.608 1.552c-.207.55-.408 1.09-.6 1.623a51.88 51.88 0 0 0-.427 1.162 3.82 3.82 0 0 1 .604-.4 2.02 2.02 0 0 1 .522-.23c.183-.061.369-.1.555-.114.202-.031.42-.056.653-.075.572.097.954.278 1.148.545.209.266.289.589.24.969-.034.363-.15.772-.35 1.226-.2.455-.414.918-.643 1.39a20.96 20.96 0 0 0-.577 1.339c-.17.42-.235.802-.192 1.144.01.14.05.239.117.296a.588.588 0 0 0 .245.122.955.955 0 0 0 .307.023l.304-.024c.327-.026.635-.097.924-.214.302-.133.597-.274.883-.422.286-.148.574-.28.863-.397a2.87 2.87 0 0 1 .945-.238c.023.296-.103.588-.378.876a4.59 4.59 0 0 1-1.02.785c-.39.219-.806.408-1.248.568-.444.145-.813.229-1.11.252Zm14.716-3.319a7.572 7.572 0 0 1-.015-.492c.013-.236.026-.464.04-.685.014-.22.03-.418.048-.591.016-.19.038-.31.066-.358l3.584-8.84c.053-.129.156-.31.31-.54.169-.25.345-.498.53-.748A14.003 14.003 0 0 1 57.682.811a.38.38 0 0 1 .247.145.749.749 0 0 1 .115.273c.023.092.03.186.022.28l.018.234.026.327c.011.14.009.211-.007.212-.123.433-.325.95-.607 1.553-.282.602-.6 1.246-.953 1.932-.353.686-.72 1.404-1.1 2.155-.366.734-.7 1.466-1.003 2.195a19.281 19.281 0 0 0-.709 2.054c-.168.655-.23 1.248-.19 1.778.023.28.118.5.288.66.183.141.373.268.57.377.197.11.378.221.543.334.181.111.28.276.298.494a.367.367 0 0 1-.161.342.986.986 0 0 1-.437.128c-.654.051-1.237-.083-1.748-.404-.512-.336-.795-.846-.85-1.532Zm6.251-.326-.029-.374a6.31 6.31 0 0 0-.008-.399 13.96 13.96 0 0 1 1.668-3.305 15.32 15.32 0 0 1 2.439-2.777.641.641 0 0 0 .138-.035.537.537 0 0 1 .16-.06c.42-.032.77.034 1.05.2.294.15.53.366.71.65.193.267.335.577.425.93.09.338.147.67.173.998.047.607-.043 1.257-.27 1.949a7.041 7.041 0 0 1-1.002 1.912 6.399 6.399 0 0 1-1.506 1.482c-.58.39-1.198.612-1.852.663-.655.051-1.159-.082-1.513-.399-.34-.333-.534-.812-.583-1.435Zm1.8-.423c.014.171.094.282.239.334.145.05.287.071.428.06.389-.03.755-.161 1.097-.392a4.102 4.102 0 0 0 1.536-2.001 2.79 2.79 0 0 0 .169-1.142 3.72 3.72 0 0 0-.091-.557 1.488 1.488 0 0 0-.184-.55.842.842 0 0 0-.405-.368c-.163-.08-.39-.079-.681.007-.215.064-.448.286-.7.666-.253.38-.492.822-.72 1.326-.212.487-.385.979-.518 1.475-.135.48-.191.861-.17 1.142Zm6.113.296-.015-.188a1.28 1.28 0 0 0 .01-.165c.011-.47.019-1.067.025-1.788.005-.737.012-1.443.022-2.118a92.152 92.152 0 0 0 .062-2.497l.584-.657c.27.057.474.15.61.281a.998.998 0 0 1 .29.4c.058.153.095.322.11.51l.044.56c.051.654.04 1.298-.037 1.93a10.592 10.592 0 0 0-.016 1.883l.018.233c.024.108.037.178.04.209l5.273-6.503c.014-.017.052-.028.115-.033l.163-.013c.156-.012.306.008.451.059.145.051.226.178.242.38.001.016-.005.032-.02.05l.002.023.006.07c-.068.13-.193.344-.373.64-.165.295-.352.616-.56.961-.192.344-.378.672-.557.984l-.375.617c-.239.348-.52.762-.843 1.242-.307.479-.645.967-1.013 1.467-.354.482-.733.95-1.136 1.405a6.961 6.961 0 0 1-1.184 1.08 5.615 5.615 0 0 1-.336.215 1.351 1.351 0 0 1-.225.135.942.942 0 0 1-.501-.101 2.408 2.408 0 0 1-.429-.366 3.734 3.734 0 0 1-.317-.446 1.385 1.385 0 0 1-.13-.46Zm9.483-.487c-.311-.57-.473-1.138-.486-1.701a4.624 4.624 0 0 1 .247-1.642 5.52 5.52 0 0 1 .78-1.448c.34-.45.71-.84 1.107-1.168a5.132 5.132 0 0 1 1.207-.8c.424-.19.8-.283 1.13-.277.329-.01.595.086.799.29.204.203.292.533.266.99a2.364 2.364 0 0 1-.46 1.634 7.79 7.79 0 0 1-1.166 1.315 77.43 77.43 0 0 1-1.185 1.08c-.352.31-.518.59-.498.838.01.14.097.243.26.31.177.064.376.11.598.14.22.014.44.02.66.019.219-.002.376.002.47.01 1.44-.426 2.524-.7 3.251-.82.726-.135 1.186-.163 1.38-.084.194.063.165.198-.085.406-.236.19-.61.408-1.124.652-.515.229-1.117.449-1.806.66-.689.21-1.374.358-2.057.443a6.91 6.91 0 0 1-1.933-.06c-.588-.11-1.04-.373-1.355-.787Zm3.671-5.648c-.312.024-.6.133-.868.327a3.386 3.386 0 0 0-.72.714 3.97 3.97 0 0 0-.494.886 4.636 4.636 0 0 0-.285.868.18.18 0 0 0 .072.018l.07-.005c.219-.017.46-.13.726-.34.266-.208.513-.455.741-.74.228-.3.415-.604.563-.913.148-.31.213-.581.195-.815Zm8.868 3.653c-.019-.234-.056-.411-.112-.532a4.836 4.836 0 0 0-.17-.363 8.182 8.182 0 0 1-.168-.34 1.513 1.513 0 0 1-.11-.508c.28-.022.58.002.899.07.319.07.574.23.766.481l.02.257c.025.108.041.224.051.349.026.123.043.247.053.372.024.108.038.185.042.232.045.576-.056 1.18-.305 1.81a5.984 5.984 0 0 1-1.014 1.75 5.66 5.66 0 0 1-1.515 1.364 3.735 3.735 0 0 1-1.784.634c-.017-.218.059-.444.229-.676.17-.233.385-.477.647-.733.263-.256.539-.528.83-.817.307-.275.589-.58.845-.913a4.44 4.44 0 0 0 .618-1.107c.156-.404.216-.847.178-1.33ZM14.635 45.992c-.701.055-1.275-.065-1.721-.36-.446-.293-.808-.704-1.084-1.23a6.814 6.814 0 0 1-.587-1.788 30.342 30.342 0 0 1-.329-2.09l-.21-2.076a10.198 10.198 0 0 0-.281-1.788c-.134-.507-.322-.9-.563-1.178-.227-.296-.557-.404-.99-.322l-.418.95c-.171.42-.376.899-.616 1.435s-.494 1.104-.76 1.705c-.25.6-.496 1.167-.736 1.703-.24.537-.46 1.024-.661 1.463l-.42.95a3.946 3.946 0 0 0-.216.534 1.21 1.21 0 0 1-.141.293.315.315 0 0 1-.201.134 2.175 2.175 0 0 1-.372.052c-.312.025-.534-.005-.666-.088-.133-.1-.212-.305-.236-.617a19.91 19.91 0 0 1 .818-3.05 37.436 37.436 0 0 1 1.264-3.061 54.795 54.795 0 0 1 1.502-3.033c.532-1.014 1.057-2.011 1.575-2.992.33-.59.716-1.271 1.156-2.042a16.75 16.75 0 0 1 1.494-2.233 10.144 10.144 0 0 1 1.878-1.84 4.389 4.389 0 0 1 2.283-.862c.295-.038.571-.013.829.076.272.073.502.204.689.393a1.803 1.803 0 0 1 .52 1.534 5.308 5.308 0 0 1-.316 2.259 9.081 9.081 0 0 1-1.038 2.056c-.435.645-.913 1.24-1.435 1.782a20.2 20.2 0 0 1-1.441 1.406c-.455.396-.837.716-1.147.96-.296.227-.443.348-.442.364l.084 1.074c.056.513.126 1.103.21 1.77.1.667.217 1.37.354 2.112.135.726.29 1.411.467 2.056.19.628.404 1.16.642 1.595.254.435.533.695.838.78.047.013.158.028.332.045.174.018.363.034.568.05.222.03.42.045.592.047.189.017.308.03.356.043a.86.86 0 0 1 .174.127.863.863 0 0 1 .153.153c-.336.308-.618.503-.847.584-.229.08-.53.135-.904.165ZM9.597 33.034c.018.233.072.41.16.528a.638.638 0 0 0 .345.208c.143.035.302.054.474.057l.584-.046c.623-.05 1.23-.316 1.818-.801a8.374 8.374 0 0 0 1.554-1.768 9.2 9.2 0 0 0 1.075-2.177c.254-.756.36-1.415.315-1.976l-.036-.467a1.739 1.739 0 0 0-.08-.417.573.573 0 0 0-.213-.313c-.1-.07-.25-.097-.453-.081-.358.028-.746.184-1.162.467a7.475 7.475 0 0 0-1.259 1.04c-.42.424-.83.903-1.227 1.436a12.517 12.517 0 0 0-1.004 1.583 9.684 9.684 0 0 0-.68 1.511c-.166.483-.237.888-.21 1.216Zm7.563 8.292-.03-.373a6.71 6.71 0 0 0-.007-.4c.41-1.176.965-2.277 1.668-3.304a15.314 15.314 0 0 1 2.439-2.778.644.644 0 0 0 .138-.034.539.539 0 0 1 .16-.06c.42-.033.77.034 1.05.2.294.15.53.366.71.65.193.266.335.577.425.93.09.338.147.67.172.997.048.608-.042 1.257-.27 1.95a7.042 7.042 0 0 1-1.002 1.912 6.4 6.4 0 0 1-1.505 1.482 3.82 3.82 0 0 1-1.852.662c-.655.052-1.159-.081-1.513-.398-.34-.334-.534-.813-.583-1.436Zm1.8-.423c.014.171.093.282.238.334.146.051.288.071.428.06.39-.03.756-.16 1.098-.392a4.08 4.08 0 0 0 .92-.871c.27-.35.475-.727.616-1.13a2.79 2.79 0 0 0 .169-1.142 3.72 3.72 0 0 0-.091-.557 1.488 1.488 0 0 0-.184-.55.842.842 0 0 0-.405-.367c-.164-.082-.39-.08-.682.006-.214.064-.448.286-.7.666a9.34 9.34 0 0 0-.718 1.326c-.213.487-.386.979-.52 1.475-.134.48-.19.861-.168 1.142Zm17.47.909a2.023 2.023 0 0 1-.831-.1 1.562 1.562 0 0 1-.621-.421 1.831 1.831 0 0 1-.38-.652 1.724 1.724 0 0 1-.043-.843 3.62 3.62 0 0 1 .148-1.399c.153-.45.323-.88.51-1.286.203-.423.374-.836.515-1.24.155-.419.215-.855.18-1.306-.344.027-.701.164-1.073.413a6.947 6.947 0 0 0-1.124.958c-.361.389-.72.824-1.073 1.307-.34.465-.663.937-.97 1.416a16.73 16.73 0 0 0-.766 1.33c-.201.423-.354.772-.458 1.047a.946.946 0 0 1-.23.065l-.234.018c-.24.144-.395.156-.467.037-.058-.137-.074-.347-.05-.631a7.6 7.6 0 0 1 .207-.957l.272-1.032c.099-.337.171-.61.218-.817.045-.223.044-.332-.002-.328.041-.066.088-.172.14-.317a21.308 21.308 0 0 0 .283-.892 1.11 1.11 0 0 0 .043-.333c-.01-.14-.072-.221-.183-.244a.623.623 0 0 0-.286-.048c-.293-.134-.59-.017-.89.352-.285.352-.59.854-.916 1.506a83.77 83.77 0 0 0-1.026 2.196c-.36.812-.768 1.605-1.224 2.377-.358.028-.635.003-.829-.076-.194-.079-.306-.305-.335-.679.11-.181.273-.515.485-1.002.211-.502.45-1.054.716-1.655.267-.6.548-1.21.844-1.83.312-.62.608-1.144.887-1.574.295-.446.56-.749.799-.909.253-.176.468-.123.647.161.252-.192.528-.363.83-.512.317-.15.64-.238.967-.264a.73.73 0 0 1 .554.168c.165.113.295.267.389.463.108.18.194.377.258.591.062.2.1.377.112.532.163-.122.428-.331.797-.626.383-.313.79-.627 1.22-.943.444-.317.877-.593 1.297-.83.435-.254.793-.392 1.073-.414.25-.02.467.058.653.231.2.157.31.368.332.632a359.827 359.827 0 0 0-1.074 3.4c-.246.85-.406 1.513-.478 1.988-.058.46-.032.787.077.982.124.178.322.311.596.4a3.57 3.57 0 0 0 1.198-.306c.379-.17.748-.356 1.108-.557a18.35 18.35 0 0 1 1.132-.56 3.65 3.65 0 0 1 1.222-.307.942.942 0 0 1-.102.502.78.78 0 0 1-.348.356c-.119.088-.335.23-.648.427l-.988.595c-.36.2-.705.4-1.035.599-.313.197-.538.332-.673.405-.3.165-.535.277-.702.337-.154.044-.37.076-.65.099Z"/><path fill="#000" d="M41.168 39.888c.07-.9.271-1.738.602-2.516.33-.778.724-1.46 1.18-2.044a7.603 7.603 0 0 1 1.55-1.509c.564-.405 1.123-.676 1.676-.813.552-.153 1.068-.17 1.548-.051.495.118.909.399 1.241.843a2.19 2.19 0 0 1-.176 1.048c-.13.34-.284.68-.46 1.024-.162.341-.314.69-.459 1.047a2.631 2.631 0 0 0-.147 1.116c.032.405.143.725.334.961.205.22.534.31.985.275a3.55 3.55 0 0 0 1.062-.247 3.66 3.66 0 0 1 1.062-.248c.063-.005.164-.005.306-.001l.304-.024c-.167.28-.39.524-.672.735a6.68 6.68 0 0 1-.896.564 5.53 5.53 0 0 1-1.006.36 5.39 5.39 0 0 1-.95.17 1.483 1.483 0 0 1-.763-.129 1.881 1.881 0 0 1-.599-.446 2.612 2.612 0 0 1-.427-.649 2.735 2.735 0 0 1-.178-.761c-.212.283-.447.583-.704.901a6.928 6.928 0 0 1-.804.84c-.278.256-.59.476-.936.66-.33.183-.683.29-1.056.319a1.442 1.442 0 0 1-1.087-.362 1.547 1.547 0 0 1-.53-1.063Zm1.485-.846.033.42c.028.155.137.249.328.28.382-.123.81-.36 1.284-.711a9.73 9.73 0 0 0 1.314-1.232c.402-.47.732-.959.99-1.465.257-.521.367-1.008.332-1.46a.642.642 0 0 0-.034-.138l-.013-.164a4.333 4.333 0 0 0-1.587.454 4.94 4.94 0 0 0-1.4 1.027 4.827 4.827 0 0 0-.972 1.393 3.303 3.303 0 0 0-.275 1.596Z"/><path fill="#000" d="m51.462 39.55-.025-.328a.87.87 0 0 1 .007-.212c.024-.08.057-.16.098-.242.04-.082.095-.188.163-.319.108-.228.311-.628.611-1.2s.62-1.177.962-1.815c.342-.638.663-1.243.963-1.815.315-.574.535-.975.658-1.204.014-.017.052-.028.115-.033l.163-.012.164-.013c.078-.006.125-.002.142.012.017.014.05.05.103.11.067.057.135.122.203.195.083.056.15.114.201.172.068.058.117.085.148.083a.87.87 0 0 0 .433-.175c.148-.106.296-.22.443-.34.162-.139.325-.261.489-.368a1.155 1.155 0 0 1 1.098-.086c.179.08.336.185.471.315.136.13.242.28.317.446.092.165.144.333.158.504.028.359 0 .706-.083 1.041-.068.335-.151.67-.25 1.007-.1.322-.192.65-.275.986-.07.319-.09.65-.064.992.027.343.086.59.176.739.089.134.313.187.67.159a3.785 3.785 0 0 0 1.178-.28c.38-.156.772-.25 1.177-.281.029.374-.063.694-.277.962-.199.266-.463.49-.794.673a4.552 4.552 0 0 1-1.05.389 8.325 8.325 0 0 1-1.023.15c-.592.047-1.041-.082-1.347-.388-.292-.321-.46-.763-.504-1.324a2.94 2.94 0 0 1 .104-1.066c.115-.338.238-.669.369-.992.147-.325.278-.65.394-.972.116-.322.16-.663.131-1.021a2.012 2.012 0 0 0-.076-.37c-.043-.154-.15-.223-.322-.21-.514.04-.968.24-1.363.6-.38.36-.721.802-1.025 1.327-.288.524-.55 1.086-.784 1.684-.22.597-.435 1.155-.645 1.673a9.669 9.669 0 0 1-.58 1.291c-.192.345-.405.526-.64.544-.326.026-.599-.055-.817-.241a1.048 1.048 0 0 1-.365-.747Z"/></svg>