<svg xmlns="http://www.w3.org/2000/svg" width="180" height="25" fill="none"><circle cx="169.268" cy="12.285" r="9.5" stroke="#000" stroke-opacity=".1"/><path fill="#000" d="M33.128 16.285V7.558h5.591v1.325h-4.01v2.37h3.627v1.325h-3.627v3.707h-1.58Zm6.964 0V9.74h1.542v6.545h-1.542Zm.775-7.474a.9.9 0 0 1-.63-.243.783.783 0 0 1-.265-.592c0-.233.088-.43.264-.593a.891.891 0 0 1 .631-.247c.247 0 .457.083.63.247.177.162.265.36.265.593 0 .23-.088.427-.264.592a.89.89 0 0 1-.63.243Zm3.615.929 1.32 2.416 1.343-2.416h1.632l-1.973 3.273 2.007 3.272h-1.623l-1.385-2.356-1.372 2.356h-1.637l1.995-3.272-1.944-3.273h1.637Zm8.14 6.673c-.656 0-1.223-.136-1.7-.409a2.77 2.77 0 0 1-1.095-1.168c-.256-.505-.384-1.1-.384-1.785 0-.673.128-1.264.384-1.773a2.9 2.9 0 0 1 1.082-1.193c.463-.287 1.007-.43 1.632-.43.404 0 .784.065 1.142.196.36.128.68.326.955.596.278.27.497.614.656 1.032.159.414.239.909.239 1.482v.473h-5.366v-1.04h3.887a1.659 1.659 0 0 0-.192-.788 1.393 1.393 0 0 0-.524-.55 1.48 1.48 0 0 0-.776-.2c-.315 0-.592.077-.83.23-.24.151-.425.35-.559.597-.13.244-.197.513-.2.806v.907c0 .38.07.708.209.98.139.27.334.478.584.622.25.143.542.213.877.213.225 0 .428-.03.61-.093.181-.066.34-.16.473-.286a1.19 1.19 0 0 0 .302-.464l1.44.162c-.09.38-.264.713-.52.997-.252.281-.576.5-.97.656-.396.154-.848.23-1.356.23Zm6.645-.013c-.515 0-.975-.132-1.381-.396s-.727-.648-.963-1.15c-.236-.503-.354-1.114-.354-1.833 0-.727.12-1.34.358-1.84.242-.504.567-.883.976-1.138a2.504 2.504 0 0 1 1.368-.388c.383 0 .699.065.946.196.247.128.443.282.588.464.145.18.257.348.337.507h.063V7.558h1.547v8.727h-1.517v-1.03h-.093c-.08.158-.195.327-.346.506-.15.176-.349.327-.596.452s-.558.187-.933.187Zm.43-1.265c.327 0 .605-.088.835-.264.23-.18.405-.428.524-.746.12-.318.18-.69.18-1.112 0-.424-.06-.791-.18-1.104a1.57 1.57 0 0 0-.52-.729c-.227-.173-.507-.26-.839-.26-.344 0-.63.09-.86.269a1.616 1.616 0 0 0-.52.741 3.111 3.111 0 0 0-.175 1.083c0 .409.058.774.174 1.095.12.318.294.57.524.754.233.182.519.273.857.273Zm8.667-3.12v1.27h-3.93v-1.27h3.93Zm4.89-2.275v1.193h-3.762V9.74h3.762Zm-2.833-1.568h1.542v6.145c0 .207.032.366.094.477.065.108.15.182.256.221a.98.98 0 0 0 .35.06c.096 0 .184-.007.263-.021a2.3 2.3 0 0 0 .188-.039l.26 1.206a2.919 2.919 0 0 1-.908.154 2.517 2.517 0 0 1-1.044-.175 1.624 1.624 0 0 1-.737-.605c-.18-.273-.267-.614-.264-1.023v-6.4Zm6.951 8.241c-.656 0-1.223-.136-1.7-.409a2.77 2.77 0 0 1-1.095-1.168c-.256-.505-.384-1.1-.384-1.785 0-.673.128-1.264.384-1.773a2.9 2.9 0 0 1 1.082-1.193c.463-.287 1.007-.43 1.632-.43.404 0 .784.065 1.142.196.36.128.68.326.955.596.278.27.497.614.656 1.032.159.414.239.909.239 1.482v.473h-5.365v-1.04h3.886a1.659 1.659 0 0 0-.192-.788 1.393 1.393 0 0 0-.524-.55 1.48 1.48 0 0 0-.776-.2c-.315 0-.592.077-.83.23-.24.151-.425.35-.559.597-.13.244-.197.513-.2.806v.907c0 .38.07.708.209.98.139.27.334.478.584.622.25.143.542.213.877.213.225 0 .428-.03.61-.093.181-.066.34-.16.473-.286a1.19 1.19 0 0 0 .302-.464l1.44.162c-.09.38-.264.713-.52.997-.252.281-.576.5-.97.656-.396.154-.847.23-1.356.23Zm4.216-.128V9.74h1.495v1.09h.069c.119-.377.323-.668.613-.873a1.69 1.69 0 0 1 1.002-.31c.085 0 .18.003.285.012.108.006.197.016.268.03v1.419a1.62 1.62 0 0 0-.31-.06c-.14-.02-.275-.03-.405-.03a1.56 1.56 0 0 0-.759.184 1.34 1.34 0 0 0-.524.498 1.404 1.404 0 0 0-.192.737v3.848h-1.542Zm4.757 0V9.74h1.475v1.112h.077c.136-.375.362-.668.677-.878.315-.213.692-.32 1.13-.32.443 0 .816.109 1.12.325.307.213.523.504.648.873h.068a1.79 1.79 0 0 1 .733-.87c.347-.218.757-.327 1.231-.327.603 0 1.094.19 1.475.57.38.381.57.937.57 1.667v4.393h-1.546V12.13c0-.406-.108-.703-.324-.89a1.156 1.156 0 0 0-.792-.286c-.373 0-.664.117-.874.35-.207.23-.311.53-.311.899v4.082h-1.513v-4.218c0-.338-.102-.608-.307-.81-.201-.202-.466-.303-.792-.303a1.12 1.12 0 0 0-.605.17 1.19 1.19 0 0 0-.435.474 1.478 1.478 0 0 0-.162.707v3.98h-1.543Zm21.285-5.782h-1.594a1.977 1.977 0 0 0-.251-.695 1.863 1.863 0 0 0-1.078-.84 2.433 2.433 0 0 0-.746-.11c-.475 0-.895.12-1.262.358-.366.236-.653.582-.86 1.04-.208.454-.311 1.01-.311 1.666 0 .667.103 1.23.311 1.687.21.455.497.799.86 1.031.367.23.786.346 1.258.346.261 0 .505-.034.732-.103.231-.07.437-.174.618-.31a1.89 1.89 0 0 0 .729-1.185l1.594.008a3.44 3.44 0 0 1-.388 1.168 3.446 3.446 0 0 1-.771.963 3.561 3.561 0 0 1-1.117.648c-.426.153-.899.23-1.419.23-.767 0-1.451-.178-2.054-.533-.602-.355-1.076-.868-1.423-1.538s-.52-1.475-.52-2.412c0-.94.175-1.745.524-2.412.35-.67.826-1.183 1.428-1.539.602-.355 1.284-.532 2.045-.532.486 0 .938.068 1.355.204.418.137.79.337 1.117.601.327.262.595.583.805.963a3.6 3.6 0 0 1 .418 1.296Zm4.235 5.91c-.64 0-1.194-.14-1.662-.422a2.86 2.86 0 0 1-1.091-1.18c-.256-.506-.384-1.097-.384-1.773 0-.676.128-1.268.384-1.777a2.854 2.854 0 0 1 1.091-1.184c.468-.282 1.022-.422 1.662-.422.639 0 1.193.14 1.661.422.469.28.831.676 1.087 1.184.259.509.388 1.101.388 1.777 0 .676-.129 1.267-.388 1.773-.256.506-.618.9-1.087 1.18-.468.282-1.022.422-1.661.422Zm.008-1.236c.347 0 .636-.095.869-.285.233-.193.407-.452.52-.776a3.16 3.16 0 0 0 .175-1.082c0-.4-.058-.763-.175-1.087a1.714 1.714 0 0 0-.52-.78c-.233-.193-.522-.29-.869-.29-.355 0-.65.097-.886.29a1.745 1.745 0 0 0-.524.78 3.257 3.257 0 0 0-.171 1.087c0 .398.057.758.171 1.082.116.324.291.583.524.776.236.19.531.285.886.285Zm5.98-2.727v3.835h-1.543V9.74h1.475v1.112h.076c.151-.366.391-.658.721-.873.332-.216.742-.324 1.231-.324.452 0 .845.096 1.18.29.339.193.6.473.785.839.187.366.279.811.277 1.334v4.167h-1.543v-3.929c0-.437-.114-.78-.341-1.027-.224-.247-.535-.37-.933-.37-.27 0-.51.06-.72.179a1.234 1.234 0 0 0-.49.507c-.117.221-.175.49-.175.805Zm9.038-2.71v1.193h-3.763V9.74h3.763Zm-2.834-1.568h1.543v6.145c0 .207.031.366.094.477.065.108.15.182.255.221.106.04.222.06.35.06.096 0 .185-.007.264-.021.082-.014.145-.027.188-.039l.26 1.206a3.34 3.34 0 0 1-.354.094 2.898 2.898 0 0 1-.554.06 2.513 2.513 0 0 1-1.044-.175 1.617 1.617 0 0 1-.737-.605c-.179-.273-.267-.614-.265-1.023v-6.4Zm4.124 8.113V9.74h1.496v1.09h.068c.12-.377.324-.668.614-.873a1.689 1.689 0 0 1 1.001-.31c.086 0 .181.003.286.012.108.006.197.016.268.03v1.419a1.616 1.616 0 0 0-.311-.06 2.857 2.857 0 0 0-.405-.03 1.55 1.55 0 0 0-.758.184 1.336 1.336 0 0 0-.524.498 1.403 1.403 0 0 0-.192.737v3.848h-1.543Zm6.524.133a2.73 2.73 0 0 1-1.12-.222 1.825 1.825 0 0 1-.784-.665c-.191-.293-.286-.653-.286-1.082 0-.37.068-.675.205-.916.136-.242.322-.435.558-.58a2.81 2.81 0 0 1 .797-.328c.298-.077.606-.132.925-.166.383-.04.694-.076.933-.107.238-.034.412-.085.52-.153.11-.071.166-.18.166-.328v-.026c0-.321-.095-.57-.286-.746-.19-.176-.464-.264-.822-.264-.378 0-.678.082-.899.247a1.22 1.22 0 0 0-.443.584l-1.441-.205c.114-.397.301-.73.563-.997.261-.27.581-.471.959-.605a3.661 3.661 0 0 1 1.252-.204c.316 0 .63.037.942.11.313.074.598.197.857.367.258.168.466.396.622.686.159.29.238.652.238 1.087v4.38h-1.483v-.899h-.051a1.857 1.857 0 0 1-1.031.89c-.253.095-.55.142-.891.142Zm.401-1.134c.31 0 .578-.061.805-.183.228-.125.402-.29.525-.495.125-.204.187-.427.187-.669v-.77a.728.728 0 0 1-.247.11 3.537 3.537 0 0 1-.384.09 11.78 11.78 0 0 1-.421.067l-.363.052c-.23.03-.436.082-.618.153-.181.071-.325.17-.43.298a.73.73 0 0 0-.158.486c0 .284.104.499.311.644.208.144.472.217.793.217Zm7.462 1.129c-.654 0-1.215-.143-1.684-.43a2.88 2.88 0 0 1-1.078-1.19c-.25-.508-.375-1.093-.375-1.755 0-.665.128-1.251.384-1.76a2.864 2.864 0 0 1 1.082-1.193c.469-.287 1.023-.43 1.662-.43.531 0 1.002.098 1.411.294.412.193.74.467.984.822.244.352.384.764.418 1.236h-1.475a1.402 1.402 0 0 0-.426-.788c-.221-.213-.518-.32-.891-.32-.315 0-.592.085-.83.256a1.64 1.64 0 0 0-.559.724c-.13.316-.196.693-.196 1.134 0 .446.066.83.196 1.15.131.318.314.564.55.737.239.17.518.256.839.256.228 0 .431-.043.61-.128.182-.088.334-.214.456-.379s.206-.365.251-.6h1.475a2.58 2.58 0 0 1-.409 1.23 2.425 2.425 0 0 1-.963.836c-.407.199-.884.298-1.432.298Zm7.339-6.673v1.193h-3.763V9.74h3.763Zm-2.834-1.568h1.543v6.145c0 .207.031.366.093.477a.51.51 0 0 0 .256.221.98.98 0 0 0 .349.06 1.913 1.913 0 0 0 .452-.06l.26 1.206a2.919 2.919 0 0 1-.908.154 2.52 2.52 0 0 1-1.044-.175 1.628 1.628 0 0 1-.737-.605c-.179-.273-.267-.614-.264-1.023v-6.4Z"/><rect width="23.5" height="22.5" x=".518" y="1.535" fill="#75B7FF" stroke="#004693" stroke-width=".5" rx="7.75"/><rect width="23.5" height="22.5" x=".518" y=".535" fill="#007AFF" stroke="#004693" stroke-width=".5" rx="7.75"/><path fill="#3194FF" d="M16.265.786c3.808 0 6.95 2.84 7.432 6.517L.767 13.716v-5.43a7.5 7.5 0 0 1 7.5-7.5h7.998Z"/><path fill="#004693" fill-rule="evenodd" d="M13.518 18.562h-2.25c-2.122 0-3.182 0-3.841-.66-.66-.658-.66-1.719-.66-3.84v-3.857c0-2.122 0-3.182.66-3.841.659-.66 1.725-.66 3.857-.66.341 0 .614 0 .844.01a.856.856 0 0 0-.011.137l-.006 1.595c0 .617 0 1.162.06 1.602.063.476.21.953.6 1.341.388.39.865.536 1.341.6.44.06.985.06 1.602.06h2.28c.024.3.024.669.024 1.16v1.853c0 2.121 0 3.182-.66 3.84-.658.66-1.72.66-3.84.66Z" clip-rule="evenodd"/><path fill="#004693" d="M16.528 8.864 14.3 6.86c-.634-.571-.951-.857-1.34-1.006l-.006 1.538c0 1.326 0 1.989.412 2.4.412.413 1.075.413 2.4.413h2.014c-.204-.396-.569-.725-1.253-1.341Z"/><path fill="#C0DEFF" fill-rule="evenodd" d="M13.518 17.643h-2.25c-2.122 0-3.182 0-3.841-.659-.66-.659-.66-1.72-.66-3.84V9.285c0-2.121 0-3.182.66-3.84.659-.66 1.725-.66 3.857-.66.341 0 .614 0 .844.01a.856.856 0 0 0-.011.137l-.006 1.594c0 .617 0 1.163.06 1.602.063.477.21.953.6 1.342.388.389.865.536 1.341.6.44.06.985.059 1.602.059h2.28c.024.3.024.67.024 1.16v1.853c0 2.122 0 3.182-.66 3.841-.658.66-1.72.66-3.84.66Z" clip-rule="evenodd"/><path fill="#C0DEFF" d="M16.528 7.946 14.3 5.94c-.634-.57-.951-.856-1.34-1.005l-.006 1.538c0 1.326 0 1.988.412 2.4.412.412 1.075.412 2.4.412h2.014c-.204-.396-.569-.725-1.253-1.34Z"/></svg>