<svg xmlns="http://www.w3.org/2000/svg" width="180" height="25" fill="none"><circle cx="169.499" cy="12.541" r="10" fill="#007AFF"/><path fill="#fff" d="M173.279 9.76a.694.694 0 0 1 1.01 0 .765.765 0 0 1 0 1.05l-5 5.206a1.674 1.674 0 0 1-2.307.123l-.131-.123-2.143-2.231-.049-.057a.765.765 0 0 1 .049-.994.693.693 0 0 1 .955-.051l.055.05 2.143 2.231.046.04a.288.288 0 0 0 .372-.04l5-5.205Z"/><path fill="#000" d="m35.196 16.541-2.463-8.727h1.7l1.573 6.414h.08l1.68-6.414h1.547l1.683 6.418h.076l1.573-6.418h1.7l-2.463 8.727h-1.56l-1.747-6.123h-.068l-1.751 6.123h-1.56Zm12.407.128c-.656 0-1.223-.136-1.7-.409a2.77 2.77 0 0 1-1.096-1.167c-.255-.506-.383-1.101-.383-1.786 0-.673.128-1.264.383-1.773a2.9 2.9 0 0 1 1.083-1.193c.463-.287 1.007-.43 1.632-.43.403 0 .784.065 1.142.196.36.128.679.327.955.596.278.27.497.614.656 1.032.159.415.239.909.239 1.483v.473h-5.366v-1.04h3.887a1.66 1.66 0 0 0-.192-.788 1.394 1.394 0 0 0-.524-.55 1.47 1.47 0 0 0-.776-.2c-.315 0-.592.076-.83.23-.24.15-.425.35-.559.596a1.73 1.73 0 0 0-.2.806v.907c0 .381.07.708.209.98.139.27.333.478.583.623.25.142.543.213.878.213.225 0 .428-.032.61-.094.181-.066.34-.16.473-.286.133-.125.234-.28.302-.464l1.44.162c-.09.38-.264.713-.52.997-.252.281-.576.5-.97.656-.396.154-.848.23-1.356.23Zm4.284-.128V7.814h1.542v3.264h.064c.08-.159.192-.328.337-.507a1.79 1.79 0 0 1 .588-.464c.247-.13.562-.196.946-.196.506 0 .962.13 1.368.388.409.255.733.635.971 1.137.242.5.363 1.114.363 1.841 0 .719-.118 1.33-.354 1.833-.236.503-.557.886-.963 1.15a2.477 2.477 0 0 1-1.38.397c-.376 0-.687-.063-.934-.188a1.898 1.898 0 0 1-.597-.452 2.932 2.932 0 0 1-.345-.507h-.09v1.031h-1.516ZM53.4 13.27c0 .423.06.794.178 1.112a1.7 1.7 0 0 0 .525.746c.23.176.508.264.835.264.34 0 .626-.091.856-.273a1.68 1.68 0 0 0 .52-.754c.12-.321.18-.686.18-1.095a3.13 3.13 0 0 0-.175-1.083 1.626 1.626 0 0 0-.52-.741c-.23-.18-.517-.269-.861-.269-.33 0-.61.087-.84.26-.23.174-.404.417-.524.73-.116.312-.174.68-.174 1.103Zm11.98 3.272h-2.958V7.814h3.017c.866 0 1.61.175 2.233.524a3.505 3.505 0 0 1 1.44 1.496c.335.65.503 1.43.503 2.335 0 .91-.169 1.69-.507 2.344a3.505 3.505 0 0 1-1.453 1.504c-.63.35-1.39.524-2.276.524Zm-1.377-1.367h1.3c.608 0 1.115-.111 1.52-.333a2.12 2.12 0 0 0 .917-1.001c.205-.446.307-1.003.307-1.67 0-.668-.102-1.222-.307-1.663a2.092 2.092 0 0 0-.908-.992c-.397-.222-.892-.333-1.483-.333h-1.346v5.992Zm9.944 1.495c-.657 0-1.223-.136-1.7-.409a2.771 2.771 0 0 1-1.096-1.167c-.255-.506-.383-1.101-.383-1.786 0-.673.128-1.264.383-1.773.259-.511.62-.909 1.083-1.193.463-.287 1.007-.43 1.632-.43.403 0 .784.065 1.142.196.36.128.679.327.954.596.279.27.498.614.657 1.032.159.415.238.909.238 1.483v.473h-5.365v-1.04h3.886a1.659 1.659 0 0 0-.191-.788 1.395 1.395 0 0 0-.524-.55 1.47 1.47 0 0 0-.776-.2c-.315 0-.592.076-.83.23-.24.15-.426.35-.56.596a1.73 1.73 0 0 0-.2.806v.907c0 .381.07.708.21.98.139.27.333.478.583.623.25.142.543.213.878.213.224 0 .428-.032.61-.094.181-.066.339-.16.472-.286.134-.125.235-.28.303-.464l1.44.162c-.09.38-.264.713-.52.997-.252.281-.576.5-.971.656-.395.154-.847.23-1.355.23Zm9.388-4.943-1.406.154a1.13 1.13 0 0 0-.209-.401 1.038 1.038 0 0 0-.392-.303 1.428 1.428 0 0 0-.605-.115c-.32 0-.59.07-.81.21-.215.138-.322.319-.319.54a.566.566 0 0 0 .209.465c.145.12.383.217.716.294l1.116.239c.62.133 1.08.345 1.38.635.305.29.458.668.461 1.137a1.78 1.78 0 0 1-.362 1.091c-.236.313-.564.557-.984.733-.42.176-.904.264-1.45.264-.8 0-1.445-.167-1.934-.503a2.021 2.021 0 0 1-.873-1.41l1.504-.145c.068.296.213.519.434.67.222.15.51.225.865.225.367 0 .661-.075.882-.226.225-.15.337-.336.337-.558a.581.581 0 0 0-.217-.465c-.142-.122-.364-.216-.665-.28l-1.116-.235c-.628-.13-1.093-.351-1.394-.66-.301-.313-.45-.708-.447-1.185a1.678 1.678 0 0 1 .328-1.049c.224-.298.535-.528.933-.69.4-.165.862-.247 1.385-.247.767 0 1.37.163 1.811.49.443.327.717.768.822 1.325Zm1.413 4.815V9.996h1.543v6.545h-1.543Zm.776-7.474a.9.9 0 0 1-.63-.243.783.783 0 0 1-.265-.592c0-.233.088-.43.264-.592a.891.891 0 0 1 .63-.248.88.88 0 0 1 .631.248.77.77 0 0 1 .265.592.78.78 0 0 1-.265.592.89.89 0 0 1-.63.243Zm5.2 10.065c-.554 0-1.03-.075-1.428-.225-.398-.148-.717-.347-.959-.597a2.064 2.064 0 0 1-.502-.831l1.389-.337c.062.128.153.255.272.38.12.128.28.233.482.315.205.085.462.128.771.128.438 0 .8-.107 1.087-.32.287-.21.43-.557.43-1.04v-1.24h-.076a2.19 2.19 0 0 1-.35.49c-.15.168-.35.309-.6.422-.248.114-.559.17-.934.17a2.69 2.69 0 0 1-1.368-.353c-.406-.239-.73-.594-.971-1.065-.24-.475-.358-1.069-.358-1.781 0-.72.119-1.326.358-1.82.241-.497.566-.874.975-1.13.41-.258.866-.387 1.368-.387.384 0 .7.065.946.196.25.128.45.283.597.464.148.18.26.348.337.507h.085V9.996h1.521v6.652c0 .56-.133 1.023-.4 1.39a2.41 2.41 0 0 1-1.096.822c-.463.181-.988.272-1.576.272Zm.013-3.895c.326 0 .605-.079.835-.238.23-.16.404-.388.524-.686.12-.299.179-.656.179-1.074 0-.412-.06-.773-.18-1.082a1.537 1.537 0 0 0-.519-.72c-.227-.174-.507-.26-.84-.26-.343 0-.63.089-.86.268-.23.179-.404.425-.52.737-.117.31-.175.662-.175 1.057 0 .4.058.751.175 1.052.12.299.294.532.524.7.233.164.518.247.857.247Zm6.183-2.53v3.834h-1.543V9.996h1.475v1.112h.076c.15-.366.39-.657.72-.873.333-.216.743-.324 1.232-.324.452 0 .845.096 1.18.29.338.193.6.473.784.84.188.366.28.81.277 1.333v4.167h-1.542v-3.928c0-.438-.114-.78-.341-1.027-.225-.248-.536-.371-.933-.371-.27 0-.51.06-.72.179a1.24 1.24 0 0 0-.49.507c-.117.222-.175.49-.175.805Zm11.772 3.834h-2.958V7.814h3.017c.867 0 1.611.175 2.233.524a3.51 3.51 0 0 1 1.441 1.496c.335.65.503 1.43.503 2.335 0 .91-.17 1.69-.508 2.344a3.501 3.501 0 0 1-1.453 1.504c-.63.35-1.389.524-2.275.524Zm-1.377-1.367h1.3c.608 0 1.115-.111 1.521-.333.407-.224.712-.558.917-1.001.204-.446.306-1.003.306-1.67 0-.668-.102-1.222-.306-1.663a2.098 2.098 0 0 0-.908-.992c-.398-.222-.892-.333-1.483-.333h-1.347v5.992Zm9.944 1.495c-.656 0-1.223-.136-1.7-.409a2.763 2.763 0 0 1-1.095-1.167c-.256-.506-.384-1.101-.384-1.786 0-.673.128-1.264.384-1.773a2.898 2.898 0 0 1 1.082-1.193c.463-.287 1.007-.43 1.632-.43.404 0 .784.065 1.142.196.361.128.679.327.955.596.278.27.497.614.656 1.032.159.415.239.909.239 1.483v.473h-5.365v-1.04h3.886a1.661 1.661 0 0 0-.192-.788 1.39 1.39 0 0 0-.524-.55c-.221-.134-.48-.2-.775-.2a1.5 1.5 0 0 0-.831.23 1.59 1.59 0 0 0-.559.596 1.73 1.73 0 0 0-.2.806v.907c0 .381.07.708.209.98.139.27.334.478.584.623.25.142.542.213.877.213.225 0 .428-.032.61-.094a1.35 1.35 0 0 0 .473-.286c.133-.125.234-.28.302-.464l1.441.162c-.091.38-.264.713-.52.997-.253.281-.577.5-.972.656a3.72 3.72 0 0 1-1.355.23Zm7.531-6.673v1.193h-3.869V9.996h3.869Zm-2.902 6.545V9.378c0-.44.091-.807.273-1.1.184-.292.432-.51.741-.656a2.42 2.42 0 0 1 1.032-.217c.267 0 .504.021.711.064.208.043.361.081.46.115l-.306 1.193a2.703 2.703 0 0 0-.248-.06 1.489 1.489 0 0 0-.332-.033c-.287 0-.49.07-.609.208-.117.137-.175.333-.175.588v7.061h-1.547Zm5.771.133a2.73 2.73 0 0 1-1.121-.222 1.83 1.83 0 0 1-.784-.665c-.19-.292-.285-.653-.285-1.082 0-.37.068-.675.204-.916.137-.242.323-.435.558-.58.236-.145.502-.254.797-.328.299-.077.607-.132.925-.166.384-.04.695-.075.933-.107.239-.034.412-.085.52-.153.111-.071.166-.18.166-.328V12.1c0-.32-.095-.57-.285-.746-.19-.176-.465-.264-.823-.264-.377 0-.677.083-.899.247-.218.165-.366.36-.443.584l-1.44-.204c.113-.398.301-.73.562-.998a2.45 2.45 0 0 1 .959-.605 3.67 3.67 0 0 1 1.253-.204c.315 0 .629.037.942.11.312.074.598.197.856.367.259.168.466.396.622.686.159.29.239.652.239 1.087v4.38h-1.483v-.899h-.051a1.896 1.896 0 0 1-.396.512c-.168.156-.38.282-.635.379-.253.094-.55.14-.891.14Zm.401-1.134c.309 0 .578-.061.805-.183.227-.125.402-.29.524-.494a1.26 1.26 0 0 0 .188-.67v-.77a.735.735 0 0 1-.247.11 3.536 3.536 0 0 1-.384.09 13.658 13.658 0 0 1-.784.118c-.23.032-.436.083-.618.154s-.325.17-.43.299a.725.725 0 0 0-.158.485c0 .284.104.499.311.644.207.145.472.217.793.217Zm8.778-1.751V9.996h1.543v6.545h-1.496v-1.163h-.068a1.972 1.972 0 0 1-.729.9c-.335.232-.749.349-1.24.349a2.23 2.23 0 0 1-1.138-.286 1.985 1.985 0 0 1-.767-.84c-.185-.369-.277-.815-.277-1.337V9.996h1.543v3.929c0 .415.113.744.341.989.227.244.525.366.895.366.227 0 .447-.055.66-.166a1.34 1.34 0 0 0 .524-.494c.139-.222.209-.499.209-.831Zm4.672-5.975v8.727h-1.543V7.814h1.543Zm4.854 2.182v1.193h-3.762V9.996h3.762Zm-2.834-1.568h1.543v6.145c0 .207.031.366.094.477.065.108.15.182.256.222.105.04.221.06.349.06.097 0 .185-.008.264-.022.083-.014.145-.027.188-.038l.26 1.206c-.083.028-.201.06-.354.093a2.898 2.898 0 0 1-.554.06 2.517 2.517 0 0 1-1.044-.175 1.623 1.623 0 0 1-.737-.605c-.179-.273-.267-.614-.265-1.023v-6.4Z"/><rect width="23.5" height="22.5" x=".749" y="1.792" fill="#75B7FF" stroke="#004693" stroke-width=".5" rx="7.75"/><rect width="23.5" height="22.5" x=".749" y=".792" fill="#007AFF" stroke="#004693" stroke-width=".5" rx="7.75"/><path fill="#3194FF" d="M16.496 1.042c3.808 0 6.95 2.84 7.432 6.517L.998 13.972v-5.43a7.5 7.5 0 0 1 7.5-7.5h7.998Z"/><path fill="#004693" fill-rule="evenodd" d="M13.748 18.818h-2.25c-2.12 0-3.181 0-3.84-.659-.66-.659-.66-1.72-.66-3.84V10.46c0-2.121 0-3.182.66-3.841.659-.66 1.725-.66 3.857-.66.341 0 .614 0 .844.01a.834.834 0 0 0-.011.138l-.006 1.594c0 .617 0 1.162.06 1.602.063.476.21.953.6 1.342.388.389.864.536 1.341.6.44.059.985.059 1.602.059h2.28c.023.3.023.67.023 1.16v1.853c0 2.121 0 3.182-.659 3.841-.659.66-1.72.66-3.84.66Z" clip-rule="evenodd"/><path fill="#004693" d="m16.759 9.12-2.227-2.004c-.634-.571-.951-.857-1.34-1.006l-.006 1.538c0 1.326 0 1.989.412 2.4.412.413 1.075.413 2.4.413h2.014c-.204-.396-.569-.725-1.253-1.34Z"/><path fill="#C0DEFF" fill-rule="evenodd" d="M13.748 17.9h-2.25c-2.12 0-3.181 0-3.84-.66-.66-.658-.66-1.72-.66-3.84V9.542c0-2.12 0-3.181.66-3.84.659-.66 1.725-.66 3.857-.66.341 0 .614 0 .844.01a.834.834 0 0 0-.011.137l-.006 1.594c0 .618 0 1.163.06 1.603.063.476.21.952.6 1.341.388.39.864.536 1.341.6.44.06.985.06 1.602.06h2.28c.023.3.023.669.023 1.16V13.4c0 2.12 0 3.182-.659 3.84-.659.66-1.72.66-3.84.66Z" clip-rule="evenodd"/><path fill="#C0DEFF" d="m16.759 8.202-2.227-2.005c-.634-.57-.951-.856-1.34-1.005l-.006 1.538c0 1.326 0 1.989.412 2.4.412.412 1.075.412 2.4.412h2.014c-.204-.396-.569-.724-1.253-1.34Z"/></svg>