<svg xmlns="http://www.w3.org/2000/svg" width="75" height="75" fill="none"><path fill="#007AFF" d="M29.881 3.812c4.316-4.42 11.425-4.42 15.74 0l1.055 1.079a11 11 0 0 0 8 3.314l1.51-.018c6.177-.073 11.203 4.953 11.13 11.13l-.018 1.509a11 11 0 0 0 3.314 8.001l1.08 1.054c4.42 4.316 4.42 11.425 0 15.74l-1.08 1.055a11 11 0 0 0-3.314 8.001l.018 1.509c.073 6.177-4.953 11.203-11.13 11.13l-1.51-.018a11 11 0 0 0-8 3.314l-1.054 1.08c-4.316 4.42-11.425 4.42-15.74 0l-1.055-1.08a11 11 0 0 0-8.001-3.314l-1.509.018c-6.177.073-11.204-4.953-11.13-11.13l.018-1.509a11 11 0 0 0-3.314-8.001l-1.08-1.054c-4.42-4.316-4.42-11.425 0-15.74l1.08-1.055a11 11 0 0 0 3.314-8.001l-.018-1.509c-.074-6.177 4.953-11.203 11.13-11.13l1.509.018a11 11 0 0 0 8.001-3.314l1.054-1.08Z"/><path fill="#fff" d="M29.311 47.752c-.28 0-.42-.103-.42-.308 0-.206.122-.318.364-.336l1.092-.112c.392-.038.654-.131.784-.28.15-.15.224-.42.224-.812V29.272c0-.318-.093-.523-.28-.616-.168-.112-.392-.15-.672-.112l-1.008.112c-.336.018-.504-.103-.504-.364 0-.206.15-.336.448-.392.99-.168 1.718-.327 2.184-.476.467-.168.812-.252 1.036-.252.392 0 .588.205.588.616v18.116c0 .392.066.662.196.812.15.149.42.242.812.28l.924.112c.243.018.364.13.364.336 0 .205-.14.308-.42.308h-5.712Zm10.725-10.668c-.69 0-1.297-.215-1.82-.644-.523-.448-.933-1.036-1.232-1.764-.28-.747-.42-1.578-.42-2.492 0-.915.14-1.736.42-2.464.299-.747.71-1.335 1.232-1.764a2.783 2.783 0 0 1 1.82-.644c.69 0 1.288.214 1.792.644.523.429.933 1.017 1.232 1.764.299.728.448 1.549.448 2.464 0 .914-.15 1.745-.448 2.492-.299.728-.71 1.316-1.232 1.764-.504.429-1.101.644-1.792.644ZM37.88 47.752c-.299 0-.373-.131-.224-.392l11.732-19.544c.075-.15.205-.224.392-.224h.308c.299 0 .373.13.224.392L38.58 47.528c-.075.149-.205.224-.392.224h-.308Zm2.156-11.228c.579 0 1.045-.318 1.4-.952.355-.654.532-1.783.532-3.388 0-1.606-.177-2.726-.532-3.36-.355-.635-.821-.952-1.4-.952s-1.045.317-1.4.952c-.355.634-.532 1.754-.532 3.36 0 1.605.177 2.734.532 3.388.355.634.821.952 1.4.952Zm7.896 11.508c-.69 0-1.297-.215-1.82-.644-.523-.448-.933-1.036-1.232-1.764-.28-.747-.42-1.578-.42-2.492 0-.915.14-1.736.42-2.464.299-.747.71-1.335 1.232-1.764a2.783 2.783 0 0 1 1.82-.644c.69 0 1.288.214 1.792.644.523.429.933 1.017 1.232 1.764.299.728.448 1.549.448 2.464 0 .914-.15 1.745-.448 2.492-.299.728-.71 1.316-1.232 1.764-.504.429-1.101.644-1.792.644Zm0-.56c.579 0 1.045-.318 1.4-.952.355-.654.532-1.783.532-3.388 0-1.606-.177-2.726-.532-3.36-.355-.635-.821-.952-1.4-.952s-1.045.317-1.4.952c-.355.634-.532 1.754-.532 3.36 0 1.605.177 2.734.532 3.388.355.634.821.952 1.4.952Z"/></svg>