<svg xmlns="http://www.w3.org/2000/svg" width="228" height="34" fill="none"><g filter="url(#a)"><rect width="226" height="32" x="1" y="1" fill="#007AFF" rx="16"/><rect width="225.501" height="31.501" x="1.25" y="1.25" stroke="url(#b)" stroke-width=".499" rx="15.75"/></g><path fill="#fff" d="M85.67 15.713a.97.97 0 0 0-.42-.724c-.243-.173-.56-.26-.95-.26-.276 0-.511.042-.708.125a1.046 1.046 0 0 0-.45.337.82.82 0 0 0-.057.88.941.941 0 0 0 .287.285c.12.076.255.14.401.192.147.052.295.096.444.131l.682.17c.275.064.539.15.792.26.256.109.484.246.685.412.204.165.365.366.483.6.119.234.178.509.178.824 0 .426-.109.801-.327 1.125-.217.322-.532.575-.944.757-.41.18-.906.27-1.488.27-.566 0-1.057-.088-1.474-.263a2.196 2.196 0 0 1-.973-.767c-.232-.336-.358-.746-.376-1.229h1.296c.019.253.097.464.234.632.137.168.316.294.536.377.223.082.472.124.746.124.287 0 .538-.043.753-.128a1.22 1.22 0 0 0 .511-.362.875.875 0 0 0 .188-.547.695.695 0 0 0-.166-.469 1.222 1.222 0 0 0-.459-.312 4.418 4.418 0 0 0-.681-.227l-.828-.214c-.599-.153-1.072-.387-1.42-.7-.346-.314-.519-.732-.519-1.253 0-.428.116-.803.348-1.125a2.3 2.3 0 0 1 .956-.75c.402-.18.858-.27 1.367-.27.516 0 .968.09 1.356.27.391.178.698.425.92.742.223.315.337.678.344 1.087H85.67Zm2.485 5.274v-5.455h1.285v5.455h-1.285Zm.646-6.23a.75.75 0 0 1-.526-.201.653.653 0 0 1-.22-.494c0-.194.074-.359.22-.494a.743.743 0 0 1 .526-.206c.206 0 .381.069.526.206.146.135.22.3.22.494a.652.652 0 0 1-.22.494.742.742 0 0 1-.526.202Zm4.333 8.389c-.461 0-.858-.063-1.19-.189a2.112 2.112 0 0 1-.798-.497 1.72 1.72 0 0 1-.42-.692l1.158-.28c.052.106.128.211.228.315.099.107.233.194.4.263.171.071.385.107.644.107.364 0 .666-.09.905-.267.24-.175.359-.464.359-.866v-1.034h-.064a1.827 1.827 0 0 1-.291.409c-.126.14-.293.257-.501.351-.206.095-.465.143-.778.143-.419 0-.799-.099-1.14-.295a2.113 2.113 0 0 1-.81-.888c-.198-.395-.298-.89-.298-1.484 0-.6.1-1.105.299-1.517.2-.414.472-.728.813-.94a2.09 2.09 0 0 1 1.14-.324c.32 0 .582.054.788.163.209.107.374.236.497.388.123.149.217.29.28.422h.072v-.902h1.268v5.543c0 .467-.112.853-.334 1.158a2.003 2.003 0 0 1-.913.685 3.573 3.573 0 0 1-1.314.228Zm.01-3.246c.273 0 .505-.066.697-.199.192-.133.337-.323.437-.572.1-.248.149-.547.149-.895a2.5 2.5 0 0 0-.15-.902 1.287 1.287 0 0 0-.433-.6 1.12 1.12 0 0 0-.7-.216c-.285 0-.525.074-.716.223-.192.15-.337.354-.434.615a2.488 2.488 0 0 0-.145.88c0 .334.048.627.145.878.1.248.245.442.437.582.194.137.432.206.714.206Zm5.154-2.11v3.197h-1.286v-5.455h1.229v.927h.064a1.56 1.56 0 0 1 .6-.728c.277-.18.619-.27 1.026-.27.377 0 .704.08.984.242.282.16.499.394.653.7.156.305.233.675.231 1.11v3.474h-1.285v-3.275c0-.364-.095-.65-.285-.855-.187-.206-.446-.31-.777-.31-.225 0-.425.05-.6.15a1.035 1.035 0 0 0-.409.422 1.428 1.428 0 0 0-.145.672Zm13.57-1.622h-1.328a1.67 1.67 0 0 0-.209-.58 1.568 1.568 0 0 0-.38-.432 1.594 1.594 0 0 0-.519-.267 2.022 2.022 0 0 0-.621-.092c-.396 0-.746.1-1.051.298-.306.197-.545.486-.718.867-.173.378-.259.841-.259 1.388 0 .557.086 1.025.259 1.406.175.38.415.666.718.86.305.192.654.288 1.047.288.218 0 .422-.029.611-.086.192-.059.363-.145.515-.259a1.569 1.569 0 0 0 .607-.987l1.328.007c-.049.346-.157.67-.323.973a2.847 2.847 0 0 1-1.573 1.342 3.471 3.471 0 0 1-1.183.192c-.639 0-1.209-.148-1.711-.444a3.098 3.098 0 0 1-1.186-1.282c-.289-.558-.434-1.229-.434-2.01 0-.783.146-1.453.437-2.01a3.12 3.12 0 0 1 1.19-1.282 3.292 3.292 0 0 1 1.704-.444c.405 0 .782.057 1.13.17.348.114.658.281.93.502.272.217.496.485.671.802.178.315.294.675.348 1.08Zm3.529 4.925c-.532 0-.994-.117-1.385-.351a2.395 2.395 0 0 1-.909-.984c-.213-.421-.319-.914-.319-1.477 0-.564.106-1.057.319-1.481a2.39 2.39 0 0 1 .909-.987c.391-.235.853-.352 1.385-.352.533 0 .995.117 1.385.352.391.234.693.563.906.987.215.424.323.917.323 1.48 0 .564-.108 1.056-.323 1.478-.213.421-.515.75-.906.984-.39.234-.852.351-1.385.351Zm.007-1.03c.289 0 .531-.079.725-.238a1.43 1.43 0 0 0 .433-.646c.097-.27.146-.57.146-.902 0-.334-.049-.636-.146-.905a1.436 1.436 0 0 0-.433-.65 1.098 1.098 0 0 0-.725-.242c-.296 0-.542.08-.738.242a1.45 1.45 0 0 0-.437.65 2.71 2.71 0 0 0-.142.905c0 .331.047.632.142.902.097.27.243.485.437.646.196.159.442.238.738.238Zm4.983-2.273v3.197h-1.285v-5.455h1.229v.927h.064c.125-.305.325-.548.6-.728.277-.18.619-.27 1.026-.27.376 0 .704.08.984.242.281.16.499.394.653.7.156.305.233.675.231 1.11v3.474h-1.286v-3.275c0-.364-.094-.65-.284-.855-.187-.206-.446-.31-.777-.31a1.2 1.2 0 0 0-.601.15 1.042 1.042 0 0 0-.408.422 1.428 1.428 0 0 0-.146.672Zm7.532-2.258v.994h-3.135v-.994h3.135Zm-2.361-1.307h1.285v5.121c0 .173.026.305.079.398.054.09.125.151.213.184.087.034.184.05.291.05a1.692 1.692 0 0 0 .376-.05l.217 1.005a2.412 2.412 0 0 1-.757.128 2.1 2.1 0 0 1-.87-.145 1.355 1.355 0 0 1-.614-.505c-.149-.227-.222-.511-.22-.852v-5.334Zm3.437 6.762v-5.455h1.246v.91h.057a1.36 1.36 0 0 1 1.346-.988 3.004 3.004 0 0 1 .461.035v1.183a1.349 1.349 0 0 0-.259-.05 2.39 2.39 0 0 0-.337-.025c-.235 0-.445.051-.632.153-.185.1-.331.238-.437.416-.107.177-.16.382-.16.614v3.207h-1.285Zm5.436.11a2.28 2.28 0 0 1-.934-.185 1.527 1.527 0 0 1-.653-.554c-.159-.244-.238-.544-.238-.902 0-.308.057-.562.171-.763.113-.202.268-.363.465-.483.196-.121.418-.212.664-.274a5.37 5.37 0 0 1 .77-.138c.32-.033.579-.063.778-.09.199-.027.343-.07.433-.127.093-.06.139-.15.139-.273v-.022c0-.267-.08-.474-.238-.621-.159-.147-.387-.22-.686-.22-.314 0-.564.068-.749.206-.182.137-.305.3-.369.486l-1.2-.17a1.91 1.91 0 0 1 .468-.831c.218-.225.484-.393.799-.504a3.049 3.049 0 0 1 1.044-.171c.263 0 .525.03.785.092.261.062.499.164.714.306.215.14.388.33.518.571.133.242.199.544.199.906v3.65h-1.235v-.749h-.043a1.566 1.566 0 0 1-.859.743 2.14 2.14 0 0 1-.743.117Zm.334-.945c.258 0 .482-.05.671-.153.19-.104.335-.241.437-.412a1.05 1.05 0 0 0 .156-.557v-.643a.604.604 0 0 1-.206.093 2.885 2.885 0 0 1-.319.074c-.119.021-.236.04-.352.057a54.8 54.8 0 0 1-.302.043 2.264 2.264 0 0 0-.515.127.853.853 0 0 0-.358.249.606.606 0 0 0-.132.405c0 .237.087.415.26.536.172.12.393.181.66.181Zm6.218.941c-.544 0-1.012-.12-1.403-.358a2.398 2.398 0 0 1-.898-.991c-.208-.424-.312-.912-.312-1.463 0-.554.106-1.043.319-1.467.213-.426.514-.758.902-.994.391-.24.852-.359 1.385-.359.443 0 .835.082 1.176.245.343.161.616.39.82.685.203.294.319.637.348 1.03h-1.229a1.177 1.177 0 0 0-.355-.657c-.185-.177-.432-.266-.742-.266-.263 0-.494.071-.693.213-.199.14-.354.34-.465.604a2.461 2.461 0 0 0-.163.944c0 .372.054.692.163.96.109.264.262.47.458.613.199.142.432.213.7.213.189 0 .358-.035.508-.106.151-.073.278-.179.38-.316.101-.137.171-.304.209-.5h1.229a2.15 2.15 0 0 1-.341 1.025 2.019 2.019 0 0 1-.803.697c-.338.165-.736.248-1.193.248Zm6.116-5.561v.994h-3.136v-.994h3.136Zm-2.361-1.307h1.285v5.121c0 .173.026.305.078.398.055.09.126.151.213.184.088.034.185.05.292.05.08 0 .153-.006.22-.018a1.85 1.85 0 0 0 .156-.032l.217 1.005a2.431 2.431 0 0 1-.757.128 2.096 2.096 0 0 1-.87-.145 1.35 1.35 0 0 1-.614-.505c-.149-.227-.223-.511-.22-.852v-5.334Z"/><defs><linearGradient id="b" x1="114" x2="114" y1="1" y2="33" gradientUnits="userSpaceOnUse"><stop stop-color="#8BC2FF"/><stop offset="1" stop-color="#007AFF"/></linearGradient><filter id="a" width="226.999" height="32.999" x=".501" y=".501" color-interpolation-filters="sRGB" filterUnits="userSpaceOnUse"><feFlood flood-opacity="0" result="BackgroundImageFix"/><feColorMatrix in="SourceAlpha" result="hardAlpha" values="0 0 0 0 0 0 0 0 0 0 0 0 0 0 0 0 0 0 127 0"/><feMorphology in="SourceAlpha" operator="dilate" radius=".499" result="effect1_dropShadow_1339_3499"/><feOffset/><feComposite in2="hardAlpha" operator="out"/><feColorMatrix values="0 0 0 0 0 0 0 0 0 0.370979 0 0 0 0 0.775407 0 0 0 1 0"/><feBlend in2="BackgroundImageFix" result="effect1_dropShadow_1339_3499"/><feBlend in="SourceGraphic" in2="effect1_dropShadow_1339_3499" result="shape"/></filter></defs></svg>